<svg xmlns="http://www.w3.org/2000/svg" xmlns:xlink="http://www.w3.org/1999/xlink" contentStyleType="text/css" height="509.375px" preserveAspectRatio="none" style="width:596px;height:509px;background:#FFFFFF;" version="1.1" viewBox="0 0 596 509" width="596.875px" zoomAndPan="magnify"><defs/><g><!--cluster Docker--><g id="cluster_Docker"><polygon fill="none" points="27.0833,103.6977,27.1349,103.7493,29.0649,101.5126,31.2975,99.5785,33.4315,97.5458,35.2415,95.1892,37.5,93.281,37.5,93.2001,47.8165,92.8368,58.133,92.8815,68.4495,93.21,78.766,92.5608,89.0825,93.8577,99.399,92.6245,109.7155,93.075,120.0321,93.731,130.3486,93.1917,140.6651,93.3521,150.9816,93.2477,161.2981,93.467,171.6146,93.5301,181.9311,93.8911,192.2476,93.98,202.5641,93.9886,212.8806,93.5463,223.1971,93.7639,233.5136,94.0125,243.8301,92.5298,254.1466,93.9878,264.4631,92.9722,274.7796,93.8371,285.0962,92.7654,295.4127,93.2097,305.7292,94.0535,316.0457,93.2302,326.3622,93.3907,336.6787,93.6338,346.9952,93.7146,357.3117,93.2769,367.6282,93.5802,377.9447,92.6847,388.2612,93.5773,398.5777,93.8521,408.8942,93.7441,419.2107,93.9196,429.5272,92.7778,439.8438,92.6017,450.1603,92.6337,460.4768,93.2197,470.7933,93.0763,481.1098,93.9908,491.4263,93.0991,501.7428,92.9237,512.0593,93.5188,522.3758,92.5864,532.6923,92.7403,543.0088,93.957,553.3253,93.7348,563.6418,94.0461,573.9583,93.281,573.6231,93.281,574.2908,103.6414,574.5734,114.0017,573.4662,124.3621,573.8585,134.7225,574.0896,145.0828,574.6372,155.4432,573.954,165.8035,574.4402,176.1639,573.3815,186.5243,573.2529,196.8846,574.4829,207.245,573.2115,217.6053,574.4885,227.9657,574.1736,238.3261,573.6793,248.6864,573.5898,259.0468,574.4362,269.4071,573.6465,279.7675,574.5749,290.1279,573.3826,300.4882,574.6015,310.8486,574.4628,321.2089,574.2135,331.5693,574.0075,341.9297,574.7152,352.29,574.5975,362.6504,574.1346,373.0107,574.2377,383.3711,573.8226,393.7315,574.7046,404.0918,574.1197,414.4522,574.1381,424.8125,573.3246,435.1729,573.5362,445.5333,574.5112,455.8936,574.406,466.254,573.9583,476.6143,573.9478,476.6038,571.7959,478.6186,569.7379,480.7273,567.5399,482.6959,565.7268,485.0495,563.5417,487.031,563.5417,487.8014,553.2252,487.5793,542.9087,487.7549,532.5921,486.8886,522.2756,487.1219,511.9591,486.6273,501.6426,487.3269,491.3261,487.2881,481.0096,487.6064,470.6931,486.7918,460.3766,486.891,450.0601,487.493,439.7436,487.622,429.4271,486.4971,419.1106,486.8291,408.7941,487.1865,398.4776,486.3947,388.1611,487.3991,377.8446,487.2998,367.528,486.9261,357.2115,487.1792,346.895,487.7901,336.5785,486.7051,326.262,487.3591,315.9455,487.3286,305.629,487.1516,295.3125,487.1778,284.996,487.1492,274.6795,486.3809,264.363,486.6135,254.0465,486.5503,243.73,487.0975,233.4135,487.1228,223.097,487.1995,212.7804,486.7279,202.4639,486.9607,192.1474,486.9058,181.8309,487.6319,171.5144,487.4754,161.1979,486.5253,150.8814,486.9551,140.5649,486.4297,130.2484,487.3314,119.9319,487.6649,109.6154,487.5983,99.2989,486.5773,88.9824,487.5143,78.6659,486.2573,68.3494,487.2395,58.0329,486.7192,47.7163,487.1318,37.3998,487.2814,27.0833,487.031,27.5751,487.031,26.3334,476.6707,27.5786,466.3103,27.2689,455.9499,27.4535,445.5896,27.8623,435.2292,27.089,424.8689,27.2659,414.5085,27.3057,404.1481,27.2888,393.7878,27.0825,383.4274,27.8237,373.0671,26.4482,362.7067,27.6722,352.3463,26.4333,341.986,26.5205,331.6256,27.125,321.2652,27.1128,310.9049,26.57,300.5445,27.5143,290.1842,27.1967,279.8238,27.8403,269.4634,27.7782,259.1031,26.6164,248.7427,26.6688,238.3824,26.9488,228.022,27.4537,217.6616,27.5031,207.3013,27.397,196.9409,26.7271,186.5806,27.7462,176.2202,27.7435,165.8598,27.0341,155.4995,26.8343,145.1391,26.6652,134.7788,26.8598,124.4184,27.2265,114.058,27.0833,103.6977" style="stroke:#333333;stroke-width:1.0416666666666667;"/><path d="M563.5417,103.6977 L563.6105,103.7665 L565.4894,101.4787 L567.7716,99.5943 L569.9225,97.5785 L571.6415,95.1308 L573.9583,93.281 " fill="none" style="stroke:#333333;stroke-width:1.0416666666666667;"/><path d="M27.0833,103.6977 L27.0833,103.9896 L37.3998,103.1222 L47.7163,103.9661 L58.0329,104.2528 L68.3494,102.7069 L78.6659,103.5897 L88.9824,103.1053 L99.2989,103.165 L109.6154,103.603 L119.9319,102.7374 L130.2484,104.4666 L140.5649,102.8223 L150.8814,103.423 L161.1979,104.2976 L171.5144,103.5785 L181.8309,103.7925 L192.1474,103.6533 L202.4639,103.9456 L212.7804,104.0298 L223.097,104.5111 L233.4135,104.6297 L243.73,104.6411 L254.0465,104.0513 L264.363,104.3415 L274.6795,104.673 L284.996,102.696 L295.3125,104.6401 L305.629,103.2859 L315.9455,104.4391 L326.262,103.0101 L336.5785,103.6025 L346.895,104.7277 L357.2115,103.63 L367.528,103.8439 L377.8446,104.168 L388.1611,104.2758 L398.4776,103.6923 L408.7941,104.0966 L419.1106,102.9027 L429.4271,104.0927 L439.7436,104.4591 L450.0601,104.3151 L460.3766,104.5491 L470.6931,103.0267 L481.0096,102.7919 L491.3261,102.8346 L501.6426,103.6159 L511.9591,103.4247 L522.2756,104.6441 L532.5921,103.4551 L542.9087,103.2212 L553.2252,104.0147 L563.5417,103.6977 " fill="none" style="stroke:#333333;stroke-width:1.0416666666666667;"/><path d="M563.5417,103.6977 L563.8336,103.6977 L562.9662,114.058 L563.8101,124.4184 L564.0968,134.7788 L562.5508,145.1391 L563.4337,155.4995 L562.9493,165.8598 L563.009,176.2202 L563.447,186.5806 L562.5814,196.9409 L564.3106,207.3013 L562.6663,217.6616 L563.267,228.022 L564.1416,238.3824 L563.4225,248.7427 L563.6364,259.1031 L563.4973,269.4634 L563.7896,279.8238 L563.8738,290.1842 L564.3551,300.5445 L564.4737,310.9049 L564.4851,321.2652 L563.8953,331.6256 L564.1855,341.986 L564.517,352.3463 L562.54,362.7067 L564.484,373.0671 L563.1299,383.4274 L564.2831,393.7878 L562.8541,404.1481 L563.4465,414.5085 L564.5717,424.8689 L563.474,435.2292 L563.6879,445.5896 L564.012,455.9499 L564.1198,466.3103 L563.5362,476.6707 L563.5417,487.031 " fill="none" style="stroke:#333333;stroke-width:1.0416666666666667;"/><text fill="#000000" font-family="Segoe Print" font-size="12.5" font-weight="bold" lengthAdjust="spacing" textLength="44.2253" x="274.2415" y="125.3936">Docker</text></g><!--cluster DB--><g id="cluster_DB"><path d="M291.6667,172.4477 L291.6667,172.4477 L291.6954,172.5406 L295.4999,171.06 L299.4731,170.1243 L303.3913,169.0112 L307.1289,167.3145 L311.1165,166.4255 L311.1132,166.3897 L315.0855,165.8587 L319.0746,165.5082 L323.0753,165.2833 L327.0358,164.6257 L331.0527,164.5741 L331.0683,164.83 L333.2837,164.1451 L335.5448,164.2071 L337.8116,164.3602 L340.0458,163.9832 L342.2971,163.885 L342.2986,163.9165 L344.6182,163.7598 L346.9447,163.7468 L349.2679,163.6644 L351.5973,163.7143 L353.9063,163.3331 L353.9165,163.6436 L358.4873,163.4968 L363.0516,163.1498 L367.6255,163.0959 L372.1998,163.0558 L376.7598,162.5803 L376.7534,162.2465 L380.7532,162.8171 L384.7316,162.2885 L388.7263,162.5955 L392.7043,162.042 L396.696,162.1938 L396.6957,162.1621 L400.5888,162.5045 L404.4757,162.1061 L408.3663,162.1449 L412.2572,162.2203 L416.1458,162.031 L416.1458,162.031 L416.1474,162.2237 L420.0358,162.0618 L423.9269,162.2291 L427.8135,161.8637 L431.7068,162.2929 L435.5957,162.1938 L435.6006,162.4475 L439.5869,162.4769 L443.5757,162.6322 L447.553,162.2021 L451.5387,162.2011 L455.5318,162.5803 L455.5223,162.2928 L460.1016,162.7036 L464.6703,162.7905 L469.2544,163.3473 L473.812,163.1017 L478.3854,163.3331 L478.3779,163.1745 L480.7123,163.549 L483.0144,163.2455 L485.3395,163.4241 L487.687,164.0747 L489.9946,163.885 L490.0069,164.0863 L492.2643,164.3622 L494.4832,164.0119 L496.7503,164.446 L499.0068,164.7091 L501.239,164.5741 L501.2188,164.3564 L505.2221,164.9002 L509.2189,165.3728 L513.2286,165.9854 L517.1877,166.0533 L521.1751,166.4255 L521.2385,166.6301 L524.9893,167.3851 L528.8623,168.5349 L532.914,170.2615 L536.6369,170.9262 L540.625,172.4477 L542.0388,172.4477 L541.199,182.8643 L539.8808,193.281 L539.6423,203.6977 L541.8993,214.1143 L539.7935,224.531 L542.2691,234.9477 L539.0896,245.3643 L542.3401,255.781 L541.9703,266.1977 L541.3055,276.6143 L540.7562,287.031 L542.6434,297.4477 L542.3294,307.8643 L541.0952,318.281 L541.37,328.6977 L540.2632,339.1143 L542.6151,349.531 L541.0552,359.9477 L541.1044,370.3643 L538.9351,380.781 L539.4994,391.1977 L542.0993,401.6143 L541.8188,412.031 L540.5057,422.4477 L539.7301,432.8643 L540.625,443.281 L540.625,443.281 L540.595,443.1842 L536.6411,444.182 L532.9018,445.8733 L529.0563,447.2214 L525.1372,448.3315 L521.1751,449.3032 L521.2049,449.6235 L517.1821,449.6104 L513.2044,450.0839 L509.1969,450.2353 L505.2384,450.9152 L501.239,451.1546 L501.246,451.2686 L499.0058,451.5476 L496.7347,451.3241 L494.4885,451.506 L492.256,451.9108 L489.9946,451.8437 L490.007,452.1061 L487.6615,451.7171 L485.3466,451.9748 L483.0324,452.2439 L480.6938,452.0027 L478.3854,452.3956 L478.3908,452.5591 L473.8186,452.6655 L469.2424,452.6501 L464.6754,452.9131 L460.1136,453.335 L455.5318,453.1484 L455.529,453.0035 L451.5474,453.3715 L447.5599,453.4352 L443.5712,453.4339 L439.5842,453.5228 L435.5957,453.5349 L435.5961,453.5875 L431.7033,453.2785 L427.8142,453.4145 L423.924,453.4189 L420.0361,453.6947 L416.1458,453.6977 L416.1458,453.6977 L416.1462,453.7385 L412.2565,453.74 L408.3648,453.4979 L404.4756,453.5688 L400.5855,453.5118 L396.696,453.5349 L396.7011,453.8019 L392.7126,453.6551 L388.7172,453.1556 L384.7336,453.2692 L380.7419,452.9585 L376.7598,453.1484 L376.7642,453.2818 L372.1984,453.2794 L367.6267,453.0992 L363.0411,452.4952 L358.484,452.7608 L353.9063,452.3956 L353.8899,452.0521 L351.5888,452.3778 L349.256,452.0364 L346.9429,452.1092 L344.6242,452.0653 L342.2971,451.8437 L342.3105,452.0619 L340.0278,451.3732 L337.8128,451.7878 L335.5555,451.5126 L333.3116,451.4566 L331.0527,451.1546 L331.0847,451.4993 L327.0657,450.7868 L323.0857,450.4948 L319.1001,450.1421 L315.1122,449.7644 L311.1165,449.3032 L311.1164,449.3028 L307.3239,448.413 L303.2531,446.6246 L299.524,445.9399 L295.4712,444.2095 L291.6667,443.281 L290.1658,443.281 L291.7778,432.8643 L291.7452,422.4477 L290.2977,412.031 L292.8159,401.6143 L291.969,391.1977 L293.6852,380.781 L293.5197,370.3643 L290.4215,359.9477 L290.5613,349.531 L291.3078,339.1143 L292.6542,328.6977 L292.7861,318.281 L292.5032,307.8643 L290.7168,297.4477 L293.4343,287.031 L293.4272,276.6143 L291.5353,266.1977 L291.0026,255.781 L290.5517,245.3643 L291.0706,234.9477 L292.0484,224.531 L291.4767,214.1143 L290.5061,203.6977 L293.0205,193.281 L290.3918,182.8643 L291.6667,172.4477 " fill="#B5C7EB" style="stroke:#333333;stroke-width:1.0416666666666667;"/><path d="M291.6667,172.4477 L291.6667,172.4477 L291.6954,172.5406 L295.4999,173.4689 L299.4731,174.942 L303.3913,176.2377 L307.1289,176.9499 L311.1165,178.4698 L311.1132,178.434 L315.0855,178.6435 L319.0746,179.0336 L323.0753,179.5492 L327.0358,179.6322 L331.0527,180.3212 L331.0683,180.5771 L333.2837,180.1678 L335.5448,180.5055 L337.8116,180.9343 L340.0458,180.8329 L342.2971,181.0104 L342.2986,181.042 L344.6182,181.106 L346.9447,181.3137 L349.2679,181.4521 L351.5973,181.7227 L353.9063,181.5623 L353.9165,181.8728 L358.4873,182.0271 L363.0516,181.9812 L367.6255,182.2284 L372.1998,182.4894 L376.7598,182.315 L376.7534,181.9812 L380.7532,182.7064 L384.7316,182.3324 L388.7263,182.7941 L392.7043,182.3951 L396.696,182.7016 L396.6957,182.6699 L400.5888,183.0775 L404.4757,182.7441 L408.3663,182.848 L412.2572,182.9886 L416.1458,182.8643 L416.1458,182.8643 L416.1474,183.057 L420.0358,182.83 L423.9269,182.9322 L427.8135,182.5017 L431.7068,182.8658 L435.5957,182.7016 L435.6006,182.9553 L439.5869,182.83 L443.5757,182.8307 L447.553,182.246 L451.5387,182.0905 L455.5318,182.315 L455.5223,182.0275 L460.1016,182.1372 L464.6703,181.923 L469.2544,182.1787 L473.812,181.632 L478.3854,181.5623 L478.3779,181.4036 L480.7123,181.5575 L483.0144,181.0331 L485.3395,180.9911 L487.687,181.4209 L489.9946,181.0104 L490.0069,181.2117 L492.2643,181.212 L494.4832,180.586 L496.7503,180.7444 L499.0068,180.7319 L501.239,180.3212 L501.2188,180.1034 L505.2221,179.9067 L509.2189,179.6387 L513.2286,179.5108 L517.1877,178.8382 L521.1751,178.4698 L521.2385,178.6744 L524.9893,177.0205 L528.8623,175.7614 L532.914,175.0793 L536.6369,173.335 L540.625,172.4477 " fill="none" style="stroke:#333333;stroke-width:1.0416666666666667;"/><text fill="#2E2E2E" font-family="Segoe Print" font-size="12.5" font-weight="bold" lengthAdjust="spacing" textLength="78.313" x="376.9893" y="203.5186">PostgresSQL</text></g><!--entity SB--><g id="elem_SB"><path d="M142.5045,27.2031 L142.5045,27.2031 L142.5058,27.3004 L144.4495,26.985 L146.4009,27.2399 L148.3498,27.3091 L150.2904,26.7674 L152.2425,27.0713 L152.2425,27.0713 L152.2347,27.0362 L154.53,26.3614 L156.8645,25.8638 L159.2263,25.4892 L161.4941,24.6904 L163.8936,24.4857 L163.8936,24.4857 L163.9135,24.7413 L166.4341,24.3936 L169.0126,24.7921 L171.5982,25.2815 L174.1427,25.2414 L176.7088,25.4798 L176.7088,25.4798 L176.7161,25.5105 L179.0423,24.912 L181.4017,24.4533 L183.7451,23.9272 L186.119,23.5299 L188.3934,22.7126 L188.3934,22.7126 L188.4131,23.0226 L190.6549,22.8837 L192.8839,22.5448 L195.1315,22.4986 L197.3801,22.4662 L199.6009,21.999 L199.6009,21.999 L199.5787,21.6658 L201.8872,22.4633 L204.1226,22.1638 L206.4135,22.6983 L208.6472,22.3739 L210.9278,22.7535 L210.9278,22.7535 L210.9204,22.7226 L213.0122,23.5704 L214.9303,23.6979 L216.9508,24.2503 L218.98,24.8385 L220.9471,25.1693 L220.9471,25.1693 L220.9594,25.3616 L223.509,25.3305 L226.0796,25.6281 L228.6164,25.3939 L231.2036,25.9528 L233.7572,25.9845 L233.7572,25.9845 L233.7881,26.2364 L236.1569,26.4797 L238.5409,26.848 L240.8538,26.6352 L243.2189,26.8484 L245.6302,27.439 L245.6302,27.439 L245.5909,27.154 L247.6938,27.6969 L249.7525,27.9187 L251.8753,28.6062 L253.8886,28.4985 L255.967,28.8635 L255.967,28.8635 L255.8177,28.8094 L257.4418,32.6923 L258.4276,36.3439 L259.8673,40.16 L261.751,44.1372 L262.844,47.8276 L262.844,47.8276 L263.0337,47.896 L264.1645,50.7168 L264.7052,53.3247 L265.9851,56.1993 L267.1039,59.0158 L267.8475,61.6969 L267.713,61.5244 L265.4947,63.4752 L263.2324,65.3695 L261.0566,67.3747 L258.5444,68.9485 L256.2202,70.7633 L256.2202,70.7633 L256.226,70.9774 L253.1493,70.59 L250.0838,70.6158 L247.0347,71.2452 L243.9555,70.7633 L240.9005,71.178 L240.9005,71.178 L240.9198,71.4129 L238.1837,71.4969 L235.4411,71.5014 L232.7132,71.6852 L230.0193,72.2836 L227.2773,72.2954 L227.2773,72.2954 L227.2703,72.157 L224.4415,72.4255 L221.5652,71.7526 L218.7428,72.1501 L215.8901,71.9449 L213.0292,71.5774 L213.0292,71.5774 L213.0392,71.6904 L210.0882,71.8586 L207.1729,72.4314 L204.2254,72.6387 L201.2644,72.6933 L198.3146,72.8747 L198.3146,72.8747 L198.3167,72.9988 L195.3507,72.8643 L192.3944,73.3061 L189.4271,73.096 L186.4643,73.1541 L183.5,73.1241 L183.5,73.1241 L183.4562,72.8459 L180.6111,72.4883 L177.8188,72.4658 L174.9518,71.9691 L172.058,71.3025 L169.2014,70.8716 L169.2014,70.8716 L169.1942,70.7226 L166.5641,70.6445 L163.9213,70.3025 L161.3133,70.6858 L158.688,70.7101 L156.0393,70.2423 L156.0393,70.2423 L156.0497,70.4857 L153.1795,70.4404 L150.2894,69.9324 L147.4203,69.9126 L144.5374,69.5697 L141.6715,69.6256 L141.6715,69.6256 L141.7943,69.6726 L140.9717,67.5586 L140.2974,65.5012 L139.1527,63.264 L138.3874,61.1718 L137.639,59.0862 L137.639,59.0862 L137.8277,59.1672 L136.9264,56.9683 L135.5131,54.5496 L134.6947,52.3863 L133.8867,50.2275 L132.8692,47.9787 L132.8692,47.9787 L132.6024,47.8851 L133.6368,46.2841 L134.2083,44.5207 L134.6648,42.7169 L135.3842,41.0054 L135.9352,39.2348 L135.9352,39.2348 L136.2313,39.3965 L137.1219,36.7591 L138.6909,34.492 L139.9929,32.0792 L141.2377,29.6351 L142.5045,27.2031 " fill="#88E788" style="stroke:#000000;stroke-width:1.0416666666666667;"/><text fill="#2E2E2E" font-family="Segoe Print" font-size="12.5" lengthAdjust="spacing" textLength="89.1506" x="153.125" y="52.4769">SpringBoot API</text></g><!--entity O--><g id="elem_O"><path d="M52.639,247.3326 L52.639,247.3326 L52.652,247.4291 L55.9439,246.6908 L59.3125,246.5179 L62.6561,246.1608 L65.9176,245.1985 L69.2927,245.074 L69.2927,245.074 L69.2859,245.0387 L71.8214,244.3839 L74.3915,243.9071 L76.9854,243.5541 L79.4969,242.7745 L82.1239,242.5924 L82.1239,242.5924 L82.1669,242.8451 L85.0707,241.7946 L88.1002,241.4819 L91.1449,241.2591 L94.1005,240.5127 L97.103,240.0417 L97.103,240.0417 L97.1107,240.0723 L100.1054,240.7794 L103.1351,241.6259 L106.1478,242.4052 L109.1928,243.3129 L112.1329,243.8019 L112.1329,243.8019 L112.1463,244.1123 L115.555,244.2623 L118.9552,244.2122 L122.3679,244.4552 L125.7812,244.7118 L129.1759,244.5333 L129.1759,244.5333 L129.1362,244.2018 L132.204,245.2032 L135.1411,245.1131 L138.1776,245.8528 L141.1118,245.7378 L144.1298,246.3234 L144.1298,246.3234 L144.1101,246.2985 L146.4082,248.2244 L148.2469,249.5688 L150.3567,251.2563 L152.4892,252.9726 L154.4576,254.4812 L154.6464,254.5195 L153.9322,257.0604 L153.5407,259.6668 L152.6271,262.1673 L152.4922,264.8258 L151.8396,267.3792 L151.8396,267.3792 L152.0864,267.4383 L152.7326,270.3183 L153.5012,273.2277 L153.7005,276.0007 L154.3172,278.8736 L155.3036,281.8352 L155.159,281.5865 L152.7197,283.3059 L150.1174,284.7451 L147.7515,286.5907 L144.982,287.7423 L142.4524,289.3065 L142.4524,289.3065 L142.4374,289.1484 L139.4216,289.7005 L136.3417,289.5767 L133.3074,289.9335 L130.3177,290.7606 L127.2486,290.7502 L127.2486,290.7502 L127.2741,290.9503 L124.5523,291.4363 L121.7514,291.3 L119.0496,291.9432 L116.3263,292.4165 L113.5526,292.4941 L113.5526,292.4941 L113.5168,292.2784 L110.6616,292.9284 L107.7947,293.5077 L104.9509,294.2258 L102.0175,294.4043 L99.1342,294.8842 L99.1342,294.8842 L99.1472,295.0979 L95.8019,294.426 L92.4818,294.1666 L89.1984,294.51 L85.8473,293.7437 L82.5509,293.8727 L82.5509,293.8727 L82.6116,294.1004 L79.8849,293.2478 L77.1378,292.3181 L74.437,291.5623 L71.8433,291.2084 L69.098,290.2857 L69.098,290.2857 L69.092,290.1473 L66.1083,290.43 L63.084,289.7711 L60.1059,290.1829 L57.1017,289.9919 L54.0906,289.6384 L54.0906,289.6384 L54.1937,289.6855 L53.114,287.4624 L52.4037,285.4078 L51.3596,283.201 L50.1759,280.9306 L49.1082,278.713 L49.1082,278.713 L49.2117,278.7815 L47.6713,276.5841 L46.6117,274.7047 L45.0084,272.4656 L43.6287,270.3745 L42.1755,268.2348 L42.1755,268.2348 L41.9231,268.1098 L43.1543,265.8365 L44.6896,263.7138 L45.7946,261.378 L46.7455,258.9658 L47.9103,256.6596 L47.9103,256.6596 L47.7772,256.5921 L48.7656,254.7483 L49.5184,252.7851 L50.9187,251.1502 L51.9986,249.3528 L52.639,247.3326 " fill="#D9D9D9" style="stroke:#000000;stroke-width:1.0416666666666667;"/><text fill="#2E2E2E" font-family="Segoe Print" font-size="12.5" lengthAdjust="spacing" textLength="64.963" x="64.5833" y="271.2269">Ollama API</text></g><!--entity U--><g id="elem_U"><path d="M341.1458,232.8643 L341.1458,233.059 L349.0625,232.4807 L356.9792,233.0433 L364.8958,233.2344 L372.8125,232.2038 L380.7292,232.8643 L384.8958,237.031 L384.8293,237.0036 L385.989,240.4223 L387.4842,243.9791 L389.2125,247.632 L390.1372,250.9539 L392.1875,254.7393 L392.1875,256.2772 L402.5034,252.9886 L412.8194,254.19 L423.1353,255.9392 L433.4512,254.5011 L443.7672,254.7393 L447.9338,258.906 L447.997,258.906 L447.9043,266.2694 L448.0992,273.6327 L448.1553,280.9961 L448.4762,288.3594 L447.9338,295.7228 L443.7672,299.8895 L443.7672,301.7535 L433.505,301.7763 L423.2429,300.5968 L412.9808,301.1772 L402.7186,301.8401 L392.4565,297.8862 L382.1944,301.7742 L371.9322,299.0658 L361.6701,301.3723 L351.408,298.5144 L341.1458,299.8895 L336.9792,295.7228 L336.7889,295.7228 L339.0392,285.9408 L336.8438,276.1589 L337.2717,266.3769 L337.9198,256.5949 L338.1354,246.813 L336.9792,237.031 L341.1458,232.8643 " fill="none" style="stroke:#FFC107;stroke-width:2.0833333333333335;"/><path d="M336.9792,254.7393 L336.9792,255.0313 L348.0208,254.1639 L359.0625,255.0078 L370.1042,255.2945 L381.1458,253.7485 L392.1875,254.7393 " fill="none" style="stroke:#FFC107;stroke-width:2.0833333333333335;"/><text fill="#FFC107" font-family="Segoe Print" font-size="12.5" lengthAdjust="spacing" textLength="69.288" x="352.6042" y="280.6019">User details</text></g><!--entity F--><g id="elem_F"><path d="M442.7083,362.031 L442.7083,362.2256 L450.625,361.6474 L458.5417,362.21 L466.4583,362.4011 L474.375,361.3705 L482.2917,362.031 L486.4583,366.1977 L486.3918,366.1703 L487.5515,369.589 L489.0467,373.1458 L490.775,376.7987 L491.6997,380.1206 L493.75,383.906 L493.75,384.4186 L497.2659,383.3224 L500.7818,383.7229 L504.2977,384.306 L507.8135,383.8266 L511.3294,383.906 L515.4961,388.0727 L515.5593,388.0727 L515.4665,395.436 L515.6614,402.7994 L515.7175,410.1628 L516.0384,417.5261 L515.4961,424.8895 L511.3294,429.0561 L511.3294,430.9202 L501.5264,430.943 L491.7234,429.7634 L481.9204,430.3439 L472.1174,431.0068 L462.3144,427.0528 L452.5113,430.9409 L442.7083,429.0561 L438.5417,424.8895 L437.718,424.8895 L440.0245,415.1075 L437.1666,405.3255 L438.3514,395.5436 L440.6017,385.7616 L438.4063,375.9796 L438.5417,366.1977 L442.7083,362.031 " fill="none" style="stroke:#FFC107;stroke-width:2.0833333333333335;"/><path d="M438.5417,383.906 L438.5417,384.1979 L449.5833,383.3306 L460.625,384.1745 L471.6667,384.4611 L482.7083,382.9152 L493.75,383.906 " fill="none" style="stroke:#FFC107;stroke-width:2.0833333333333335;"/><text fill="#FFC107" font-family="Segoe Print" font-size="12.5" lengthAdjust="spacing" textLength="35.2878" x="454.1667" y="409.7686">Foods</text></g><!--entity M--><g id="elem_M"><path d="M329.6875,362.031 L329.6875,362.2256 L337.6042,361.6474 L345.5208,362.21 L353.4375,362.4011 L361.3542,361.3705 L369.2708,362.031 L373.4375,366.1977 L373.371,366.1703 L374.5307,369.589 L376.0258,373.1458 L377.7541,376.7987 L378.6789,380.1206 L380.7292,383.906 L380.7292,384.4186 L384.1101,383.3224 L387.4909,383.7229 L390.8718,384.306 L394.2527,383.8266 L397.6336,383.906 L401.8003,388.0727 L401.8634,388.0727 L401.7707,395.436 L401.9656,402.7994 L402.0217,410.1628 L402.3426,417.5261 L401.8003,424.8895 L397.6336,429.0561 L397.6336,430.9202 L387.927,430.943 L378.2204,429.7634 L368.5138,430.3439 L358.8073,431.0068 L349.1007,427.0528 L339.3941,430.9409 L329.6875,429.0561 L325.5208,424.8895 L324.6972,424.8895 L327.0036,415.1075 L324.1458,405.3255 L325.3306,395.5436 L327.5808,385.7616 L325.3855,375.9796 L325.5208,366.1977 L329.6875,362.031 " fill="none" style="stroke:#FFC107;stroke-width:2.0833333333333335;"/><path d="M325.5208,383.906 L325.5208,384.1979 L336.5625,383.3306 L347.6042,384.1745 L358.6458,384.4611 L369.6875,382.9152 L380.7292,383.906 " fill="none" style="stroke:#FFC107;stroke-width:2.0833333333333335;"/><text fill="#FFC107" font-family="Segoe Print" font-size="12.5" lengthAdjust="spacing" textLength="34.6128" x="341.1458" y="409.7686">Meals</text></g><!--entity LLM--><g id="elem_LLM"><polygon fill="#FFFFC5" points="186.9792,247.4477,187.0308,247.4993,188.9608,245.2626,191.1933,243.3285,193.3273,241.2958,195.1373,238.9392,197.3958,237.031,197.3958,236.9501,208.4132,236.5868,219.4306,236.6315,230.448,236.96,241.4654,236.3108,252.4828,237.6077,263.5002,237.031,262.8436,237.031,263.2942,246.686,263.9501,256.3411,263.4108,265.9961,263.5712,275.6511,263.5002,285.3061,263.4923,285.2983,261.4607,287.4333,259.3922,289.5315,257.394,291.6999,255.3316,293.8042,253.0835,295.7228,253.0835,296.4304,242.0661,295.988,231.0487,296.2057,220.0313,296.4543,209.0139,294.9716,197.9966,296.4296,186.9792,295.7228,186.6703,295.7228,187.5352,286.0678,186.4635,276.4128,186.9078,266.7577,187.7517,257.1027,186.9792,247.4477" style="stroke:#000000;stroke-width:1.0416666666666667;"/><path d="M253.0835,247.4477 L253.1523,247.5165 L255.0312,245.2287 L257.3134,243.3443 L259.4643,241.3285 L261.1833,238.8808 L263.5002,237.031 " fill="#FFFFC5" style="stroke:#000000;stroke-width:1.0416666666666667;"/><path d="M186.9792,247.4477 L186.9792,247.7396 L197.9966,246.8722 L209.0139,247.7161 L220.0313,248.0028 L231.0487,246.4569 L242.0661,247.3397 L253.0835,247.4477 " fill="#FFFFC5" style="stroke:#000000;stroke-width:1.0416666666666667;"/><path d="M253.0835,247.4477 L253.3754,247.4477 L252.5081,257.1027 L253.352,266.7577 L253.6386,276.4128 L252.0927,286.0678 L253.0835,295.7228 " fill="#FFFFC5" style="stroke:#000000;stroke-width:1.0416666666666667;"/><text fill="#000000" font-family="Segoe Print" font-size="12.5" lengthAdjust="spacing" textLength="24.4377" x="207.8125" y="276.4353">LLM</text></g><!--link SB to O--><g id="link_SB_O"><path d="M170.2892,82.1229 L170.3746,82.1695 L169.8129,82.5961 L169.7521,83.2956 L169.5282,83.9063 L168.7678,84.2247 L168.75,84.9477 L168.7187,84.93 L167.4962,86.7626 L166.4317,88.6846 L165.4768,90.6687 L164.1438,92.4388 L163.3404,94.5086 L163.5664,94.6297 L162.0423,96.3131 L161.1779,98.35 L160.3939,100.43 L159.1417,102.2591 L158.1357,104.2202 L158.1639,104.2345 L157.1227,106.1769 L156.2097,108.1845 L155.2348,110.1607 L154.378,112.197 L153.1365,114.0374 L153.416,114.173 L152.4608,116.1502 L151.3254,118.04 L150.4538,120.0578 L149.5946,122.0817 L148.3435,123.9153 L148.0406,123.7749 L147.7113,126.0262 L146.3846,127.8152 L145.8162,129.9556 L144.4668,131.734 L143.7575,133.8092 L143.7286,133.7963 L143.1957,135.9214 L141.9856,137.746 L141.1751,139.7479 L140.3982,141.7647 L139.3792,143.6741 L139.557,143.7483 L137.7514,147.566 L136.2496,151.5105 L134.2563,155.2498 L132.9962,159.2953 L131.2485,163.1371 L131.4852,163.2289 L129.9822,166.9732 L128.5966,170.763 L126.6652,174.3413 L125.1339,178.0747 L123.9572,181.9454 L123.6867,181.8475 L122.6423,185.495 L121.2931,189.0322 L120.3861,192.7295 L118.7242,196.1534 L117.5109,199.7398 L117.3606,199.6886 L116.4919,203.0581 L114.9806,206.2087 L113.9262,209.515 L113.319,212.9737 L111.9156,216.1611 L112.1075,216.223 L111.2914,219.2033 L109.8782,221.9909 L109.2129,225.0198 L108.3847,227.9962 L107.1768,230.85 " fill="none" style="stroke:#333333;stroke-width:3.125;stroke-dasharray:7.0,7.0;"/><polygon fill="#333333" points="173.8542,76.9893,173.892,77.0517,172.0255,77.9311,170.3811,79.1762,168.6643,80.3022,166.7098,81.0366,165.0843,82.313,165.0795,82.2865,166.2179,81.9582,167.3803,81.7637,168.5595,81.6623,169.6809,81.2402,170.8834,81.2673,171.0725,81.3014,170.8771,82.3883,171.2341,83.5747,171.6584,84.7733,171.6906,85.9013,171.9291,87.0663,171.9524,87.0708,172.3032,85.0489,172.76,83.0472,173.1657,81.0357,173.6689,79.0429,173.8542,76.9893" style="stroke:#333333;stroke-width:3.125;"/><polygon fill="#333333" points="105.3021,236.8123,105.3568,236.8605,106.5516,235.1784,108.0671,233.7792,109.4782,232.2879,110.5458,230.4936,112.0889,229.1187,112.0764,229.0948,110.9755,229.5324,109.9375,230.0907,108.9432,230.7327,107.7982,231.0859,106.8643,231.8437,107.0348,231.9326,106.1253,230.6976,105.7134,229.7222,105.3623,228.7783,104.6579,227.6503,104.1393,226.6191,104.1628,226.6218,104.3608,228.6565,104.666,230.7034,104.9195,232.7444,105.2716,234.7967,105.3021,236.8123" style="stroke:#333333;stroke-width:3.125;"/></g><!--link O to LLM--><g id="link_O_LLM"><path d="M150.4271,266.1977 L150.4271,266.295 L156.4604,266.0059 L162.4938,266.2872 L168.5271,266.3827 L174.5604,265.8674 L180.5938,266.1977 " fill="none" style="stroke:#333333;stroke-width:3.125;"/><polygon fill="#333333" points="186.8438,266.1977,186.8734,266.2644,184.9103,265.2329,183.121,264.5923,181.2751,263.8245,179.2431,262.638,177.4688,262.031,177.4497,262.0119,178.1974,262.7596,179.0413,263.6035,179.952,264.5143,180.6323,265.1946,181.6354,266.1977,181.7713,266.3336,180.6473,266.8763,179.9202,267.8158,179.2415,268.8037,178.281,269.51,177.4688,270.3643,177.4784,270.386,179.3392,269.5209,181.2439,268.7543,183.1275,267.9402,185.0513,267.2169,186.8438,266.1977" style="stroke:#333333;stroke-width:3.125;"/></g><!--link SB to DB--><g id="link_SB_DB"><path d="M263.7083,60.7706 L263.7558,60.8556 L267.1773,62.5927 L270.877,64.8279 L274.4861,66.9009 L277.7973,68.4406 L281.5208,70.7185 L281.4955,70.693 L284.2441,73.4243 L287.1207,76.2843 L290.0861,79.2336 L292.7452,81.8749 L295.8333,84.9477 L296.071,85.0436 L296.9169,88.1942 L298.4567,91.6248 L300.0811,95.0896 L301.213,98.3556 L302.6039,101.7262 L302.635,101.7321 L303.0211,104.001 L303.5485,106.2967 L304.0077,108.5795 L304.597,110.8869 L304.7623,113.114 L305.071,113.1488 L305.3657,115.7288 L305.4613,118.2863 L305.8484,120.8767 L306.2491,123.4687 L306.217,126.0118 L305.8837,125.9919 L306.6979,128.8387 L306.4147,131.62 L306.9658,134.4511 L306.6577,137.231 L307.0538,140.0528 L307.0221,140.0521 L307.458,143.0233 L307.1531,145.9793 L307.2854,148.9442 L307.4543,151.9099 L307.3585,154.8702 L307.5512,154.8703 L307.3574,155.6267 L307.4927,156.3833 L307.0954,157.1396 L307.4927,157.8964 L307.3616,158.6528 L307.6154,158.654 L307.5657,159.0336 L307.642,159.4138 L307.1329,159.7913 L307.0529,160.1708 L307.3531,160.552 L307.0655,160.5497 L307.3344,159.492 L307.2792,158.4318 L307.6941,157.3754 L307.3063,156.3125 L307.3956,155.2534 " fill="none" style="stroke:#333333;stroke-width:3.125;"/><polygon fill="#333333" points="307.3465,161.5032,307.4129,161.5334,308.0635,159.5754,309.1037,157.7942,310.017,155.9554,310.5131,153.9273,311.5867,152.1613,311.5678,152.142,310.643,152.8825,309.8136,153.7199,309.0505,154.6247,308.0589,155.2972,307.3874,156.295,307.5244,156.4299,306.4047,155.3016,305.685,154.5671,305.014,153.8807,304.0592,152.9147,303.2537,152.0957,303.2754,152.1052,304.062,153.9728,304.9476,155.8834,305.7855,157.7733,306.7144,159.7028,307.3465,161.5032" style="stroke:#333333;stroke-width:3.125;"/></g><!--link M to F--><g id="link_M_F"><path d="M407.9375,395.3643 L407.9375,395.4617 L412.8,395.1725 L417.6625,395.4538 L422.525,395.5494 L427.3875,395.0341 L432.25,395.3643 " fill="none" style="stroke:#333333;stroke-width:3.125;"/><polygon fill="#333333" points="401.6875,395.3643,401.7171,395.431,403.5041,396.0662,405.4648,397.0923,407.3689,397.9912,409.0869,398.4713,411.0625,399.531,411.0434,399.5119,410.1245,398.593,409.3017,397.7702,408.5458,397.0143,407.5594,396.0279,406.8958,395.3643,407.0318,395.5003,407.5744,394.3763,408.5139,393.6491,409.5019,392.9704,410.2081,392.01,411.0625,391.1977,411.0721,391.2193,409.183,392.0209,407.3377,392.921,405.4712,393.7736,403.6451,394.7169,401.6875,395.3643" style="stroke:#333333;stroke-width:3.125;"/><polygon fill="#333333" points="438.5,395.3643,438.5296,395.431,436.5666,394.3996,434.7773,393.759,432.9314,392.9912,430.8994,391.8047,429.125,391.1977,429.1059,391.1786,429.8536,391.9263,430.6975,392.7702,431.6083,393.6809,432.2886,394.3613,433.2917,395.3643,433.4276,395.5003,432.3036,396.0429,431.5764,396.9825,430.8977,397.9704,429.9373,398.6766,429.125,399.531,429.1346,399.5527,430.9955,398.6875,432.9002,397.921,434.7837,397.1069,436.7076,396.3835,438.5,395.3643" style="stroke:#333333;stroke-width:3.125;"/></g><!--link U to M--><g id="link_U_M"><path d="M383.8739,305.7271 L383.9692,305.7468 L383.0799,308.6235 L382.7491,311.6155 L382.2365,314.57 L381.1256,317.401 L380.8428,320.4029 L380.8074,320.3965 L380.104,323.3826 L379.5791,326.4008 L379.1783,329.4415 L378.3499,332.405 L378.1204,335.4766 L378.3727,335.5222 L377.2884,338.439 L376.9406,341.4889 L376.6826,344.5551 L375.9019,347.5268 L375.3961,350.5482 L375.427,350.5546 L374.7742,353.4792 L374.2622,356.433 L373.6823,359.3727 L373.232,362.3392 L372.3591,365.2182 " fill="none" style="stroke:#333333;stroke-width:3.125;"/><polygon fill="#333333" points="385.2708,299.6352,385.3292,299.679,383.9244,301.1902,382.8619,302.9581,381.6879,304.6424,380.1474,306.0518,379.1142,307.8418,379.0999,307.8189,380.0341,307.0903,381.0405,306.4769,382.0972,305.9437,382.9807,305.1344,384.1068,304.7118,384.2696,304.8139,384.5473,305.594,385.3006,306.6723,386.1118,307.7869,386.5855,308.69,387.2368,309.7043,387.26,309.7088,386.8327,307.6883,386.5112,305.6885,386.1387,303.6787,385.8636,301.688,385.2708,299.6352" style="stroke:#333333;stroke-width:3.125;"/><polygon fill="#333333" points="370.9583,371.3092,371.0167,371.3531,372.0757,369.5823,373.4767,368.0685,374.7664,366.471,375.6897,364.5983,377.1202,363.1066,377.1058,363.0837,376.0427,363.6064,375.0517,364.2444,374.1109,364.9626,372.9972,365.4046,372.1256,366.2334,372.2886,366.3354,371.3148,365.1184,370.8167,364.1992,370.3767,363.3163,369.5989,362.222,368.9988,361.2389,369.0221,361.2434,369.3798,363.2508,369.8435,365.2789,370.256,367.297,370.766,369.334,370.9583,371.3092" style="stroke:#333333;stroke-width:3.125;"/></g><!--SRC=[VL1XQuCm4FsUNt7JporbKEhMKfXQOQ3O8MMVKtDJCNebYQpRw7zVhD9rTEm5SiVTUo-NkpCbDWYwHfEN7nFgZAnQPBgksWDNl8667nFKcXUOLPy8zxFPLNFFyxfGrBKY84aAtDUoCiXOBgaJu6G7LRM5JsJWQVli0DUG-U1wtcRXUSl-eSUzj1RmnKwCjIGGd93o6fK3hi6ZkRJ1OZHDfUGDlnYcu8OF_VdjrmkiPny4DtpFjVNUaZQ5Gfszn6TjQ8Vnvy5Yuu-A7cya1IfmTjhU0Wslf3wpTrUaqmqz8X83B_gNbo0V_P8RtZZmi8WuJkmM8ejWllnPnb_Vj3gxrzLqkeQKfJ1P3-g-E17qtjf2wBC4LZQ9ph6psOuD-0O0]--></g></svg>