<svg xmlns="http://www.w3.org/2000/svg" xmlns:xlink="http://www.w3.org/1999/xlink" contentStyleType="text/css" height="911.4583px" preserveAspectRatio="none" style="width:829px;height:911px;background:#FFFFFF;" version="1.1" viewBox="0 0 829 911" width="829.1667px" zoomAndPan="magnify"><defs/><g><path d="M37.5,101.4001 L37.7919,101.4001 L36.9246,111.8399 L37.7685,122.2796 L38.0551,132.7193 L36.5092,143.1591 L37.3921,153.5988 L36.9076,164.0385 L36.9674,174.4783 L37.4053,184.918 L36.5398,195.3577 L38.2689,205.7975 L36.6246,216.2372 L37.2253,226.6769 L38.0999,237.1167 L37.3809,247.5564 L37.5948,257.9961 L37.4556,268.4359 L37.748,278.8756 L37.8321,289.3153 L38.3135,299.7551 L38.432,310.1948 L38.4434,320.6345 L37.8536,331.0743 L38.1439,341.514 L38.4753,351.9537 L36.4984,362.3935 L38.4424,372.8332 L37.0882,383.2729 L38.2414,393.7127 L36.8125,404.1524 L37.4049,414.5921 L38.53,425.0319 L37.4323,435.4716 L37.6463,445.9113 L37.9703,456.3511 L38.0781,466.7908 L37.4946,477.2305 L37.8989,487.6703 L36.705,498.11 L37.895,508.5497 L38.2614,518.9895 L38.1174,529.4292 L38.3514,539.8689 L36.8291,550.3087 L36.5942,560.7484 L36.6369,571.1881 L37.4182,581.6279 L37.227,592.0676 L38.4464,602.5073 L37.2574,612.9471 L37.0235,623.3868 L37.817,633.8265 L36.5738,644.2663 L36.779,654.706 L38.4013,665.1457 L38.1051,675.5855 L38.5201,686.0252 L37.0531,696.465 L37.9433,706.9047 L38.32,717.3444 L36.8439,727.7842 L37.3669,738.2239 L37.675,748.6636 L38.4052,759.1034 L37.4942,769.5431 L38.1425,779.9828 L36.7309,790.4226 L36.5594,800.8623 L37.5,811.302 " fill="none" style="stroke:#555555;stroke-width:1.0416666666666667;stroke-dasharray:5.0,5.0;"/><path d="M198.8196,101.4001 L199.1115,101.4001 L198.2442,111.8399 L199.0881,122.2796 L199.3747,132.7193 L197.8288,143.1591 L198.7117,153.5988 L198.2273,164.0385 L198.287,174.4783 L198.7249,184.918 L197.8594,195.3577 L199.5886,205.7975 L197.9442,216.2372 L198.5449,226.6769 L199.4195,237.1167 L198.7005,247.5564 L198.9144,257.9961 L198.7752,268.4359 L199.0676,278.8756 L199.1517,289.3153 L199.6331,299.7551 L199.7516,310.1948 L199.763,320.6345 L199.1733,331.0743 L199.4635,341.514 L199.7949,351.9537 L197.818,362.3935 L199.762,372.8332 L198.4078,383.2729 L199.561,393.7127 L198.1321,404.1524 L198.7245,414.5921 L199.8496,425.0319 L198.7519,435.4716 L198.9659,445.9113 L199.2899,456.3511 L199.3977,466.7908 L198.8142,477.2305 L199.2185,487.6703 L198.0246,498.11 L199.2146,508.5497 L199.581,518.9895 L199.437,529.4292 L199.671,539.8689 L198.1487,550.3087 L197.9138,560.7484 L197.9565,571.1881 L198.7378,581.6279 L198.5466,592.0676 L199.766,602.5073 L198.577,612.9471 L198.3431,623.3868 L199.1366,633.8265 L197.8934,644.2663 L198.0986,654.706 L199.7209,665.1457 L199.4247,675.5855 L199.8397,686.0252 L198.3727,696.465 L199.2629,706.9047 L199.6396,717.3444 L198.1635,727.7842 L198.6865,738.2239 L198.9946,748.6636 L199.7248,759.1034 L198.8138,769.5431 L199.4621,779.9828 L198.0505,790.4226 L197.879,800.8623 L198.8196,811.302 " fill="none" style="stroke:#555555;stroke-width:1.0416666666666667;stroke-dasharray:5.0,5.0;"/><path d="M374.3499,101.4001 L374.6418,101.4001 L373.7745,111.8399 L374.6184,122.2796 L374.905,132.7193 L373.3591,143.1591 L374.242,153.5988 L373.7576,164.0385 L373.8173,174.4783 L374.2553,184.918 L373.3897,195.3577 L375.1189,205.7975 L373.4745,216.2372 L374.0752,226.6769 L374.9498,237.1167 L374.2308,247.5564 L374.4447,257.9961 L374.3055,268.4359 L374.5979,278.8756 L374.682,289.3153 L375.1634,299.7551 L375.2819,310.1948 L375.2933,320.6345 L374.7036,331.0743 L374.9938,341.514 L375.3252,351.9537 L373.3483,362.3935 L375.2923,372.8332 L373.9381,383.2729 L375.0913,393.7127 L373.6624,404.1524 L374.2548,414.5921 L375.3799,425.0319 L374.2822,435.4716 L374.4962,445.9113 L374.8202,456.3511 L374.928,466.7908 L374.3445,477.2305 L374.7488,487.6703 L373.5549,498.11 L374.7449,508.5497 L375.1113,518.9895 L374.9673,529.4292 L375.2013,539.8689 L373.679,550.3087 L373.4441,560.7484 L373.4869,571.1881 L374.2681,581.6279 L374.077,592.0676 L375.2963,602.5073 L374.1073,612.9471 L373.8734,623.3868 L374.667,633.8265 L373.4237,644.2663 L373.6289,654.706 L375.2512,665.1457 L374.955,675.5855 L375.37,686.0252 L373.903,696.465 L374.7932,706.9047 L375.1699,717.3444 L373.6938,727.7842 L374.2168,738.2239 L374.5249,748.6636 L375.2551,759.1034 L374.3441,769.5431 L374.9924,779.9828 L373.5808,790.4226 L373.4093,800.8623 L374.3499,811.302 " fill="none" style="stroke:#555555;stroke-width:1.0416666666666667;stroke-dasharray:5.0,5.0;"/><path d="M478.5166,101.4001 L478.8085,101.4001 L477.9411,111.8399 L478.785,122.2796 L479.0717,132.7193 L477.5258,143.1591 L478.4086,153.5988 L477.9242,164.0385 L477.9839,174.4783 L478.4219,184.918 L477.5563,195.3577 L479.2855,205.7975 L477.6412,216.2372 L478.2419,226.6769 L479.1165,237.1167 L478.3974,247.5564 L478.6114,257.9961 L478.4722,268.4359 L478.7645,278.8756 L478.8487,289.3153 L479.33,299.7551 L479.4486,310.1948 L479.46,320.6345 L478.8702,331.0743 L479.1604,341.514 L479.4919,351.9537 L477.5149,362.3935 L479.459,372.8332 L478.1048,383.2729 L479.258,393.7127 L477.829,404.1524 L478.4214,414.5921 L479.5466,425.0319 L478.4489,435.4716 L478.6628,445.9113 L478.9869,456.3511 L479.0947,466.7908 L478.5112,477.2305 L478.9155,487.6703 L477.7216,498.11 L478.9116,508.5497 L479.278,518.9895 L479.134,529.4292 L479.368,539.8689 L477.8456,550.3087 L477.6108,560.7484 L477.6535,571.1881 L478.4348,581.6279 L478.2436,592.0676 L479.463,602.5073 L478.274,612.9471 L478.0401,623.3868 L478.8336,633.8265 L477.5904,644.2663 L477.7956,654.706 L479.4179,665.1457 L479.1217,675.5855 L479.5367,686.0252 L478.0696,696.465 L478.9599,706.9047 L479.3366,717.3444 L477.8605,727.7842 L478.3834,738.2239 L478.6916,748.6636 L479.4218,759.1034 L478.5108,769.5431 L479.159,779.9828 L477.7474,790.4226 L477.5759,800.8623 L478.5166,811.302 " fill="none" style="stroke:#555555;stroke-width:1.0416666666666667;stroke-dasharray:5.0,5.0;"/><path d="M637.6029,101.4001 L637.8949,101.4001 L637.0275,111.8399 L637.8714,122.2796 L638.1581,132.7193 L636.6121,143.1591 L637.495,153.5988 L637.0106,164.0385 L637.0703,174.4783 L637.5083,184.918 L636.6427,195.3577 L638.3719,205.7975 L636.7276,216.2372 L637.3283,226.6769 L638.2029,237.1167 L637.4838,247.5564 L637.6977,257.9961 L637.5586,268.4359 L637.8509,278.8756 L637.9351,289.3153 L638.4164,299.7551 L638.535,310.1948 L638.5464,320.6345 L637.9566,331.0743 L638.2468,341.514 L638.5783,351.9537 L636.6013,362.3935 L638.5453,372.8332 L637.1911,383.2729 L638.3444,393.7127 L636.9154,404.1524 L637.5078,414.5921 L638.633,425.0319 L637.5353,435.4716 L637.7492,445.9113 L638.0733,456.3511 L638.181,466.7908 L637.5975,477.2305 L638.0019,487.6703 L636.8079,498.11 L637.9979,508.5497 L638.3643,518.9895 L638.2204,529.4292 L638.4544,539.8689 L636.932,550.3087 L636.6971,560.7484 L636.7399,571.1881 L637.5212,581.6279 L637.33,592.0676 L638.5494,602.5073 L637.3603,612.9471 L637.1265,623.3868 L637.92,633.8265 L636.6768,644.2663 L636.8819,654.706 L638.5043,665.1457 L638.208,675.5855 L638.6231,686.0252 L637.156,696.465 L638.0463,706.9047 L638.423,717.3444 L636.9468,727.7842 L637.4698,738.2239 L637.7779,748.6636 L638.5082,759.1034 L637.5971,769.5431 L638.2454,779.9828 L636.8338,790.4226 L636.6623,800.8623 L637.6029,811.302 " fill="none" style="stroke:#555555;stroke-width:1.0416666666666667;stroke-dasharray:5.0,5.0;"/><text fill="#2E2E2E" font-family="Segoe Print" font-size="12.5" lengthAdjust="spacing" textLength="27.3377" x="20.8333" y="92.5293">User</text><polygon fill="none" points="46.0066,21.8187,44.785,23.4877,43.3402,25.9324,41.2739,27.5798,39.1025,28.4808,37.3711,28.559,35.1459,27.4322,33.0463,26.6962,31.4526,25.2017,30.6166,23.4907,30.1209,22.1284,29.6352,20.349,28.8469,18.8178,29.4527,17.3227,29.9834,15.685,31.9751,14.3898,33.3764,12.7092,35.1108,12.1511,37.1727,11.6705,39.8169,11.956,41.2651,12.639,42.9489,12.9486,44.9963,15.0462,45.71,17.2606,46.02,18.7715,45.6688,21.2613" style="stroke:#333333;stroke-width:1.0416666666666667;"/><path d="M37.6272,28.125 L37.8218,28.125 L37.2436,33.75 L37.8062,39.375 L37.9973,45 L36.9666,50.625 L37.6272,56.25 M24.0855,36.4583 L24.0855,36.3864 L29.5022,36.0634 L34.9189,36.1032 L40.3355,36.3952 L45.7522,35.8182 L51.1689,36.4583 M37.6272,56.25 L38.0146,56.5857 L34.4778,58.9928 L32.0721,62.3801 L29.8044,65.8869 L26.7338,68.698 L24.0855,71.875 M37.6272,56.25 L37.6749,56.2914 L40.3132,59.3556 L43.1688,62.6083 L45.9195,65.77 L48.8703,69.1052 L51.1689,71.875 " fill="none" style="stroke:#333333;stroke-width:1.0416666666666667;"/><text fill="#2E2E2E" font-family="Segoe Print" font-size="12.5" lengthAdjust="spacing" textLength="27.3377" x="20.8333" y="828.8313">User</text><polygon fill="none" points="46.0066,849.1041,44.785,850.7732,43.3402,853.2178,41.2739,854.8653,39.1025,855.7662,37.3711,855.8444,35.1459,854.7177,33.0463,853.9816,31.4526,852.4871,30.6166,850.7762,30.1209,849.4139,29.6352,847.6345,28.8469,846.1033,29.4527,844.6082,29.9834,842.9705,31.9751,841.6752,33.3764,839.9946,35.1108,839.4366,37.1727,838.956,39.8169,839.2415,41.2651,839.9245,42.9489,840.2341,44.9963,842.3317,45.71,844.546,46.02,846.057,45.6688,848.5467" style="stroke:#333333;stroke-width:1.0416666666666667;"/><path d="M37.6272,855.4105 L37.8218,855.4105 L37.2436,861.0355 L37.8062,866.6605 L37.9973,872.2855 L36.9666,877.9105 L37.6272,883.5355 M24.0855,863.7438 L24.0855,863.6719 L29.5022,863.3489 L34.9189,863.3887 L40.3355,863.6807 L45.7522,863.1037 L51.1689,863.7438 M37.6272,883.5355 L38.0146,883.8712 L34.4778,886.2783 L32.0721,889.6655 L29.8044,893.1724 L26.7338,895.9835 L24.0855,899.1605 M37.6272,883.5355 L37.6749,883.5769 L40.3132,886.6411 L43.1688,889.8937 L45.9195,893.0555 L48.8703,896.3906 L51.1689,899.1605 " fill="none" style="stroke:#333333;stroke-width:1.0416666666666667;"/><polygon fill="#88E788" points="171.7363,58.3333,171.7363,58.5523,182.7397,57.9017,193.743,58.5347,204.7464,58.7497,215.7498,57.5902,226.7532,58.3333,226.7429,58.3084,227.2858,58.4406,227.8808,58.6985,228.5119,59.0437,229.0184,59.0879,229.6995,59.5537,229.8771,59.6273,229.7414,60.0592,230.1242,60.706,230.5703,61.3789,230.6483,61.8993,230.9199,62.5,230.9436,62.5,230.9088,69.2384,230.9819,75.9767,231.0029,82.7151,231.1232,89.4534,230.9199,96.1918,231.1351,96.281,230.8937,96.8713,230.5134,97.4041,230.3364,98.0212,230.1688,98.6421,229.6995,99.1381,229.6037,98.9067,229.2004,99.5998,228.4816,99.5311,228.0026,100.0415,227.2767,99.9556,226.7532,100.3585,226.7532,100.2871,215.7498,101.131,204.7464,100.3077,193.743,100.4681,182.7397,100.7112,171.7363,100.3585,171.7916,100.492,171.1465,100.1131,170.5959,99.9624,169.8924,99.4426,169.417,99.4734,168.79,99.1381,168.9659,99.2109,168.6885,98.6079,168.4985,98.041,167.9028,97.3061,167.6045,96.6944,167.5696,96.1918,167.3538,96.1918,167.5492,89.4534,167.5014,82.7151,167.8062,75.9767,167.509,69.2384,167.5696,62.5,167.4596,62.4544,167.8869,61.9411,167.8438,61.2329,168.1353,60.6633,168.7541,60.2292,168.79,59.5537,168.8479,59.6935,169.4768,59.5453,169.9257,58.9623,170.6002,58.9239,171.2255,58.7668,171.7363,58.3333" style="stroke:#333333;stroke-width:1.0416666666666667;"/><text fill="#2E2E2E" font-family="Segoe Print" font-size="12.5" lengthAdjust="spacing" textLength="38.3503" x="180.0696" y="84.1959">Spring</text><polygon fill="#88E788" points="171.7363,810.2604,171.7363,810.4793,182.7397,809.8288,193.743,810.4617,204.7464,810.6767,215.7498,809.5172,226.7532,810.2604,226.7429,810.2354,227.2858,810.3676,227.8808,810.6255,228.5119,810.9707,229.0184,811.0149,229.6995,811.4807,229.8771,811.5543,229.7414,811.9863,230.1242,812.633,230.5703,813.3059,230.6483,813.8264,230.9199,814.427,230.9436,814.427,230.9088,821.1654,230.9819,827.9037,231.0029,834.6421,231.1232,841.3805,230.9199,848.1188,231.1351,848.208,230.8937,848.7983,230.5134,849.3312,230.3364,849.9482,230.1688,850.5691,229.6995,851.0651,229.6037,850.8337,229.2004,851.5268,228.4816,851.4581,228.0026,851.9686,227.2767,851.8826,226.7532,852.2855,226.7532,852.2141,215.7498,853.058,204.7464,852.2347,193.743,852.3952,182.7397,852.6382,171.7363,852.2855,171.7916,852.419,171.1465,852.0401,170.5959,851.8895,169.8924,851.3696,169.417,851.4004,168.79,851.0651,168.9659,851.1379,168.6885,850.5349,168.4985,849.968,167.9028,849.2331,167.6045,848.6214,167.5696,848.1188,167.3538,848.1188,167.5492,841.3805,167.5014,834.6421,167.8062,827.9037,167.509,821.1654,167.5696,814.427,167.4596,814.3814,167.8869,813.8681,167.8438,813.1599,168.1353,812.5903,168.7541,812.1562,168.79,811.4807,168.8479,811.6205,169.4768,811.4723,169.9257,810.8894,170.6002,810.8509,171.2255,810.6938,171.7363,810.2604" style="stroke:#333333;stroke-width:1.0416666666666667;"/><text fill="#2E2E2E" font-family="Segoe Print" font-size="12.5" lengthAdjust="spacing" textLength="38.3503" x="180.0696" y="836.123">Spring</text><text fill="#2E2E2E" font-family="Segoe Print" font-size="12.5" lengthAdjust="spacing" textLength="17.2501" x="362.5999" y="92.5293">DB</text><path d="M355.5999,36.4583 L355.5999,36.4583 L355.6677,36.5281 L357.3412,34.4979 L359.4123,32.8767 L361.3539,31.1223 L362.8697,28.9299 L364.9749,27.3438 L364.97,27.3081 L366.8227,26.8878 L368.7005,26.6471 L370.5956,26.5312 L372.4309,25.985 L374.3499,26.0417 L374.3499,26.0417 L374.3852,26.2955 L376.1848,26.0131 L378.0873,26.4718 L380.0024,27.021 L381.8444,27.044 L383.7249,27.3438 L383.7469,27.3664 L385.5896,29.1561 L387.5325,31.0488 L389.4271,32.8919 L391.4139,34.8298 L393.0999,36.4583 L393.7213,36.4583 L393.7289,41.875 L393.3357,47.2917 L393.5292,52.7083 L393.7501,58.125 L393.0999,63.5417 L393.0999,63.5417 L392.8672,63.3023 L391.4439,65.5898 L389.2542,67.0891 L387.6472,69.1876 L385.4402,70.669 L383.7249,72.6563 L383.7205,72.6248 L381.8971,73.2567 L379.9718,73.1547 L378.1066,73.4858 L376.2465,73.8532 L374.3499,73.9583 L374.3499,73.9583 L374.3764,74.1492 L372.4747,73.6961 L370.6182,73.5692 L368.6885,72.9146 L366.868,73.0471 L364.9749,72.6563 L365.1518,72.8382 L363.2434,70.9809 L361.4227,69.2139 L359.194,67.0271 L357.2644,65.1481 L355.5999,63.5417 L355.0245,63.5417 L355.5454,58.125 L355.4179,52.7083 L356.2308,47.2917 L355.4382,41.875 L355.5999,36.4583 " fill="#B5C7EB" style="stroke:#333333;stroke-width:1.5625;"/><path d="M355.5999,36.4583 L355.5999,36.4583 L355.6677,36.5281 L357.3412,38.1437 L359.4123,40.1683 L361.3539,42.0598 L362.8697,43.5132 L364.9749,45.5729 L364.97,45.5373 L366.8227,45.6378 L368.7005,45.9179 L370.5956,46.3229 L372.4309,46.2975 L374.3499,46.875 L374.3499,46.875 L374.3852,47.1289 L376.1848,46.3256 L378.0873,46.2635 L380.0024,46.2918 L381.8444,45.794 L383.7249,45.5729 L383.7469,45.5956 L385.5896,43.7394 L387.5325,41.9863 L389.4271,40.1835 L391.4139,38.4757 L393.0999,36.4583 " fill="none" style="stroke:#333333;stroke-width:1.5625;"/><text fill="#2E2E2E" font-family="Segoe Print" font-size="12.5" lengthAdjust="spacing" textLength="17.2501" x="362.5999" y="828.8313">DB</text><path d="M355.5999,848.1188 L355.5999,848.1188 L355.6677,848.1886 L357.3412,846.1584 L359.4123,844.5371 L361.3539,842.7827 L362.8697,840.5903 L364.9749,839.0042 L364.97,838.9686 L366.8227,838.5482 L368.7005,838.3075 L370.5956,838.1917 L372.4309,837.6455 L374.3499,837.7021 L374.3499,837.7021 L374.3852,837.956 L376.1848,837.6735 L378.0873,838.1323 L380.0024,838.6815 L381.8444,838.7045 L383.7249,839.0042 L383.7469,839.0269 L385.5896,840.8165 L387.5325,842.7093 L389.4271,844.5524 L391.4139,846.4903 L393.0999,848.1188 L393.7213,848.1188 L393.7289,853.5355 L393.3357,858.9521 L393.5292,864.3688 L393.7501,869.7855 L393.0999,875.2021 L393.0999,875.2021 L392.8672,874.9628 L391.4439,877.2503 L389.2542,878.7496 L387.6472,880.8481 L385.4402,882.3295 L383.7249,884.3167 L383.7205,884.2853 L381.8971,884.9172 L379.9718,884.8152 L378.1066,885.1463 L376.2465,885.5137 L374.3499,885.6188 L374.3499,885.6188 L374.3764,885.8097 L372.4747,885.3566 L370.6182,885.2297 L368.6885,884.5751 L366.868,884.7076 L364.9749,884.3167 L365.1518,884.4987 L363.2434,882.6414 L361.4227,880.8744 L359.194,878.6876 L357.2644,876.8086 L355.5999,875.2021 L355.0245,875.2021 L355.5454,869.7855 L355.4179,864.3688 L356.2308,858.9521 L355.4382,853.5355 L355.5999,848.1188 " fill="#B5C7EB" style="stroke:#333333;stroke-width:1.5625;"/><path d="M355.5999,848.1188 L355.5999,848.1188 L355.6677,848.1886 L357.3412,849.8042 L359.4123,851.8288 L361.3539,853.7202 L362.8697,855.1737 L364.9749,857.2334 L364.97,857.1978 L366.8227,857.2982 L368.7005,857.5784 L370.5956,857.9834 L372.4309,857.958 L374.3499,858.5355 L374.3499,858.5355 L374.3852,858.7894 L376.1848,857.986 L378.0873,857.924 L380.0024,857.9523 L381.8444,857.4545 L383.7249,857.2334 L383.7469,857.256 L385.5896,855.3999 L387.5325,853.6468 L389.4271,851.844 L391.4139,850.1361 L393.0999,848.1188 " fill="none" style="stroke:#333333;stroke-width:1.5625;"/><polygon fill="#D9D9D9" points="449.3499,58.3333,449.3499,58.5523,459.1152,57.9017,468.8806,58.5347,478.6459,58.7497,488.4112,57.5902,498.1765,58.2524,507.9419,58.3333,507.8852,58.1965,508.4802,58.4544,509.1113,58.7996,509.6178,58.8438,510.3725,59.4872,510.8881,59.5537,510.686,59.47,511.0688,60.1167,511.5149,60.7896,511.5929,61.3101,511.8863,61.9198,512.1085,62.5,512.0974,62.5,512.1705,69.2384,512.1916,75.9767,512.3119,82.7151,512.3415,89.4534,512.1085,96.1918,512.3264,96.282,511.9461,96.8149,511.7691,97.4319,511.6016,98.0529,510.9009,98.453,510.8881,99.1381,510.9783,99.3557,510.2595,99.287,509.7806,99.7975,509.0546,99.7115,508.522,100.0924,507.9419,100.3585,507.9419,101.131,498.1765,100.3077,488.4112,100.4681,478.6459,100.7112,468.8806,100.792,459.1152,100.3544,449.3499,100.3585,449.3881,100.4506,448.6846,99.9307,448.2092,99.9615,447.655,99.8021,447.052,99.5247,446.4036,99.1381,446.6003,99.2195,446.0046,98.4846,445.7063,97.8729,445.4721,97.2877,445.4084,96.7732,445.1832,96.1918,445.115,96.1918,445.4198,89.4534,445.1226,82.7151,445.0641,75.9767,445.2625,69.2384,445.1832,62.5,444.9693,62.4114,445.2608,61.8418,445.8796,61.4077,446.0552,60.7901,446.3952,60.2406,446.4036,59.5537,446.3609,59.4505,447.0353,59.412,447.6606,59.255,448.1086,58.6699,448.7479,58.5467,449.3499,58.3333" style="stroke:#333333;stroke-width:1.0416666666666667;"/><text fill="#2E2E2E" font-family="Segoe Print" font-size="12.5" lengthAdjust="spacing" textLength="41.9253" x="457.6832" y="84.1959">Ollama</text><polygon fill="#D9D9D9" points="449.3499,810.2604,449.3499,810.4793,459.1152,809.8288,468.8806,810.4617,478.6459,810.6767,488.4112,809.5172,498.1765,810.1794,507.9419,810.2604,507.8852,810.1235,508.4802,810.3814,509.1113,810.7266,509.6178,810.7708,510.3725,811.4143,510.8881,811.4807,510.686,811.397,511.0688,812.0437,511.5149,812.7167,511.5929,813.2371,511.8863,813.8468,512.1085,814.427,512.0974,814.427,512.1705,821.1654,512.1916,827.9037,512.3119,834.6421,512.3415,841.3805,512.1085,848.1188,512.3264,848.2091,511.9461,848.7419,511.7691,849.3589,511.6016,849.9799,510.9009,850.38,510.8881,851.0651,510.9783,851.2827,510.2595,851.2141,509.7806,851.7245,509.0546,851.6385,508.522,852.0194,507.9419,852.2855,507.9419,853.058,498.1765,852.2347,488.4112,852.3952,478.6459,852.6382,468.8806,852.7191,459.1152,852.2814,449.3499,852.2855,449.3881,852.3776,448.6846,851.8578,448.2092,851.8886,447.655,851.7291,447.052,851.4518,446.4036,851.0651,446.6003,851.1465,446.0046,850.4116,445.7063,849.7999,445.4721,849.2148,445.4084,848.7002,445.1832,848.1188,445.115,848.1188,445.4198,841.3805,445.1226,834.6421,445.0641,827.9037,445.2625,821.1654,445.1832,814.427,444.9693,814.3384,445.2608,813.7688,445.8796,813.3347,446.0552,812.7171,446.3952,812.1676,446.4036,811.4807,446.3609,811.3775,447.0353,811.3391,447.6606,811.182,448.1086,810.597,448.7479,810.4737,449.3499,810.2604" style="stroke:#333333;stroke-width:1.0416666666666667;"/><text fill="#2E2E2E" font-family="Segoe Print" font-size="12.5" lengthAdjust="spacing" textLength="41.9253" x="457.6832" y="836.123">Ollama</text><text fill="#2E2E2E" font-family="Segoe Print" font-size="12.5" lengthAdjust="spacing" textLength="24.4377" x="623.0196" y="92.5293">LLM</text><polygon fill="#FFFFC5" points="650.9325,60.3322,649.1002,62.8357,646.933,66.5027,643.8335,68.9739,640.5764,70.3253,637.9794,70.4426,634.6415,68.7525,631.492,67.6484,629.1016,65.4066,627.8476,62.8403,627.104,60.7968,626.3755,58.1277,625.193,55.8308,626.1017,53.5883,626.8978,51.1317,629.8854,49.1888,631.9873,46.6679,634.5889,45.8308,637.6818,45.1099,641.648,45.5382,643.8204,46.5627,646.3461,47.0271,649.4171,50.1735,650.4876,53.495,650.9527,55.7614,650.4259,59.4961" style="stroke:#333333;stroke-width:1.0416666666666667;"/><path d="M625.8634,71.875 L625.8634,71.9723 L630.8634,71.6832 L635.8634,71.9645 L640.8634,72.06 L645.8634,71.5447 L650.8634,71.875 " fill="#FFFFC5" style="stroke:#333333;stroke-width:1.0416666666666667;"/><text fill="#2E2E2E" font-family="Segoe Print" font-size="12.5" lengthAdjust="spacing" textLength="24.4377" x="623.0196" y="828.8313">LLM</text><polygon fill="#FFFFC5" points="650.9325,857.4093,649.1002,859.9129,646.933,863.5798,643.8335,866.0511,640.5764,867.4025,637.9794,867.5197,634.6415,865.8297,631.492,864.7255,629.1016,862.4838,627.8476,859.9174,627.104,857.874,626.3755,855.2048,625.193,852.908,626.1017,850.6654,626.8978,848.2088,629.8854,846.2659,631.9873,843.7451,634.5889,842.9079,637.6818,842.187,641.648,842.6154,643.8204,843.6399,646.3461,844.1043,649.4171,847.2506,650.4876,850.5722,650.9527,852.8385,650.4259,856.5732" style="stroke:#333333;stroke-width:1.0416666666666667;"/><path d="M625.8634,868.9521 L625.8634,869.0494 L630.8634,868.7603 L635.8634,869.0416 L640.8634,869.1372 L645.8634,868.6219 L650.8634,868.9521 " fill="#FFFFC5" style="stroke:#333333;stroke-width:1.0416666666666667;"/><polygon fill="#333333" points="186.7447,141.3419,186.7718,141.4097,188.7746,142.0417,190.9363,143.0709,193.0463,143.9708,194.9861,144.4452,197.1614,145.5086,197.1514,145.4835,195.0231,146.2044,192.9453,147.0516,190.9026,147.9866,188.7389,148.619,186.7447,149.6752,186.8807,149.8112,187.4233,148.6872,188.3628,147.96,189.3508,147.2813,190.057,146.3208,190.9114,145.5086,190.9282,145.5253,190.0702,144.6674,189.2886,143.8857,188.4701,143.0673,187.7219,142.319,186.7447,141.3419" style="stroke:#333333;stroke-width:1.0416666666666667;"/><path d="M37.6272,145.5086 L37.6272,145.8005 L47.985,144.9331 L58.3429,145.777 L68.7007,146.0637 L79.0585,144.5177 L89.4164,145.4006 L99.7742,144.9162 L110.132,144.9759 L120.4899,145.4139 L130.8477,144.5483 L141.2056,146.2775 L151.5634,144.6332 L161.9212,145.2339 L172.2791,146.1085 L182.6369,145.3894 L192.9947,145.5086 " fill="none" style="stroke:#333333;stroke-width:3.125;stroke-dasharray:2.0,2.0;"/><text fill="#2E2E2E" font-family="Segoe Print" font-size="12.5" lengthAdjust="spacing" textLength="10.5001" x="50.1272" y="134.5544">1.</text><text fill="#2E2E2E" font-family="Segoe Print" font-size="12.5" lengthAdjust="spacing" textLength="3.25" x="60.6273" y="134.5544">&#160;</text><text fill="#2E2E2E" font-family="Segoe Print" font-size="12.5" lengthAdjust="spacing" textLength="44.6753" x="63.8773" y="134.5544">Creates</text><text fill="#2E2E2E" font-family="Segoe Print" font-size="12.5" lengthAdjust="spacing" textLength="3.25" x="108.5526" y="134.5544">&#160;</text><text fill="#2E2E2E" font-family="Segoe Print" font-size="12.5" lengthAdjust="spacing" textLength="14.7376" x="111.8026" y="134.5544">an</text><text fill="#2E2E2E" font-family="Segoe Print" font-size="12.5" lengthAdjust="spacing" textLength="3.25" x="126.5402" y="134.5544">&#160;</text><text fill="#2E2E2E" font-family="Segoe Print" font-size="12.5" lengthAdjust="spacing" textLength="46.5378" x="129.7903" y="134.5544">account</text><polygon fill="#333333" points="361.8499,183.367,361.877,183.4348,363.8798,184.0668,366.0415,185.096,368.1515,185.9959,370.0912,186.4704,372.2666,187.5337,372.2566,187.5086,370.1282,188.2295,368.0505,189.0767,366.0078,190.0117,363.8441,190.6441,361.8499,191.7004,361.9858,191.8363,362.5285,190.7123,363.468,189.9851,364.456,189.3064,365.1622,188.346,366.0166,187.5337,366.0333,187.5504,365.1754,186.6925,364.3937,185.9109,363.5753,185.0924,362.827,184.3442,361.8499,183.367" style="stroke:#333333;stroke-width:1.0416666666666667;"/><path d="M199.2447,187.5337 L199.2447,187.8256 L209.7982,186.9582 L220.3516,187.8021 L230.9051,188.0888 L241.4585,186.5429 L252.012,187.4258 L262.5654,186.9413 L273.1189,187.0011 L283.6723,187.439 L294.2258,186.5735 L304.7792,188.3026 L315.3327,186.6583 L325.8861,187.259 L336.4396,188.1336 L346.993,187.4146 L357.5465,187.6285 L368.0999,187.5337 " fill="none" style="stroke:#333333;stroke-width:3.125;"/><text fill="#2E2E2E" font-family="Segoe Print" font-size="12.5" lengthAdjust="spacing" textLength="10.5001" x="211.7447" y="176.5795">2.</text><text fill="#2E2E2E" font-family="Segoe Print" font-size="12.5" lengthAdjust="spacing" textLength="3.25" x="222.2448" y="176.5795">&#160;</text><text fill="#2E2E2E" font-family="Segoe Print" font-size="12.5" lengthAdjust="spacing" textLength="45.4754" x="225.4948" y="176.5795">Persists</text><text fill="#2E2E2E" font-family="Segoe Print" font-size="12.5" lengthAdjust="spacing" textLength="3.25" x="270.9702" y="176.5795">&#160;</text><text fill="#2E2E2E" font-family="Segoe Print" font-size="12.5" lengthAdjust="spacing" textLength="25.9252" x="274.2202" y="176.5795">user</text><text fill="#2E2E2E" font-family="Segoe Print" font-size="12.5" lengthAdjust="spacing" textLength="3.25" x="300.1454" y="176.5795">&#160;</text><text fill="#2E2E2E" font-family="Segoe Print" font-size="12.5" lengthAdjust="spacing" textLength="26.2252" x="303.3954" y="176.5795">data</text><polygon fill="#333333" points="49.0855,225.3921,49.1126,225.4599,46.9488,226.0919,44.9438,227.1211,42.8871,228.021,40.6602,228.4955,38.6689,229.5588,38.6588,229.5338,40.6972,230.2546,42.7861,231.1018,44.9101,232.0368,46.913,232.6693,49.0855,233.7255,49.2215,233.8614,48.0974,232.7374,47.3703,232.0103,46.6916,231.3315,45.7311,230.3711,44.9189,229.5588,44.9356,229.5756,45.7443,228.7176,46.6294,227.936,47.4776,227.1175,48.396,226.3693,49.0855,225.3921" style="stroke:#333333;stroke-width:1.0416666666666667;"/><path d="M42.8355,229.5588 L42.8355,229.8507 L53.1934,228.9834 L63.5512,229.8273 L73.909,230.1139 L84.2669,228.568 L94.6247,229.4509 L104.9825,228.9665 L115.3404,229.0262 L125.6982,229.4641 L136.0561,228.5986 L146.4139,230.3278 L156.7717,228.6834 L167.1296,229.2841 L177.4874,230.1587 L187.8452,229.4397 L198.2031,229.5588 " fill="none" style="stroke:#333333;stroke-width:3.125;"/><text fill="#2E2E2E" font-family="Segoe Print" font-size="12.5" lengthAdjust="spacing" textLength="10.5001" x="60.5439" y="218.6046">3.</text><text fill="#2E2E2E" font-family="Segoe Print" font-size="12.5" lengthAdjust="spacing" textLength="3.25" x="71.0439" y="218.6046">&#160;</text><text fill="#2E2E2E" font-family="monospace" font-size="12.5" lengthAdjust="spacing" textLength="22.5769" x="74.2939" y="219.3191">201</text><text fill="#2E2E2E" font-family="monospace" font-size="12.5" lengthAdjust="spacing" textLength="7.5256" x="96.8709" y="219.3191">&#160;</text><text fill="#2E2E2E" font-family="monospace" font-size="12.5" lengthAdjust="spacing" textLength="52.6794" x="104.3965" y="219.3191">CREATED</text><polygon fill="#333333" points="186.7447,267.4173,186.7718,267.485,188.7746,268.117,190.9363,269.1462,193.0463,270.0461,194.9861,270.5206,197.1614,271.5839,197.1514,271.5589,195.0231,272.2798,192.9453,273.127,190.9026,274.062,188.7389,274.6944,186.7447,275.7506,186.8807,275.8865,187.4233,274.7625,188.3628,274.0354,189.3508,273.3566,190.057,272.3962,190.9114,271.5839,190.9282,271.6007,190.0702,270.7428,189.2886,269.9611,188.4701,269.1426,187.7219,268.3944,186.7447,267.4173" style="stroke:#333333;stroke-width:1.0416666666666667;"/><path d="M37.6272,271.5839 L37.6272,271.8758 L47.985,271.0085 L58.3429,271.8524 L68.7007,272.139 L79.0585,270.5931 L89.4164,271.476 L99.7742,270.9916 L110.132,271.0513 L120.4899,271.4893 L130.8477,270.6237 L141.2056,272.3529 L151.5634,270.7085 L161.9212,271.3093 L172.2791,272.1839 L182.6369,271.4648 L192.9947,271.5839 " fill="none" style="stroke:#333333;stroke-width:3.125;stroke-dasharray:2.0,2.0;"/><text fill="#2E2E2E" font-family="Segoe Print" font-size="12.5" lengthAdjust="spacing" textLength="10.5001" x="50.1272" y="260.6297">4.</text><text fill="#2E2E2E" font-family="Segoe Print" font-size="12.5" lengthAdjust="spacing" textLength="3.25" x="60.6273" y="260.6297">&#160;</text><text fill="#2E2E2E" font-family="Segoe Print" font-size="12.5" lengthAdjust="spacing" textLength="37.3878" x="63.8773" y="260.6297">Enters</text><text fill="#2E2E2E" font-family="Segoe Print" font-size="12.5" lengthAdjust="spacing" textLength="3.25" x="101.265" y="260.6297">&#160;</text><text fill="#2E2E2E" font-family="Segoe Print" font-size="12.5" lengthAdjust="spacing" textLength="7.0125" x="104.5151" y="260.6297">a</text><text fill="#2E2E2E" font-family="Segoe Print" font-size="12.5" lengthAdjust="spacing" textLength="3.25" x="111.5276" y="260.6297">&#160;</text><text fill="#2E2E2E" font-family="Segoe Print" font-size="12.5" lengthAdjust="spacing" textLength="28.9752" x="114.7776" y="260.6297">meal</text><polygon fill="#333333" points="361.8499,309.4424,361.877,309.5101,363.8798,310.1421,366.0415,311.1714,368.1515,312.0712,370.0912,312.5457,372.2666,313.609,372.2566,313.584,370.1282,314.3049,368.0505,315.1521,366.0078,316.0871,363.8441,316.7195,361.8499,317.7757,361.9858,317.9116,362.5285,316.7876,363.468,316.0605,364.456,315.3818,365.1622,314.4213,366.0166,313.609,366.0333,313.6258,365.1754,312.7679,364.3937,311.9862,363.5753,311.1678,362.827,310.4195,361.8499,309.4424" style="stroke:#333333;stroke-width:1.0416666666666667;"/><path d="M199.2447,313.609 L199.2447,313.901 L209.7982,313.0336 L220.3516,313.8775 L230.9051,314.1642 L241.4585,312.6182 L252.012,313.5011 L262.5654,313.0167 L273.1189,313.0764 L283.6723,313.5144 L294.2258,312.6488 L304.7792,314.378 L315.3327,312.7337 L325.8861,313.3344 L336.4396,314.209 L346.993,313.4899 L357.5465,313.7038 L368.0999,313.609 " fill="none" style="stroke:#333333;stroke-width:3.125;"/><text fill="#2E2E2E" font-family="Segoe Print" font-size="12.5" lengthAdjust="spacing" textLength="10.5001" x="211.7447" y="302.6549">5.</text><text fill="#2E2E2E" font-family="Segoe Print" font-size="12.5" lengthAdjust="spacing" textLength="3.25" x="222.2448" y="302.6549">&#160;</text><text fill="#2E2E2E" font-family="Segoe Print" font-size="12.5" lengthAdjust="spacing" textLength="45.4754" x="225.4948" y="302.6549">Persists</text><text fill="#2E2E2E" font-family="Segoe Print" font-size="12.5" lengthAdjust="spacing" textLength="3.25" x="270.9702" y="302.6549">&#160;</text><text fill="#2E2E2E" font-family="Segoe Print" font-size="12.5" lengthAdjust="spacing" textLength="28.9752" x="274.2202" y="302.6549">meal</text><polygon fill="#333333" points="49.0855,351.4675,49.1126,351.5353,46.9488,352.1673,44.9438,353.1965,42.8871,354.0964,40.6602,354.5708,38.6689,355.6342,38.6588,355.6091,40.6972,356.33,42.7861,357.1772,44.9101,358.1122,46.913,358.7446,49.0855,359.8008,49.2215,359.9368,48.0974,358.8128,47.3703,358.0856,46.6916,357.4069,45.7311,356.4464,44.9189,355.6342,44.9356,355.6509,45.7443,354.793,46.6294,354.0113,47.4776,353.1929,48.396,352.4446,49.0855,351.4675" style="stroke:#333333;stroke-width:1.0416666666666667;"/><path d="M42.8355,355.6342 L42.8355,355.9261 L53.1934,355.0587 L63.5512,355.9026 L73.909,356.1893 L84.2669,354.6433 L94.6247,355.5262 L104.9825,355.0418 L115.3404,355.1015 L125.6982,355.5395 L136.0561,354.6739 L146.4139,356.4031 L156.7717,354.7588 L167.1296,355.3595 L177.4874,356.2341 L187.8452,355.515 L198.2031,355.6342 " fill="none" style="stroke:#333333;stroke-width:3.125;"/><text fill="#2E2E2E" font-family="Segoe Print" font-size="12.5" lengthAdjust="spacing" textLength="10.5001" x="60.5439" y="344.68">6.</text><text fill="#2E2E2E" font-family="Segoe Print" font-size="12.5" lengthAdjust="spacing" textLength="3.25" x="71.0439" y="344.68">&#160;</text><text fill="#2E2E2E" font-family="monospace" font-size="12.5" lengthAdjust="spacing" textLength="22.5769" x="74.2939" y="345.3945">201</text><text fill="#2E2E2E" font-family="monospace" font-size="12.5" lengthAdjust="spacing" textLength="7.5256" x="96.8709" y="345.3945">&#160;</text><text fill="#2E2E2E" font-family="monospace" font-size="12.5" lengthAdjust="spacing" textLength="52.6794" x="104.3965" y="345.3945">CREATED</text><polygon fill="#555555" points="14.5833,391.2301,14.5833,391.449,24.9528,390.7985,35.3223,391.4314,45.6919,391.6464,56.0614,390.4869,66.4309,391.1491,76.8004,390.7858,87.1699,390.8306,97.5394,391.1591,107.9089,390.5099,118.2784,391.8068,128.6479,390.5735,139.0174,391.0241,149.3869,391.68,159.7564,391.1407,170.1259,391.3011,180.4954,391.1968,190.865,391.416,201.2345,391.4792,211.604,391.8402,221.9735,391.9291,232.343,391.9376,242.7125,391.4953,253.082,391.713,263.4515,391.9616,273.821,390.4788,284.1905,391.9368,294.56,390.9212,304.9295,391.7861,315.299,390.7144,325.6685,391.1587,336.0381,392.0026,346.4076,391.1793,356.7771,391.3397,367.1466,391.5828,377.5161,391.6636,387.8856,391.226,398.2551,391.5292,408.6246,390.6338,418.9941,391.5263,429.3636,391.8011,439.7331,391.6931,450.1026,391.8686,460.4721,390.7269,470.8416,390.5507,481.2112,390.5828,491.5807,391.1687,501.9502,391.0253,512.3197,391.9399,522.6892,391.0481,533.0587,390.8727,543.4282,391.4678,553.7977,390.5354,564.1672,390.6893,574.5367,391.9061,584.9062,391.6839,595.2757,391.9952,605.6452,390.8949,616.0147,391.5626,626.3843,391.8451,636.7538,390.738,647.1233,391.1302,657.4928,391.3613,667.8623,391.909,678.2318,391.2257,688.6013,391.7119,698.9708,390.6532,709.3403,390.5246,719.7098,391.7547,730.0793,390.4832,740.4488,391.7602,750.8183,391.4453,761.1878,390.951,771.5574,390.8615,781.9269,391.7079,792.2964,390.9183,802.6659,391.8466,813.0354,391.2301,813.0059,391.0404,813.6575,391.5334,814.2397,391.5793,814.8162,391.5887,815.3949,391.6124,815.9817,391.6877,816.151,391.8747,816.3687,392.0666,816.5093,392.1732,816.7764,392.4197,816.9276,392.5381,817.2021,392.7926,817.369,392.977,816.9941,393.0534,816.7541,393.2789,816.3281,393.2989,816.1313,393.5721,815.9817,393.8974,816.0099,394.0795,815.4153,394.1364,814.8009,394.0657,814.1967,394.0615,813.613,394.1884,813.0354,394.3551,813.0354,393.6403,802.6659,394.7871,792.2964,395.1254,781.9269,394.9034,771.5574,395.0789,761.1878,394.2126,750.8183,394.4459,740.4488,393.9513,730.0793,394.6509,719.7098,394.6121,709.3403,394.9305,698.9708,394.1158,688.6013,394.2151,678.2318,394.817,667.8623,394.946,657.4928,393.8212,647.1233,394.1531,636.7538,394.5105,626.3843,393.7188,616.0147,394.7232,605.6452,394.6238,595.2757,394.2501,584.9062,394.5032,574.5367,395.1141,564.1672,394.0292,553.7977,394.6832,543.4282,394.6526,533.0587,394.4757,522.6892,394.5019,512.3197,394.4733,501.9502,393.7049,491.5807,393.9375,481.2112,393.8743,470.8416,394.4215,460.4721,394.4469,450.1026,394.5235,439.7331,394.052,429.3636,394.2847,418.9941,394.2298,408.6246,394.9559,398.2551,394.7994,387.8856,393.8493,377.5161,394.2791,367.1466,393.7538,356.7771,394.6555,346.4076,394.9889,336.0381,394.9223,325.6685,393.9014,315.299,394.8384,304.9295,393.5813,294.56,394.5636,284.1905,394.0433,273.821,394.4558,263.4515,394.6054,253.082,394.8468,242.7125,393.6051,232.343,394.8503,221.9735,394.5407,211.604,394.7252,201.2345,395.134,190.865,394.3608,180.4954,394.5376,170.1259,394.5774,159.7564,394.5605,149.3869,394.3542,139.0174,395.0954,128.6479,393.7199,118.2784,394.9439,107.9089,393.7051,97.5394,393.7922,87.1699,394.3967,76.8004,394.3845,66.4309,393.8417,56.0614,394.786,45.6919,394.4684,35.3223,395.112,24.9528,395.05,14.5833,394.3551,14.5594,394.2013,13.9729,394.127,13.3979,394.1277,12.8345,394.2025,12.2478,394.1272,11.6371,393.8974,11.7072,393.9749,11.3133,393.5884,11.2972,393.6193,11.0525,393.3976,10.6497,393.0014,10.4167,392.7926,10.361,392.731,10.5672,392.4683,10.8548,392.2954,11.1809,392.165,11.377,391.8911,11.6371,391.6877,11.6148,391.5444,12.2523,391.7634,12.7911,391.3472,13.4316,391.5855,14.0168,391.4682,14.5833,391.2301" style="stroke:#555555;stroke-width:1.0416666666666667;"/><path d="M10.4167,391.2301 L10.4167,391.522 L20.8944,390.6546 L31.3721,391.4985 L41.8499,391.7852 L52.3276,390.2392 L62.8053,391.1221 L73.2831,390.6377 L83.7608,390.6974 L94.2385,391.1354 L104.7163,390.2698 L115.194,391.999 L125.6717,390.3547 L136.1495,390.9554 L146.6272,391.83 L157.1049,391.1109 L167.5827,391.3248 L178.0604,391.1857 L188.5381,391.478 L199.0158,391.5622 L209.4936,392.0435 L219.9713,392.1621 L230.449,392.1735 L240.9268,391.5837 L251.4045,391.8739 L261.8822,392.2054 L272.36,390.2284 L282.8377,392.1724 L293.3154,390.8182 L303.7932,391.9715 L314.2709,390.5425 L324.7486,391.1349 L335.2264,392.2601 L345.7041,391.1624 L356.1818,391.3763 L366.6596,391.7004 L377.1373,391.8082 L387.615,391.2246 L398.0928,391.629 L408.5705,390.435 L419.0482,391.625 L429.526,391.9914 L440.0037,391.8475 L450.4814,392.0815 L460.9592,390.5591 L471.4369,390.3242 L481.9146,390.367 L492.3924,391.1483 L502.8701,390.9571 L513.3478,392.1765 L523.8255,390.9875 L534.3033,390.7536 L544.781,391.5471 L555.2587,390.3039 L565.7365,390.5091 L576.2142,392.1314 L586.6919,391.8352 L597.1697,392.2502 L607.6474,390.7831 L618.1251,391.6734 L628.6029,392.0501 L639.0806,390.5739 L649.5583,391.0969 L660.0361,391.405 L670.5138,392.1353 L680.9915,391.2242 L691.4693,391.8725 L701.947,390.4609 L712.4247,390.2894 L722.9025,391.9295 L733.3802,390.2343 L743.8579,391.937 L754.3357,391.517 L764.8134,390.858 L775.2911,390.7387 L785.7689,391.8672 L796.2466,390.8143 L806.7243,392.0521 L817.2021,391.2301 " fill="#555555" style="stroke:#555555;stroke-width:1.0416666666666667;"/><path d="M10.4167,394.3551 L10.4167,394.647 L20.8944,393.7796 L31.3721,394.6235 L41.8499,394.9102 L52.3276,393.3642 L62.8053,394.2471 L73.2831,393.7627 L83.7608,393.8224 L94.2385,394.2604 L104.7163,393.3948 L115.194,395.124 L125.6717,393.4797 L136.1495,394.0804 L146.6272,394.955 L157.1049,394.2359 L167.5827,394.4498 L178.0604,394.3107 L188.5381,394.603 L199.0158,394.6872 L209.4936,395.1685 L219.9713,395.2871 L230.449,395.2985 L240.9268,394.7087 L251.4045,394.9989 L261.8822,395.3304 L272.36,393.3534 L282.8377,395.2974 L293.3154,393.9432 L303.7932,395.0965 L314.2709,393.6675 L324.7486,394.2599 L335.2264,395.3851 L345.7041,394.2874 L356.1818,394.5013 L366.6596,394.8254 L377.1373,394.9332 L387.615,394.3496 L398.0928,394.754 L408.5705,393.56 L419.0482,394.75 L429.526,395.1164 L440.0037,394.9725 L450.4814,395.2065 L460.9592,393.6841 L471.4369,393.4492 L481.9146,393.492 L492.3924,394.2733 L502.8701,394.0821 L513.3478,395.3015 L523.8255,394.1125 L534.3033,393.8786 L544.781,394.6721 L555.2587,393.4289 L565.7365,393.6341 L576.2142,395.2564 L586.6919,394.9602 L597.1697,395.3752 L607.6474,393.9081 L618.1251,394.7984 L628.6029,395.1751 L639.0806,393.6989 L649.5583,394.2219 L660.0361,394.53 L670.5138,395.2603 L680.9915,394.3492 L691.4693,394.9975 L701.947,393.5859 L712.4247,393.4144 L722.9025,395.0545 L733.3802,393.3593 L743.8579,395.062 L754.3357,394.642 L764.8134,393.983 L775.2911,393.8637 L785.7689,394.9922 L796.2466,393.9393 L806.7243,395.1771 L817.2021,394.3551 " fill="#555555" style="stroke:#555555;stroke-width:1.0416666666666667;"/><polygon fill="#555555" points="341.3568,374.3842,341.3568,374.6031,351.7072,373.9526,362.0576,374.5855,372.4079,374.8005,382.7583,373.641,393.1086,374.3032,403.459,373.9399,413.8094,373.9847,424.1597,374.3132,434.5101,373.664,444.8604,374.9609,455.2108,373.7276,465.5612,374.1782,475.9115,374.8341,486.2619,374.3842,486.2505,374.3567,486.8602,374.6501,487.4361,374.8621,488.0534,375.1737,488.6507,375.4372,489.2082,375.6046,489.396,375.6824,489.6675,376.283,489.9142,376.8733,490.0221,377.4062,490.3332,378.0232,490.4285,378.5508,490.6724,378.5508,490.1781,384.0392,490.6641,389.5275,490.3256,395.0159,490.6139,400.5043,490.4285,405.9926,490.2697,405.9268,490.1625,406.5728,490.1783,407.2697,489.6807,407.7539,489.486,408.3636,489.2082,408.9389,489.2531,409.0475,488.6742,409.3165,488.0291,409.4258,487.4785,409.7633,486.7751,409.7316,486.2619,410.1593,486.2619,410.4555,475.9115,410.7303,465.5612,410.6223,455.2108,410.7979,444.8604,409.6561,434.5101,409.4799,424.1597,409.512,413.8094,410.098,403.459,409.9546,393.1086,410.8691,382.7583,409.9773,372.4079,409.8019,362.0576,410.3971,351.7072,409.4647,341.3568,410.1593,341.2879,409.9928,340.8538,410.1234,340.2362,409.8109,339.6867,409.6627,338.9571,409.0797,338.4106,408.9389,338.513,408.9813,338.3559,408.4281,337.7709,407.6976,337.6476,407.1584,337.4747,406.5986,337.1902,405.9926,337.4165,405.9926,337.1887,400.5043,337.3508,395.0159,336.9979,389.5275,336.955,384.0392,337.1902,378.5508,337.3517,378.6178,337.2043,377.8663,337.8416,377.44,337.9887,376.8105,338.0805,376.1582,338.4106,375.6046,338.3636,375.4911,339.0608,375.5076,339.5493,375.0204,340.257,375.0622,340.6941,374.4509,341.3568,374.3842" style="stroke:#555555;stroke-width:2.0833333333333335;"/><text fill="#FFFFFF" font-family="Segoe Print" font-size="12.5" font-weight="bold" lengthAdjust="spacing" textLength="124.9883" x="348.6485" y="397.1218">Asynchronous tasks</text><polygon fill="#333333" points="210.7031,450.1011,210.7302,450.1688,208.5663,450.8008,206.5613,451.8301,204.5046,452.7299,202.2777,453.2044,200.2864,454.2677,200.2764,454.2427,202.3147,454.9636,204.4036,455.8108,206.5276,456.7458,208.5306,457.3782,210.7031,458.4344,210.839,458.5703,209.715,457.4463,208.9878,456.7192,208.3091,456.0405,207.3487,455.08,206.5364,454.2677,206.5532,454.2845,207.3619,453.4266,208.2469,452.6449,209.0951,451.8265,210.0135,451.0782,210.7031,450.1011" style="stroke:#333333;stroke-width:1.0416666666666667;"/><polygon fill="none" points="378.0188,454.5,377.408,455.3345,376.6856,456.5568,375.6524,457.3806,374.5667,457.831,373.7011,457.8701,372.5884,457.3068,371.5386,456.9387,370.7418,456.1915,370.3238,455.336,370.0759,454.6549,369.8331,453.7652,369.4389,452.9995,369.7418,452.252,370.0072,451.4332,371.0031,450.7855,371.7037,449.9452,372.5709,449.6662,373.6019,449.4259,374.9239,449.5687,375.648,449.9102,376.49,450.065,377.5136,451.1138,377.8705,452.2209,378.0255,452.9764,377.8499,454.2213" style="stroke:#333333;stroke-width:1.5625;"/><path d="M204.4531,454.2677 L204.4531,454.5597 L214.7461,453.6923 L225.0391,454.5362 L235.3322,454.8228 L245.6252,453.2769 L255.9182,454.1598 L266.2113,453.6754 L276.5043,453.7351 L286.7973,454.1731 L297.0904,453.3075 L307.3834,455.0367 L317.6764,453.3923 L327.9695,453.9931 L338.2625,454.8677 L348.5555,454.1486 L358.8485,454.3625 L369.1416,454.2677 " fill="none" style="stroke:#333333;stroke-width:3.125;"/><text fill="#2E2E2E" font-family="Segoe Print" font-size="12.5" lengthAdjust="spacing" textLength="10.5001" x="222.1614" y="443.3135">7.</text><text fill="#2E2E2E" font-family="Segoe Print" font-size="12.5" lengthAdjust="spacing" textLength="3.25" x="232.6615" y="443.3135">&#160;</text><text fill="#2E2E2E" font-family="Segoe Print" font-size="12.5" lengthAdjust="spacing" textLength="27.7252" x="235.9115" y="443.3135">Pulls</text><text fill="#2E2E2E" font-family="Segoe Print" font-size="12.5" lengthAdjust="spacing" textLength="3.25" x="263.6367" y="443.3135">&#160;</text><text fill="#2E2E2E" font-family="Segoe Print" font-size="12.5" lengthAdjust="spacing" textLength="27.1127" x="266.8867" y="443.3135">food</text><text fill="#2E2E2E" font-family="Segoe Print" font-size="12.5" lengthAdjust="spacing" textLength="3.25" x="293.9994" y="443.3135">&#160;</text><text fill="#2E2E2E" font-family="Segoe Print" font-size="12.5" lengthAdjust="spacing" textLength="32.4627" x="297.2495" y="443.3135">items</text><polygon fill="#333333" points="466.1459,509.1513,466.173,509.2191,468.1758,509.8511,470.3375,510.8803,472.4474,511.7802,474.3872,512.2547,476.5626,513.318,476.5525,513.2929,474.4242,514.0138,472.3464,514.861,470.3038,515.796,468.1401,516.4284,466.1459,517.4846,466.2818,517.6206,466.8245,516.4966,467.764,515.7694,468.7519,515.0907,469.4582,514.1302,470.3126,513.318,470.3293,513.3347,469.4714,512.4768,468.6897,511.6951,467.8713,510.8767,467.123,510.1284,466.1459,509.1513" style="stroke:#333333;stroke-width:1.0416666666666667;"/><path d="M199.2447,513.318 L199.2447,513.6099 L209.7506,512.7425 L220.2564,513.5864 L230.7622,513.8731 L241.268,512.3272 L251.7738,513.21 L262.2796,512.7256 L272.7854,512.7853 L283.2912,513.2233 L293.7971,512.3577 L304.3029,514.0869 L314.8087,512.4426 L325.3145,513.0433 L335.8203,513.9179 L346.3261,513.1988 L356.8319,513.4128 L367.3378,513.2736 L377.8436,513.5659 L388.3494,513.6501 L398.8552,514.1314 L409.361,514.25 L419.8668,514.2614 L430.3726,513.6716 L440.8784,513.9618 L451.3843,514.2933 L461.8901,512.3163 L472.3959,513.318 " fill="none" style="stroke:#333333;stroke-width:3.125;stroke-dasharray:2.0,2.0;"/><text fill="#2E2E2E" font-family="Segoe Print" font-size="12.5" lengthAdjust="spacing" textLength="10.5001" x="211.7447" y="485.3387">8.</text><text fill="#2E2E2E" font-family="Segoe Print" font-size="12.5" lengthAdjust="spacing" textLength="3.25" x="222.2448" y="485.3387">&#160;</text><text fill="#2E2E2E" font-family="Segoe Print" font-size="12.5" lengthAdjust="spacing" textLength="50.1629" x="225.4948" y="485.3387">Prompts</text><text fill="#2E2E2E" font-family="Segoe Print" font-size="12.5" lengthAdjust="spacing" textLength="3.25" x="275.6577" y="485.3387">&#160;</text><text fill="#2E2E2E" font-family="Segoe Print" font-size="12.5" lengthAdjust="spacing" textLength="24.4377" x="278.9077" y="485.3387">LLM</text><text fill="#2E2E2E" font-family="Segoe Print" font-size="12.5" lengthAdjust="spacing" textLength="3.25" x="303.3454" y="485.3387">&#160;</text><text fill="#2E2E2E" font-family="Segoe Print" font-size="12.5" lengthAdjust="spacing" textLength="17.0251" x="306.5954" y="485.3387">for</text><text fill="#2E2E2E" font-family="Segoe Print" font-size="12.5" lengthAdjust="spacing" textLength="3.25" x="323.6206" y="485.3387">&#160;</text><text fill="#2E2E2E" font-family="Segoe Print" font-size="12.5" lengthAdjust="spacing" textLength="27.1127" x="326.8706" y="485.3387">food</text><text fill="#2E2E2E" font-family="Segoe Print" font-size="12.5" lengthAdjust="spacing" textLength="69.7005" x="211.7447" y="502.3638">information</text><polygon fill="#333333" points="625.8634,551.1764,625.8906,551.2442,627.8934,551.8762,630.055,552.9054,632.165,553.8053,634.1048,554.2798,636.2801,555.3431,636.2701,555.318,634.1418,556.0389,632.064,556.8861,630.0213,557.8211,627.8576,558.4535,625.8634,559.5098,625.9994,559.6457,626.542,558.5217,627.4816,557.7945,628.4695,557.1158,629.1757,556.1554,630.0301,555.3431,630.0469,555.3598,629.1889,554.5019,628.4073,553.7203,627.5888,552.9018,626.8406,552.1536,625.8634,551.1764" style="stroke:#333333;stroke-width:1.0416666666666667;"/><path d="M478.6459,555.3431 L478.6459,555.635 L488.8771,554.7677 L499.1082,555.6115 L509.3394,555.8982 L519.5706,554.3523 L529.8017,555.2352 L540.0329,554.7507 L550.2641,554.8105 L560.4953,555.2484 L570.7264,554.3829 L580.9576,556.112 L591.1888,554.4677 L601.4199,555.0684 L611.6511,555.943 L621.8823,555.224 L632.1134,555.3431 " fill="none" style="stroke:#333333;stroke-width:3.125;"/><text fill="#2E2E2E" font-family="Segoe Print" font-size="12.5" lengthAdjust="spacing" textLength="10.5001" x="491.1459" y="544.3889">9.</text><text fill="#2E2E2E" font-family="Segoe Print" font-size="12.5" lengthAdjust="spacing" textLength="3.25" x="501.646" y="544.3889">&#160;</text><text fill="#2E2E2E" font-family="Segoe Print" font-size="12.5" lengthAdjust="spacing" textLength="27.3502" x="504.896" y="544.3889">Calls</text><text fill="#2E2E2E" font-family="Segoe Print" font-size="12.5" lengthAdjust="spacing" textLength="3.25" x="532.2462" y="544.3889">&#160;</text><text fill="#2E2E2E" font-family="Segoe Print" font-size="12.5" lengthAdjust="spacing" textLength="24.4377" x="535.4962" y="544.3889">LLM</text><path d="M638.3634,597.3682 L638.3634,597.4655 L647.1134,597.1764 L655.8634,597.4577 L664.6134,597.5533 L673.3634,597.0379 L682.1134,597.3682 " fill="none" style="stroke:#333333;stroke-width:3.125;"/><path d="M682.1134,597.3682 L682.2108,597.3682 L681.9216,600.0765 L682.2029,602.7849 L682.2985,605.4932 L681.7832,608.2015 L682.1134,610.9099 " fill="none" style="stroke:#333333;stroke-width:3.125;"/><path d="M639.4051,610.9099 L639.4051,611.0072 L647.9468,610.7181 L656.4884,610.9994 L665.0301,611.0949 L673.5718,610.5796 L682.1134,610.9099 " fill="none" style="stroke:#333333;stroke-width:3.125;"/><polygon fill="#333333" points="649.8218,606.7432,649.8489,606.811,647.685,607.443,645.68,608.4722,643.6233,609.3721,641.3965,609.8466,639.4051,610.9099,639.3951,610.8848,641.4335,611.6057,643.5223,612.4529,645.6463,613.3879,647.6493,614.0203,649.8218,615.0765,649.9577,615.2125,648.8337,614.0885,648.1066,613.3613,647.4278,612.6826,646.4674,611.7222,645.6551,610.9099,645.6719,610.9266,646.4806,610.0687,647.3656,609.287,648.2138,608.4686,649.1322,607.7203,649.8218,606.7432" style="stroke:#333333;stroke-width:1.0416666666666667;"/><text fill="#2E2E2E" font-family="Segoe Print" font-size="12.5" lengthAdjust="spacing" textLength="17.6501" x="650.8634" y="586.414">10.</text><text fill="#2E2E2E" font-family="Segoe Print" font-size="12.5" lengthAdjust="spacing" textLength="3.25" x="668.5136" y="586.414">&#160;</text><text fill="#2E2E2E" font-family="Segoe Print" font-size="12.5" lengthAdjust="spacing" textLength="54.4754" x="671.7636" y="586.414">Performs</text><text fill="#2E2E2E" font-family="Segoe Print" font-size="12.5" lengthAdjust="spacing" textLength="3.25" x="726.239" y="586.414">&#160;</text><text fill="#2E2E2E" font-family="Segoe Print" font-size="12.5" lengthAdjust="spacing" textLength="75.213" x="729.489" y="586.414">computation</text><polygon fill="#333333" points="490.1042,648.7683,490.1313,648.8361,487.9675,649.4681,485.9625,650.4973,483.9058,651.3972,481.6789,651.8717,479.6876,652.935,479.6775,652.9099,481.7159,653.6308,483.8048,654.478,485.9288,655.413,487.9317,656.0454,490.1042,657.1017,490.2402,657.2376,489.1161,656.1136,488.389,655.3864,487.7103,654.7077,486.7498,653.7473,485.9376,652.935,485.9543,652.9518,486.763,652.0938,487.6481,651.3122,488.4963,650.4937,489.4147,649.7455,490.1042,648.7683" style="stroke:#333333;stroke-width:1.0416666666666667;"/><path d="M483.8542,652.935 L483.8542,653.2269 L494.0854,652.3596 L504.3166,653.2035 L514.5477,653.4901 L524.7789,651.9442 L535.0101,652.8271 L545.2412,652.3426 L555.4724,652.4024 L565.7036,652.8403 L575.9348,651.9748 L586.1659,653.7039 L596.3971,652.0596 L606.6283,652.6603 L616.8594,653.5349 L627.0906,652.8159 L637.3218,652.935 " fill="none" style="stroke:#333333;stroke-width:3.125;"/><text fill="#2E2E2E" font-family="Segoe Print" font-size="12.5" lengthAdjust="spacing" textLength="17.6501" x="501.5626" y="641.9808">11.</text><text fill="#2E2E2E" font-family="Segoe Print" font-size="12.5" lengthAdjust="spacing" textLength="3.25" x="519.2127" y="641.9808">&#160;</text><text fill="#2E2E2E" font-family="Segoe Print" font-size="12.5" lengthAdjust="spacing" textLength="45.9378" x="522.4627" y="641.9808">Returns</text><text fill="#2E2E2E" font-family="Segoe Print" font-size="12.5" lengthAdjust="spacing" textLength="3.25" x="568.4005" y="641.9808">&#160;</text><text fill="#2E2E2E" font-family="Segoe Print" font-size="12.5" lengthAdjust="spacing" textLength="54.2129" x="571.6505" y="641.9808">response</text><polygon fill="#333333" points="210.7031,690.7935,210.7302,690.8612,208.5663,691.4932,206.5613,692.5224,204.5046,693.4223,202.2777,693.8968,200.2864,694.9601,200.2764,694.9351,202.3147,695.656,204.4036,696.5032,206.5276,697.4381,208.5306,698.0706,210.7031,699.1268,210.839,699.2627,209.715,698.1387,208.9878,697.4116,208.3091,696.7328,207.3487,695.7724,206.5364,694.9601,206.5532,694.9769,207.3619,694.1189,208.2469,693.3373,209.0951,692.5188,210.0135,691.7706,210.7031,690.7935" style="stroke:#333333;stroke-width:1.0416666666666667;"/><path d="M204.4531,694.9601 L204.4531,695.252 L214.9589,694.3847 L225.4647,695.2286 L235.9705,695.5152 L246.4763,693.9693 L256.9821,694.8522 L267.488,694.3678 L277.9938,694.4275 L288.4996,694.8655 L299.0054,693.9999 L309.5112,695.7291 L320.017,694.0847 L330.5228,694.6854 L341.0286,695.56 L351.5345,694.841 L362.0403,695.0549 L372.5461,694.9157 L383.0519,695.2081 L393.5577,695.2922 L404.0635,695.7736 L414.5693,695.8921 L425.0752,695.9035 L435.581,695.3138 L446.0868,695.604 L456.5926,695.9354 L467.0984,693.9585 L477.6042,694.9601 " fill="none" style="stroke:#333333;stroke-width:3.125;"/><text fill="#2E2E2E" font-family="Segoe Print" font-size="12.5" lengthAdjust="spacing" textLength="17.6501" x="222.1614" y="684.0059">12.</text><text fill="#2E2E2E" font-family="Segoe Print" font-size="12.5" lengthAdjust="spacing" textLength="3.25" x="239.8115" y="684.0059">&#160;</text><text fill="#2E2E2E" font-family="Segoe Print" font-size="12.5" lengthAdjust="spacing" textLength="45.9378" x="243.0615" y="684.0059">Returns</text><text fill="#2E2E2E" font-family="Segoe Print" font-size="12.5" lengthAdjust="spacing" textLength="3.25" x="288.9994" y="684.0059">&#160;</text><text fill="#2E2E2E" font-family="Segoe Print" font-size="12.5" lengthAdjust="spacing" textLength="54.2129" x="292.2494" y="684.0059">response</text><path d="M199.2447,736.9852 L199.2447,737.0825 L207.9947,736.7934 L216.7447,737.0747 L225.4947,737.1703 L234.2447,736.655 L242.9947,736.9852 " fill="none" style="stroke:#333333;stroke-width:3.125;"/><path d="M242.9947,736.9852 L243.092,736.9852 L242.8029,739.6936 L243.0842,742.4019 L243.1798,745.1102 L242.6645,747.8186 L242.9947,750.5269 " fill="none" style="stroke:#333333;stroke-width:3.125;"/><path d="M200.2864,750.5269 L200.2864,750.6242 L208.8281,750.3351 L217.3697,750.6164 L225.9114,750.7119 L234.4531,750.1966 L242.9947,750.5269 " fill="none" style="stroke:#333333;stroke-width:3.125;"/><polygon fill="#333333" points="210.7031,746.3602,210.7302,746.428,208.5663,747.06,206.5613,748.0892,204.5046,748.9891,202.2777,749.4636,200.2864,750.5269,200.2764,750.5019,202.3147,751.2227,204.4036,752.0699,206.5276,753.0049,208.5306,753.6373,210.7031,754.6936,210.839,754.8295,209.715,753.7055,208.9878,752.9783,208.3091,752.2996,207.3487,751.3392,206.5364,750.5269,206.5532,750.5437,207.3619,749.6857,208.2469,748.9041,209.0951,748.0856,210.0135,747.3374,210.7031,746.3602" style="stroke:#333333;stroke-width:1.0416666666666667;"/><text fill="#2E2E2E" font-family="Segoe Print" font-size="12.5" lengthAdjust="spacing" textLength="17.6501" x="211.7447" y="726.031">13.</text><text fill="#2E2E2E" font-family="Segoe Print" font-size="12.5" lengthAdjust="spacing" textLength="3.25" x="229.3948" y="726.031">&#160;</text><text fill="#2E2E2E" font-family="Segoe Print" font-size="12.5" lengthAdjust="spacing" textLength="38.7628" x="232.6449" y="726.031">Parses</text><text fill="#2E2E2E" font-family="Segoe Print" font-size="12.5" lengthAdjust="spacing" textLength="3.25" x="271.4077" y="726.031">&#160;</text><text fill="#2E2E2E" font-family="Segoe Print" font-size="12.5" lengthAdjust="spacing" textLength="54.2129" x="274.6577" y="726.031">response</text><polygon fill="#333333" points="361.8499,788.3854,361.877,788.4531,363.8798,789.0851,366.0415,790.1143,368.1515,791.0142,370.0912,791.4887,372.2666,792.552,372.2566,792.527,370.1282,793.2479,368.0505,794.0951,366.0078,795.0301,363.8441,795.6625,361.8499,796.7187,361.9858,796.8546,362.5285,795.7306,363.468,795.0035,364.456,794.3247,365.1622,793.3643,366.0166,792.552,366.0333,792.5688,365.1754,791.7108,364.3937,790.9292,363.5753,790.1107,362.827,789.3625,361.8499,788.3854" style="stroke:#333333;stroke-width:1.0416666666666667;"/><path d="M199.2447,792.552 L199.2447,792.8439 L209.7982,791.9766 L220.3516,792.8205 L230.9051,793.1071 L241.4585,791.5612 L252.012,792.4441 L262.5654,791.9597 L273.1189,792.0194 L283.6723,792.4574 L294.2258,791.5918 L304.7792,793.321 L315.3327,791.6766 L325.8861,792.2773 L336.4396,793.152 L346.993,792.4329 L357.5465,792.6468 L368.0999,792.552 " fill="none" style="stroke:#333333;stroke-width:3.125;"/><text fill="#2E2E2E" font-family="Segoe Print" font-size="12.5" lengthAdjust="spacing" textLength="17.6501" x="211.7447" y="781.5978">14.</text><text fill="#2E2E2E" font-family="Segoe Print" font-size="12.5" lengthAdjust="spacing" textLength="3.25" x="229.3948" y="781.5978">&#160;</text><text fill="#2E2E2E" font-family="Segoe Print" font-size="12.5" lengthAdjust="spacing" textLength="45.4754" x="232.6449" y="781.5978">Persists</text><text fill="#2E2E2E" font-family="Segoe Print" font-size="12.5" lengthAdjust="spacing" textLength="3.25" x="278.1202" y="781.5978">&#160;</text><text fill="#2E2E2E" font-family="Segoe Print" font-size="12.5" lengthAdjust="spacing" textLength="40.5878" x="281.3703" y="781.5978">parsed</text><text fill="#2E2E2E" font-family="Segoe Print" font-size="12.5" lengthAdjust="spacing" textLength="3.25" x="321.958" y="781.5978">&#160;</text><text fill="#2E2E2E" font-family="Segoe Print" font-size="12.5" lengthAdjust="spacing" textLength="26.2252" x="325.2081" y="781.5978">data</text><!--SRC=[RP71Rjim38RlUWekFYU8qsPnWwL0uxYd5Ydg1Zkp3fi8iIL3f85bJpygBbftctMnz96VwD_Vv4WD0Pz8gkDvx3kfhIF39-jQ3DX0WxyUYHaFLDhV1BFfT01ViJeTWk_SFlUr3v3yF5eXOx0ItUsO0Y33pcYrsCgsw0JADbXtYESb95bMBBBCx57m5PbWiuPaFSyNnVfBpxQkiS7OiuLaSnEN8ITMpl3my0Z9lJxvt9WTZCUtwbr2Ee4y40ene0EiAXrIJ0cAzOubp2RmH84j2qCNvumZz7od-6e2ez5icaB-NDoz59lHQE2-da3XHBi1eI6i1zhvGFk9el7xlyRL2kxuxAfZyCvt389yObYjjEd7sFV2XGgxkcPuytuF6cx3qQdIhT9CQV1DgxV57DuqzBxEwMk3OhqpspX1f4kuqL0modHhuj47IQUNmMCNGwN6JlhkzwfuMQgPFfDqmJ44ujOxfjv-2Nps7rf-K0tq2GFJt_3oaUdr8BOsbkql_-CF]--></g></svg>