<svg xmlns="http://www.w3.org/2000/svg" xmlns:xlink="http://www.w3.org/1999/xlink" contentStyleType="text/css" height="686.4583px" preserveAspectRatio="none" style="width:692px;height:686px;background:#FFFFFF;" version="1.1" viewBox="0 0 692 686" width="692.7083px" zoomAndPan="magnify"><defs/><g><path d="M37.5,101.4001 L37.7919,101.4001 L36.9246,111.7158 L37.7685,122.0314 L38.0551,132.3471 L36.5092,142.6627 L37.3921,152.9784 L36.9076,163.294 L36.9674,173.6097 L37.4053,183.9253 L36.5398,194.241 L38.2689,204.5566 L36.6246,214.8723 L37.2253,225.1879 L38.0999,235.5036 L37.3809,245.8193 L37.5948,256.1349 L37.4556,266.4506 L37.748,276.7662 L37.8321,287.0819 L38.3135,297.3975 L38.432,307.7132 L38.4434,318.0288 L37.8536,328.3445 L38.1439,338.6601 L38.4753,348.9758 L36.4984,359.2914 L38.4424,369.6071 L37.0882,379.9227 L38.2414,390.2384 L36.8125,400.554 L37.4049,410.8697 L38.53,421.1853 L37.4323,431.501 L37.6463,441.8166 L37.9703,452.1323 L38.0781,462.448 L37.4946,472.7636 L37.8989,483.0793 L36.705,493.3949 L37.895,503.7106 L38.2614,514.0262 L38.1174,524.3419 L38.3514,534.6575 L36.8291,544.9732 L36.5942,555.2888 L36.6369,565.6045 L37.4182,575.9201 L37.5,586.2358 " fill="none" style="stroke:#555555;stroke-width:1.0416666666666667;stroke-dasharray:5.0,5.0;"/><path d="M259.4584,101.4001 L259.7503,101.4001 L258.883,111.7158 L259.7269,122.0314 L260.0135,132.3471 L258.4676,142.6627 L259.3505,152.9784 L258.8661,163.294 L258.9258,173.6097 L259.3638,183.9253 L258.4982,194.241 L260.2274,204.5566 L258.583,214.8723 L259.1837,225.1879 L260.0583,235.5036 L259.3393,245.8193 L259.5532,256.1349 L259.414,266.4506 L259.7064,276.7662 L259.7905,287.0819 L260.2719,297.3975 L260.3904,307.7132 L260.4018,318.0288 L259.8121,328.3445 L260.1023,338.6601 L260.4337,348.9758 L258.4568,359.2914 L260.4008,369.6071 L259.0466,379.9227 L260.1998,390.2384 L258.7709,400.554 L259.3633,410.8697 L260.4884,421.1853 L259.3907,431.501 L259.6047,441.8166 L259.9287,452.1323 L260.0365,462.448 L259.453,472.7636 L259.8573,483.0793 L258.6634,493.3949 L259.8534,503.7106 L260.2198,514.0262 L260.0758,524.3419 L260.3098,534.6575 L258.7875,544.9732 L258.5526,555.2888 L258.5954,565.6045 L259.3766,575.9201 L259.4584,586.2358 " fill="none" style="stroke:#555555;stroke-width:1.0416666666666667;stroke-dasharray:5.0,5.0;"/><path d="M496.3892,101.4001 L496.6811,101.4001 L495.8137,111.7158 L496.6576,122.0314 L496.9443,132.3471 L495.3984,142.6627 L496.2812,152.9784 L495.7968,163.294 L495.8565,173.6097 L496.2945,183.9253 L495.4289,194.241 L497.1581,204.5566 L495.5138,214.8723 L496.1145,225.1879 L496.9891,235.5036 L496.27,245.8193 L496.484,256.1349 L496.3448,266.4506 L496.6371,276.7662 L496.7213,287.0819 L497.2026,297.3975 L497.3212,307.7132 L497.3326,318.0288 L496.7428,328.3445 L497.0331,338.6601 L497.3645,348.9758 L495.3875,359.2914 L497.3316,369.6071 L495.9774,379.9227 L497.1306,390.2384 L495.7017,400.554 L496.294,410.8697 L497.4192,421.1853 L496.3215,431.501 L496.5354,441.8166 L496.8595,452.1323 L496.9673,462.448 L496.3838,472.7636 L496.7881,483.0793 L495.5942,493.3949 L496.7842,503.7106 L497.1506,514.0262 L497.0066,524.3419 L497.2406,534.6575 L495.7182,544.9732 L495.4834,555.2888 L495.5261,565.6045 L496.3074,575.9201 L496.3892,586.2358 " fill="none" style="stroke:#555555;stroke-width:1.0416666666666667;stroke-dasharray:5.0,5.0;"/><path d="M600.5558,101.4001 L600.8478,101.4001 L599.9804,111.7158 L600.8243,122.0314 L601.111,132.3471 L599.565,142.6627 L600.4479,152.9784 L599.9635,163.294 L600.0232,173.6097 L600.4612,183.9253 L599.5956,194.241 L601.3248,204.5566 L599.6805,214.8723 L600.2812,225.1879 L601.1558,235.5036 L600.4367,245.8193 L600.6506,256.1349 L600.5115,266.4506 L600.8038,276.7662 L600.888,287.0819 L601.3693,297.3975 L601.4879,307.7132 L601.4993,318.0288 L600.9095,328.3445 L601.1997,338.6601 L601.5312,348.9758 L599.5542,359.2914 L601.4982,369.6071 L600.144,379.9227 L601.2973,390.2384 L599.8683,400.554 L600.4607,410.8697 L601.5859,421.1853 L600.4882,431.501 L600.7021,441.8166 L601.0262,452.1323 L601.1339,462.448 L600.5504,472.7636 L600.9548,483.0793 L599.7608,493.3949 L600.9508,503.7106 L601.3172,514.0262 L601.1733,524.3419 L601.4073,534.6575 L599.8849,544.9732 L599.65,555.2888 L599.6928,565.6045 L600.4741,575.9201 L600.5558,586.2358 " fill="none" style="stroke:#555555;stroke-width:1.0416666666666667;stroke-dasharray:5.0,5.0;"/><text fill="#2E2E2E" font-family="Segoe Print" font-size="12.5" lengthAdjust="spacing" textLength="27.3377" x="20.8333" y="92.5293">User</text><polygon fill="none" points="46.0066,21.8187,44.785,23.4877,43.3402,25.9324,41.2739,27.5798,39.1025,28.4808,37.3711,28.559,35.1459,27.4322,33.0463,26.6962,31.4526,25.2017,30.6166,23.4907,30.1209,22.1284,29.6352,20.349,28.8469,18.8178,29.4527,17.3227,29.9834,15.685,31.9751,14.3898,33.3764,12.7092,35.1108,12.1511,37.1727,11.6705,39.8169,11.956,41.2651,12.639,42.9489,12.9486,44.9963,15.0462,45.71,17.2606,46.02,18.7715,45.6688,21.2613" style="stroke:#333333;stroke-width:1.0416666666666667;"/><path d="M37.6272,28.125 L37.8218,28.125 L37.2436,33.75 L37.8062,39.375 L37.9973,45 L36.9666,50.625 L37.6272,56.25 M24.0855,36.4583 L24.0855,36.3864 L29.5022,36.0634 L34.9189,36.1032 L40.3355,36.3952 L45.7522,35.8182 L51.1689,36.4583 M37.6272,56.25 L38.0146,56.5857 L34.4778,58.9928 L32.0721,62.3801 L29.8044,65.8869 L26.7338,68.698 L24.0855,71.875 M37.6272,56.25 L37.6749,56.2914 L40.3132,59.3556 L43.1688,62.6083 L45.9195,65.77 L48.8703,69.1052 L51.1689,71.875 " fill="none" style="stroke:#333333;stroke-width:1.0416666666666667;"/><text fill="#2E2E2E" font-family="Segoe Print" font-size="12.5" lengthAdjust="spacing" textLength="27.3377" x="20.8333" y="603.765">User</text><polygon fill="none" points="46.0066,624.0379,44.785,625.707,43.3402,628.1516,41.2739,629.7991,39.1025,630.7,37.3711,630.7782,35.1459,629.6515,33.0463,628.9154,31.4526,627.4209,30.6166,625.71,30.1209,624.3477,29.6352,622.5682,28.8469,621.037,29.4527,619.542,29.9834,617.9043,31.9751,616.609,33.3764,614.9284,35.1108,614.3703,37.1727,613.8897,39.8169,614.1753,41.2651,614.8583,42.9489,615.1679,44.9963,617.2654,45.71,619.4798,46.02,620.9907,45.6688,623.4805" style="stroke:#333333;stroke-width:1.0416666666666667;"/><path d="M37.6272,630.3442 L37.8218,630.3442 L37.2436,635.9692 L37.8062,641.5942 L37.9973,647.2192 L36.9666,652.8442 L37.6272,658.4692 M24.0855,638.6776 L24.0855,638.6056 L29.5022,638.2827 L34.9189,638.3225 L40.3355,638.6145 L45.7522,638.0374 L51.1689,638.6776 M37.6272,658.4692 L38.0146,658.805 L34.4778,661.212 L32.0721,664.5993 L29.8044,668.1062 L26.7338,670.9172 L24.0855,674.0942 M37.6272,658.4692 L37.6749,658.5106 L40.3132,661.5749 L43.1688,664.8275 L45.9195,667.9892 L48.8703,671.3244 L51.1689,674.0942 " fill="none" style="stroke:#333333;stroke-width:1.0416666666666667;"/><polygon fill="#88E788" points="232.3751,58.3333,232.3751,58.5523,243.3785,57.9017,254.3819,58.5347,265.3852,58.7497,276.3886,57.5902,287.392,58.3333,287.3817,58.3084,287.9246,58.4406,288.5196,58.6985,289.1507,59.0437,289.6572,59.0879,290.3383,59.5537,290.5159,59.6273,290.3802,60.0592,290.763,60.706,291.2091,61.3789,291.2871,61.8993,291.5587,62.5,291.5824,62.5,291.5476,69.2384,291.6207,75.9767,291.6417,82.7151,291.762,89.4534,291.5587,96.1918,291.7739,96.281,291.5325,96.8713,291.1522,97.4041,290.9752,98.0212,290.8076,98.6421,290.3383,99.1381,290.2425,98.9067,289.8392,99.5998,289.1204,99.5311,288.6415,100.0415,287.9155,99.9556,287.392,100.3585,287.392,100.2871,276.3886,101.131,265.3852,100.3077,254.3819,100.4681,243.3785,100.7112,232.3751,100.3585,232.4304,100.492,231.7853,100.1131,231.2347,99.9624,230.5313,99.4426,230.0558,99.4734,229.4288,99.1381,229.6047,99.2109,229.3273,98.6079,229.1373,98.041,228.5416,97.3061,228.2433,96.6944,228.2084,96.1918,227.9927,96.1918,228.188,89.4534,228.1402,82.7151,228.445,75.9767,228.1478,69.2384,228.2084,62.5,228.0984,62.4544,228.5257,61.9411,228.4827,61.2329,228.7741,60.6633,229.3929,60.2292,229.4288,59.5537,229.4867,59.6935,230.1157,59.5453,230.5646,58.9623,231.239,58.9239,231.8643,58.7668,232.3751,58.3333" style="stroke:#333333;stroke-width:1.0416666666666667;"/><text fill="#2E2E2E" font-family="Segoe Print" font-size="12.5" lengthAdjust="spacing" textLength="38.3503" x="240.7084" y="84.1959">Spring</text><polygon fill="#88E788" points="232.3751,585.1941,232.3751,585.4131,243.3785,584.7625,254.3819,585.3955,265.3852,585.6104,276.3886,584.451,287.392,585.1941,287.3817,585.1692,287.9246,585.3014,288.5196,585.5592,289.1507,585.9045,289.6572,585.9486,290.3383,586.4145,290.5159,586.4881,290.3802,586.92,290.763,587.5667,291.2091,588.2397,291.2871,588.7601,291.5587,589.3608,291.5824,589.3608,291.5476,596.0991,291.6207,602.8375,291.6417,609.5759,291.762,616.3142,291.5587,623.0526,291.7739,623.1417,291.5325,623.7321,291.1522,624.2649,290.9752,624.8819,290.8076,625.5029,290.3383,625.9988,290.2425,625.7675,289.8392,626.4606,289.1204,626.3919,288.6415,626.9023,287.9155,626.8164,287.392,627.2192,287.392,627.1479,276.3886,627.9917,265.3852,627.1685,254.3819,627.3289,243.3785,627.572,232.3751,627.2192,232.4304,627.3528,231.7853,626.9739,231.2347,626.8232,230.5313,626.3034,230.0558,626.3342,229.4288,625.9988,229.6047,626.0717,229.3273,625.4687,229.1373,624.9018,228.5416,624.1669,228.2433,623.5552,228.2084,623.0526,227.9927,623.0526,228.188,616.3142,228.1402,609.5759,228.445,602.8375,228.1478,596.0991,228.2084,589.3608,228.0984,589.3152,228.5257,588.8019,228.4827,588.0937,228.7741,587.524,229.3929,587.09,229.4288,586.4145,229.4867,586.5543,230.1157,586.406,230.5646,585.8231,231.239,585.7847,231.8643,585.6276,232.3751,585.1941" style="stroke:#333333;stroke-width:1.0416666666666667;"/><text fill="#2E2E2E" font-family="Segoe Print" font-size="12.5" lengthAdjust="spacing" textLength="38.3503" x="240.7084" y="611.0567">Spring</text><text fill="#2E2E2E" font-family="Segoe Print" font-size="12.5" lengthAdjust="spacing" textLength="17.2501" x="484.6391" y="92.5293">DB</text><path d="M477.6392,36.4583 L477.6392,36.4583 L477.707,36.5281 L479.3805,34.4979 L481.4516,32.8767 L483.3932,31.1223 L484.909,28.9299 L487.0142,27.3438 L487.0092,27.3081 L488.862,26.8878 L490.7398,26.6471 L492.6348,26.5312 L494.4701,25.985 L496.3892,26.0417 L496.3892,26.0417 L496.4244,26.2955 L498.224,26.0131 L500.1266,26.4718 L502.0417,27.021 L503.8837,27.044 L505.7642,27.3438 L505.7862,27.3664 L507.6289,29.1561 L509.5718,31.0488 L511.4664,32.8919 L513.4532,34.8298 L515.1392,36.4583 L515.7605,36.4583 L515.7681,41.875 L515.3749,47.2917 L515.5684,52.7083 L515.7894,58.125 L515.1392,63.5417 L515.1392,63.5417 L514.9064,63.3023 L513.4832,65.5898 L511.2935,67.0891 L509.6865,69.1876 L507.4794,70.669 L505.7642,72.6563 L505.7598,72.6248 L503.9364,73.2567 L502.0111,73.1547 L500.1459,73.4858 L498.2857,73.8532 L496.3892,73.9583 L496.3892,73.9583 L496.4157,74.1492 L494.5139,73.6961 L492.6575,73.5692 L490.7277,72.9146 L488.9073,73.0471 L487.0142,72.6563 L487.1911,72.8382 L485.2826,70.9809 L483.462,69.2139 L481.2333,67.0271 L479.3037,65.1481 L477.6392,63.5417 L477.0638,63.5417 L477.5847,58.125 L477.4572,52.7083 L478.2701,47.2917 L477.4774,41.875 L477.6392,36.4583 " fill="#B5C7EB" style="stroke:#333333;stroke-width:1.5625;"/><path d="M477.6392,36.4583 L477.6392,36.4583 L477.707,36.5281 L479.3805,38.1437 L481.4516,40.1683 L483.3932,42.0598 L484.909,43.5132 L487.0142,45.5729 L487.0092,45.5373 L488.862,45.6378 L490.7398,45.9179 L492.6348,46.3229 L494.4701,46.2975 L496.3892,46.875 L496.3892,46.875 L496.4244,47.1289 L498.224,46.3256 L500.1266,46.2635 L502.0417,46.2918 L503.8837,45.794 L505.7642,45.5729 L505.7862,45.5956 L507.6289,43.7394 L509.5718,41.9863 L511.4664,40.1835 L513.4532,38.4757 L515.1392,36.4583 " fill="none" style="stroke:#333333;stroke-width:1.5625;"/><text fill="#2E2E2E" font-family="Segoe Print" font-size="12.5" lengthAdjust="spacing" textLength="17.2501" x="484.6391" y="603.765">DB</text><path d="M477.6392,623.0526 L477.6392,623.0526 L477.707,623.1223 L479.3805,621.0921 L481.4516,619.4709 L483.3932,617.7165 L484.909,615.5241 L487.0142,613.938 L487.0092,613.9023 L488.862,613.482 L490.7398,613.2413 L492.6348,613.1255 L494.4701,612.5793 L496.3892,612.6359 L496.3892,612.6359 L496.4244,612.8898 L498.224,612.6073 L500.1266,613.066 L502.0417,613.6152 L503.8837,613.6382 L505.7642,613.938 L505.7862,613.9606 L507.6289,615.7503 L509.5718,617.6431 L511.4664,619.4861 L513.4532,621.4241 L515.1392,623.0526 L515.7605,623.0526 L515.7681,628.4692 L515.3749,633.8859 L515.5684,639.3026 L515.7894,644.7192 L515.1392,650.1359 L515.1392,650.1359 L514.9064,649.8965 L513.4832,652.184 L511.2935,653.6833 L509.6865,655.7818 L507.4794,657.2632 L505.7642,659.2505 L505.7598,659.2191 L503.9364,659.851 L502.0111,659.749 L500.1459,660.08 L498.2857,660.4474 L496.3892,660.5526 L496.3892,660.5526 L496.4157,660.7434 L494.5139,660.2904 L492.6575,660.1634 L490.7277,659.5088 L488.9073,659.6413 L487.0142,659.2505 L487.1911,659.4325 L485.2826,657.5751 L483.462,655.8081 L481.2333,653.6214 L479.3037,651.7423 L477.6392,650.1359 L477.0638,650.1359 L477.5847,644.7192 L477.4572,639.3026 L478.2701,633.8859 L477.4774,628.4692 L477.6392,623.0526 " fill="#B5C7EB" style="stroke:#333333;stroke-width:1.5625;"/><path d="M477.6392,623.0526 L477.6392,623.0526 L477.707,623.1223 L479.3805,624.738 L481.4516,626.7626 L483.3932,628.654 L484.909,630.1074 L487.0142,632.1672 L487.0092,632.1315 L488.862,632.232 L490.7398,632.5121 L492.6348,632.9171 L494.4701,632.8918 L496.3892,633.4692 L496.3892,633.4692 L496.4244,633.7231 L498.224,632.9198 L500.1266,632.8577 L502.0417,632.8861 L503.8837,632.3882 L505.7642,632.1672 L505.7862,632.1898 L507.6289,630.3336 L509.5718,628.5806 L511.4664,626.7778 L513.4532,625.0699 L515.1392,623.0526 " fill="none" style="stroke:#333333;stroke-width:1.5625;"/><polygon fill="#D9D9D9" points="571.3892,58.3333,571.3892,58.5523,581.1545,57.9017,590.9198,58.5347,600.6852,58.7497,610.4505,57.5902,620.2158,58.2524,629.9811,58.3333,629.9245,58.1965,630.5194,58.4544,631.1506,58.7996,631.657,58.8438,632.4117,59.4872,632.9274,59.5537,632.7252,59.47,633.1081,60.1167,633.5541,60.7896,633.6321,61.3101,633.9256,61.9198,634.1478,62.5,634.1367,62.5,634.2098,69.2384,634.2308,75.9767,634.3512,82.7151,634.3808,89.4534,634.1478,96.1918,634.3657,96.282,633.9854,96.8149,633.8084,97.4319,633.6408,98.0529,632.9401,98.453,632.9274,99.1381,633.0176,99.3557,632.2988,99.287,631.8198,99.7975,631.0939,99.7115,630.5613,100.0924,629.9811,100.3585,629.9811,101.131,620.2158,100.3077,610.4505,100.4681,600.6852,100.7112,590.9198,100.792,581.1545,100.3544,571.3892,100.3585,571.4273,100.4506,570.7239,99.9307,570.2485,99.9615,569.6943,99.8021,569.0912,99.5247,568.4429,99.1381,568.6396,99.2195,568.0439,98.4846,567.7455,97.8729,567.5113,97.2877,567.4477,96.7732,567.2225,96.1918,567.1543,96.1918,567.4591,89.4534,567.1619,82.7151,567.1034,75.9767,567.3018,69.2384,567.2225,62.5,567.0086,62.4114,567.3001,61.8418,567.9188,61.4077,568.0945,60.7901,568.4344,60.2406,568.4429,59.5537,568.4001,59.4505,569.0746,59.412,569.6999,59.255,570.1479,58.6699,570.7872,58.5467,571.3892,58.3333" style="stroke:#333333;stroke-width:1.0416666666666667;"/><text fill="#2E2E2E" font-family="Segoe Print" font-size="12.5" lengthAdjust="spacing" textLength="41.9253" x="579.7225" y="84.1959">Ollama</text><polygon fill="#D9D9D9" points="571.3892,585.1941,571.3892,585.4131,581.1545,584.7625,590.9198,585.3955,600.6852,585.6104,610.4505,584.451,620.2158,585.1132,629.9811,585.1941,629.9245,585.0573,630.5194,585.3152,631.1506,585.6604,631.657,585.7046,632.4117,586.348,632.9274,586.4145,632.7252,586.3308,633.1081,586.9775,633.5541,587.6504,633.6321,588.1709,633.9256,588.7806,634.1478,589.3608,634.1367,589.3608,634.2098,596.0991,634.2308,602.8375,634.3512,609.5759,634.3808,616.3142,634.1478,623.0526,634.3657,623.1428,633.9854,623.6757,633.8084,624.2927,633.6408,624.9136,632.9401,625.3138,632.9274,625.9988,633.0176,626.2165,632.2988,626.1478,631.8198,626.6582,631.0939,626.5723,630.5613,626.9532,629.9811,627.2192,629.9811,627.9917,620.2158,627.1685,610.4505,627.3289,600.6852,627.572,590.9198,627.6528,581.1545,627.2152,571.3892,627.2192,571.4273,627.3114,570.7239,626.7915,570.2485,626.8223,569.6943,626.6629,569.0912,626.3855,568.4429,625.9988,568.6396,626.0803,568.0439,625.3454,567.7455,624.7337,567.5113,624.1485,567.4477,623.634,567.2225,623.0526,567.1543,623.0526,567.4591,616.3142,567.1619,609.5759,567.1034,602.8375,567.3018,596.0991,567.2225,589.3608,567.0086,589.2722,567.3001,588.7025,567.9188,588.2685,568.0945,587.6509,568.4344,587.1014,568.4429,586.4145,568.4001,586.3113,569.0746,586.2728,569.6999,586.1157,570.1479,585.5307,570.7872,585.4074,571.3892,585.1941" style="stroke:#333333;stroke-width:1.0416666666666667;"/><text fill="#2E2E2E" font-family="Segoe Print" font-size="12.5" lengthAdjust="spacing" textLength="41.9253" x="579.7225" y="611.0567">Ollama</text><polygon fill="#333333" points="247.3835,158.367,247.4107,158.4348,249.4135,159.0668,251.5751,160.096,253.6851,160.9959,255.6249,161.4704,257.8002,162.5337,257.7902,162.5086,255.6619,163.2295,253.5841,164.0767,251.5414,165.0117,249.3777,165.6441,247.3835,166.7004,247.5195,166.8363,248.0621,165.7123,249.0017,164.9851,249.9896,164.3064,250.6958,163.346,251.5502,162.5337,251.567,162.5504,250.709,161.6925,249.9274,160.9109,249.1089,160.0924,248.3607,159.3442,247.3835,158.367" style="stroke:#333333;stroke-width:1.0416666666666667;"/><path d="M37.6272,162.5337 L37.6272,162.8256 L47.9132,161.9582 L58.1992,162.8021 L68.4852,163.0888 L78.7713,161.5429 L89.0573,162.4258 L99.3433,161.9413 L109.6293,162.0011 L119.9153,162.439 L130.2013,161.5735 L140.4874,163.3026 L150.7734,161.6583 L161.0594,162.259 L171.3454,163.1336 L181.6314,162.4146 L191.9174,162.6285 L202.2035,162.4893 L212.4895,162.7816 L222.7755,162.8658 L233.0615,163.3471 L243.3475,163.4657 L253.6335,162.5337 " fill="none" style="stroke:#333333;stroke-width:3.125;stroke-dasharray:2.0,2.0;"/><text fill="#2E2E2E" font-family="Segoe Print" font-size="12.5" lengthAdjust="spacing" textLength="10.5001" x="50.1272" y="134.5544">1.</text><text fill="#2E2E2E" font-family="Segoe Print" font-size="12.5" lengthAdjust="spacing" textLength="3.25" x="60.6273" y="134.5544">&#160;</text><text fill="#2E2E2E" font-family="Segoe Print" font-size="12.5" lengthAdjust="spacing" textLength="27.3502" x="63.8773" y="134.5544">Calls</text><text fill="#2E2E2E" font-family="Segoe Print" font-size="12.5" lengthAdjust="spacing" textLength="3.25" x="91.2275" y="134.5544">&#160;</text><text fill="#2E2E2E" font-family="Segoe Print" font-size="12.5" lengthAdjust="spacing" textLength="19.7876" x="94.4775" y="134.5544">API</text><text fill="#2E2E2E" font-family="Segoe Print" font-size="12.5" lengthAdjust="spacing" textLength="3.25" x="114.2652" y="134.5544">&#160;</text><text fill="#2E2E2E" font-family="Segoe Print" font-size="12.5" lengthAdjust="spacing" textLength="53.1754" x="117.5152" y="134.5544">endpoint</text><text fill="#2E2E2E" font-family="Segoe Print" font-size="12.5" lengthAdjust="spacing" textLength="25.2877" x="50.1272" y="151.5795">with</text><text fill="#2E2E2E" font-family="Segoe Print" font-size="12.5" lengthAdjust="spacing" textLength="3.25" x="75.4149" y="151.5795">&#160;</text><text fill="#2E2E2E" font-family="Segoe Print" font-size="12.5" lengthAdjust="spacing" textLength="7.0125" x="78.6649" y="151.5795">a</text><text fill="#2E2E2E" font-family="Segoe Print" font-size="12.5" lengthAdjust="spacing" textLength="3.25" x="85.6774" y="151.5795">&#160;</text><text fill="#2E2E2E" font-family="Segoe Print" font-size="12.5" lengthAdjust="spacing" textLength="16.9501" x="88.9275" y="151.5795">list</text><text fill="#2E2E2E" font-family="Segoe Print" font-size="12.5" lengthAdjust="spacing" textLength="3.25" x="105.8776" y="151.5795">&#160;</text><text fill="#2E2E2E" font-family="Segoe Print" font-size="12.5" lengthAdjust="spacing" textLength="11.8626" x="109.1276" y="151.5795">of</text><text fill="#2E2E2E" font-family="Segoe Print" font-size="12.5" lengthAdjust="spacing" textLength="3.25" x="120.9902" y="151.5795">&#160;</text><text fill="#2E2E2E" font-family="Segoe Print" font-size="12.5" lengthAdjust="spacing" textLength="33.1003" x="124.2402" y="151.5795">foods</text><polygon fill="#333333" points="271.3419,217.4173,271.369,217.485,269.2051,218.117,267.2001,219.1462,265.1434,220.0461,262.9166,220.5206,260.9252,221.5839,260.9152,221.5589,262.9535,222.2798,265.0424,223.127,267.1664,224.062,269.1694,224.6944,271.3419,225.7506,271.4778,225.8865,270.3538,224.7625,269.6267,224.0354,268.9479,223.3566,267.9875,222.3962,267.1752,221.5839,267.192,221.6007,268.0007,220.7428,268.8857,219.9611,269.7339,219.1426,270.6523,218.3944,271.3419,217.4173" style="stroke:#333333;stroke-width:1.0416666666666667;"/><polygon fill="none" points="500.058,221.8162,499.4473,222.6507,498.7249,223.873,497.6917,224.6968,496.606,225.1472,495.7403,225.1863,494.6277,224.623,493.5779,224.2549,492.7811,223.5077,492.3631,222.6522,492.1152,221.9711,491.8724,221.0814,491.4782,220.3157,491.7811,219.5682,492.0465,218.7494,493.0423,218.1017,493.743,217.2614,494.6102,216.9824,495.6411,216.7421,496.9632,216.8849,497.6873,217.2264,498.5292,217.3812,499.5529,218.4299,499.9097,219.5371,500.0648,220.2926,499.8892,221.5375" style="stroke:#333333;stroke-width:1.5625;"/><path d="M265.0919,221.5839 L265.0919,221.8758 L275.3687,221.0085 L285.6454,221.8524 L295.9222,222.139 L306.199,220.5931 L316.4757,221.476 L326.7525,220.9916 L337.0293,221.0513 L347.3061,221.4893 L357.5828,220.6237 L367.8596,222.3529 L378.1364,220.7085 L388.4131,221.3093 L398.6899,222.1839 L408.9667,221.4648 L419.2434,221.6787 L429.5202,221.5396 L439.797,221.8319 L450.0738,221.9161 L460.3505,222.3974 L470.6273,222.5159 L480.9041,222.5273 L491.1808,221.5839 " fill="none" style="stroke:#333333;stroke-width:3.125;"/><text fill="#2E2E2E" font-family="Segoe Print" font-size="12.5" lengthAdjust="spacing" textLength="10.5001" x="282.8002" y="193.6046">2.</text><text fill="#2E2E2E" font-family="Segoe Print" font-size="12.5" lengthAdjust="spacing" textLength="3.25" x="293.3003" y="193.6046">&#160;</text><text fill="#2E2E2E" font-family="Segoe Print" font-size="12.5" lengthAdjust="spacing" textLength="27.7252" x="296.5503" y="193.6046">Pulls</text><text fill="#2E2E2E" font-family="Segoe Print" font-size="12.5" lengthAdjust="spacing" textLength="3.25" x="324.2755" y="193.6046">&#160;</text><text fill="#2E2E2E" font-family="Segoe Print" font-size="12.5" lengthAdjust="spacing" textLength="19.8001" x="327.5255" y="193.6046">out</text><text fill="#2E2E2E" font-family="Segoe Print" font-size="12.5" lengthAdjust="spacing" textLength="3.25" x="347.3257" y="193.6046">&#160;</text><text fill="#2E2E2E" font-family="Segoe Print" font-size="12.5" lengthAdjust="spacing" textLength="27.1127" x="350.5757" y="193.6046">food</text><text fill="#2E2E2E" font-family="Segoe Print" font-size="12.5" lengthAdjust="spacing" textLength="3.25" x="377.6884" y="193.6046">&#160;</text><text fill="#2E2E2E" font-family="Segoe Print" font-size="12.5" lengthAdjust="spacing" textLength="43.2878" x="380.9384" y="193.6046">entities</text><text fill="#2E2E2E" font-family="Segoe Print" font-size="12.5" lengthAdjust="spacing" textLength="3.25" x="424.2263" y="193.6046">&#160;</text><text fill="#2E2E2E" font-family="Segoe Print" font-size="12.5" lengthAdjust="spacing" textLength="23.7627" x="427.4763" y="193.6046">that</text><text fill="#2E2E2E" font-family="Segoe Print" font-size="12.5" lengthAdjust="spacing" textLength="19.2251" x="282.8002" y="210.6297">are</text><text fill="#2E2E2E" font-family="Segoe Print" font-size="12.5" lengthAdjust="spacing" textLength="3.25" x="302.0253" y="210.6297">&#160;</text><text fill="#2E2E2E" font-family="Segoe Print" font-size="12.5" lengthAdjust="spacing" textLength="35.0002" x="305.2754" y="210.6297">found</text><text fill="#2E2E2E" font-family="Segoe Print" font-size="12.5" lengthAdjust="spacing" textLength="3.25" x="340.2756" y="210.6297">&#160;</text><text fill="#2E2E2E" font-family="Segoe Print" font-size="12.5" lengthAdjust="spacing" textLength="14.0626" x="343.5256" y="210.6297">by</text><text fill="#2E2E2E" font-family="Segoe Print" font-size="12.5" lengthAdjust="spacing" textLength="3.25" x="357.5882" y="210.6297">&#160;</text><text fill="#2E2E2E" font-family="Segoe Print" font-size="12.5" lengthAdjust="spacing" textLength="27.6752" x="360.8383" y="210.6297">their</text><text fill="#2E2E2E" font-family="Segoe Print" font-size="12.5" lengthAdjust="spacing" textLength="3.25" x="388.5135" y="210.6297">&#160;</text><text fill="#2E2E2E" font-family="Segoe Print" font-size="12.5" lengthAdjust="spacing" textLength="33.4752" x="391.7635" y="210.6297">name</text><polygon fill="#333333" points="49.0855,273.9932,49.1126,274.0609,46.9488,274.6929,44.9438,275.7221,42.8871,276.622,40.6602,277.0965,38.6689,278.1598,38.6588,278.1348,40.6972,278.8557,42.7861,279.7029,44.9101,280.6379,46.913,281.2703,49.0855,282.3265,49.2215,282.4624,48.0974,281.3384,47.3703,280.6113,46.6916,279.9325,45.7311,278.9721,44.9189,278.1598,44.9356,278.1766,45.7443,277.3187,46.6294,276.537,47.4776,275.7185,48.396,274.9703,49.0855,273.9932" style="stroke:#333333;stroke-width:1.0416666666666667;"/><path d="M42.8355,278.1598 L42.8355,278.4517 L53.1215,277.5844 L63.4076,278.4283 L73.6936,278.7149 L83.9796,277.169 L94.2656,278.0519 L104.5516,277.5675 L114.8376,277.6272 L125.1237,278.0652 L135.4097,277.1996 L145.6957,278.9288 L155.9817,277.2844 L166.2677,277.8852 L176.5537,278.7598 L186.8398,278.0407 L197.1258,278.2546 L207.4118,278.1155 L217.6978,278.4078 L227.9838,278.492 L238.2698,278.9733 L248.5559,279.0918 L258.8419,278.1598 " fill="none" style="stroke:#333333;stroke-width:3.125;"/><text fill="#2E2E2E" font-family="Segoe Print" font-size="12.5" lengthAdjust="spacing" textLength="10.5001" x="60.5439" y="252.6549">3.</text><text fill="#2E2E2E" font-family="Segoe Print" font-size="12.5" lengthAdjust="spacing" textLength="3.25" x="71.0439" y="252.6549">&#160;</text><text fill="#2E2E2E" font-family="monospace" font-size="12.5" lengthAdjust="spacing" textLength="22.5769" x="74.2939" y="253.3694">200</text><text fill="#2E2E2E" font-family="monospace" font-size="12.5" lengthAdjust="spacing" textLength="7.5256" x="96.8709" y="253.3694">&#160;</text><text fill="#2E2E2E" font-family="monospace" font-size="12.5" lengthAdjust="spacing" textLength="22.5769" x="104.3965" y="253.3694">OK:</text><text fill="#2E2E2E" font-family="monospace" font-size="12.5" lengthAdjust="spacing" textLength="7.5256" x="126.9734" y="253.3694">&#160;</text><text fill="#2E2E2E" font-family="monospace" font-size="12.5" lengthAdjust="spacing" textLength="52.6794" x="134.499" y="253.3694">Returns</text><text fill="#2E2E2E" font-family="monospace" font-size="12.5" lengthAdjust="spacing" textLength="7.5256" x="187.1785" y="253.3694">&#160;</text><text fill="#2E2E2E" font-family="monospace" font-size="12.5" lengthAdjust="spacing" textLength="30.1025" x="194.7041" y="253.3694">list</text><text fill="#2E2E2E" font-family="monospace" font-size="12.5" lengthAdjust="spacing" textLength="7.5256" x="224.8066" y="253.3694">&#160;</text><text fill="#2E2E2E" font-family="monospace" font-size="12.5" lengthAdjust="spacing" textLength="15.0513" x="232.3323" y="253.3694">of</text><text fill="#2E2E2E" font-family="monospace" font-size="12.5" lengthAdjust="spacing" textLength="37.6282" x="60.5439" y="267.9202">foods</text><polygon fill="#555555" points="14.5833,313.7557,14.5833,313.9747,24.9313,313.3241,35.2794,313.9571,45.6274,314.1721,55.9754,313.0126,66.3234,313.6748,76.6714,313.3115,87.0194,313.3562,97.3674,313.6847,107.7154,313.0355,118.0635,314.3324,128.4115,313.0992,138.7595,313.5497,149.1075,314.2057,159.4555,313.6664,169.8035,313.8268,180.1515,313.7224,190.4995,313.9417,200.8476,314.0048,211.1956,314.3658,221.5436,314.4547,231.8916,314.4633,242.2396,314.021,252.5876,314.2386,262.9356,314.4872,273.2836,313.0045,283.6317,314.4625,293.9797,313.4469,304.3277,314.3118,314.6757,313.2401,325.0237,313.6844,335.3717,314.5282,345.7197,313.705,356.0677,313.8654,366.4158,314.1085,376.7638,314.1893,387.1118,313.7517,397.4598,314.0549,407.8078,313.1595,418.1558,314.052,428.5038,314.3268,438.8518,314.2188,449.1999,314.3943,459.5479,313.2525,469.8959,313.0764,480.2439,313.1084,490.5919,313.6944,500.9399,313.551,511.2879,314.4655,521.6359,313.5738,531.984,313.3984,542.332,313.9935,552.68,313.0611,563.028,313.215,573.376,314.4317,583.724,314.2095,594.072,314.5208,604.42,313.4205,614.7681,314.0882,625.1161,314.3707,635.4641,313.2636,645.8121,313.6559,656.1601,313.887,666.5081,314.4346,676.8561,313.7557,676.8559,313.7543,677.47,314.006,678.0051,313.7488,678.5878,313.7979,679.24,314.2946,679.8024,314.2134,679.6353,314.0288,680.1651,314.5653,680.3387,314.7085,680.4722,314.8073,680.6963,315.0062,681.0228,315.3182,681.1297,315.4363,680.709,315.4621,680.6726,315.9125,680.1618,315.8389,680.1904,316.361,679.8024,316.4231,679.8282,316.5892,679.2262,316.5987,678.6264,316.6223,678.0734,316.947,677.4781,316.9997,676.8561,316.8807,676.8561,317.057,666.5081,317.1601,656.1601,316.745,645.8121,317.627,635.4641,317.042,625.1161,317.0605,614.7681,316.247,604.42,316.4586,594.072,317.4336,583.724,317.3284,573.376,316.836,563.028,316.5451,552.68,316.6527,542.332,316.166,531.984,317.3127,521.6359,317.6511,511.2879,317.429,500.9399,317.6046,490.5919,316.7383,480.2439,316.9716,469.8959,316.477,459.5479,317.1766,449.1999,317.1378,438.8518,317.4561,428.5038,316.6415,418.1558,316.7407,407.8078,317.3427,397.4598,317.4717,387.1118,316.3468,376.7638,316.6788,366.4158,317.0362,356.0677,316.2444,345.7197,317.2488,335.3717,317.1495,325.0237,316.7758,314.6757,317.0289,304.3277,317.6398,293.9797,316.5548,283.6317,317.2088,273.2836,317.1783,262.9356,317.0013,252.5876,317.0275,242.2396,316.9989,231.8916,316.2306,221.5436,316.4632,211.1956,316.4,200.8476,316.9472,190.4995,316.9725,180.1515,317.0492,169.8035,316.5776,159.4555,316.8104,149.1075,316.7555,138.7595,317.4816,128.4115,317.3251,118.0635,316.375,107.7154,316.8048,97.3674,316.2794,87.0194,317.1811,76.6714,317.5146,66.3234,317.448,55.9754,316.427,45.6274,317.364,35.2794,316.107,24.9313,317.0892,14.5833,316.8807,14.5674,316.778,13.9992,316.8224,13.4176,316.7801,12.8407,316.7681,12.1879,316.2676,11.6371,316.4231,11.7479,316.5455,11.4345,316.248,11.2317,316.0726,11.0791,315.9527,10.662,315.5406,10.4167,315.3182,10.4575,315.3633,10.7105,315.1522,10.9508,314.927,11.1487,314.6551,11.5586,314.6173,11.6371,314.2134,11.6046,314.0042,12.2564,314.3158,12.7823,313.8162,13.376,313.7534,13.9962,313.861,14.5833,313.7557" style="stroke:#555555;stroke-width:1.0416666666666667;"/><path d="M10.4167,313.7557 L10.4167,314.0476 L20.8949,313.1803 L31.3731,314.0242 L41.8513,314.3108 L52.3296,312.7649 L62.8078,313.6478 L73.286,313.1634 L83.7642,313.2231 L94.2424,313.6611 L104.7207,312.7955 L115.1989,314.5247 L125.6771,312.8803 L136.1553,313.481 L146.6335,314.3556 L157.1118,313.6366 L167.59,313.8505 L178.0682,313.7114 L188.5464,314.0037 L199.0246,314.0879 L209.5029,314.5692 L219.9811,314.6877 L230.4593,314.6991 L240.9375,314.1094 L251.4157,314.3996 L261.894,314.731 L272.3722,312.7541 L282.8504,314.6981 L293.3286,313.3439 L303.8069,314.4971 L314.2851,313.0682 L324.7633,313.6606 L335.2415,314.7857 L345.7197,313.688 L356.198,313.902 L366.6762,314.226 L377.1544,314.3338 L387.6326,313.7503 L398.1108,314.1546 L408.5891,312.9607 L419.0673,314.1507 L429.5455,314.5171 L440.0237,314.3731 L450.5019,314.6071 L460.9802,313.0848 L471.4584,312.8499 L481.9366,312.8927 L492.4148,313.6739 L502.893,313.4828 L513.3713,314.7021 L523.8495,313.5131 L534.3277,313.2793 L544.8059,314.0728 L555.2842,312.8296 L565.7624,313.0347 L576.2406,314.657 L586.7188,314.3608 L597.197,314.7758 L607.6753,313.3088 L618.1535,314.1991 L628.6317,314.5757 L639.1099,313.0996 L649.5881,313.6226 L660.0664,313.9307 L670.5446,314.6609 L681.0228,313.7557 " fill="#555555" style="stroke:#555555;stroke-width:1.0416666666666667;"/><path d="M10.4167,316.8807 L10.4167,317.1726 L20.8949,316.3053 L31.3731,317.1492 L41.8513,317.4358 L52.3296,315.8899 L62.8078,316.7728 L73.286,316.2884 L83.7642,316.3481 L94.2424,316.7861 L104.7207,315.9205 L115.1989,317.6497 L125.6771,316.0053 L136.1553,316.606 L146.6335,317.4806 L157.1118,316.7616 L167.59,316.9755 L178.0682,316.8364 L188.5464,317.1287 L199.0246,317.2129 L209.5029,317.6942 L219.9811,317.8127 L230.4593,317.8241 L240.9375,317.2344 L251.4157,317.5246 L261.894,317.856 L272.3722,315.8791 L282.8504,317.8231 L293.3286,316.4689 L303.8069,317.6221 L314.2851,316.1932 L324.7633,316.7856 L335.2415,317.9107 L345.7197,316.813 L356.198,317.027 L366.6762,317.351 L377.1544,317.4588 L387.6326,316.8753 L398.1108,317.2796 L408.5891,316.0857 L419.0673,317.2757 L429.5455,317.6421 L440.0237,317.4981 L450.5019,317.7321 L460.9802,316.2098 L471.4584,315.9749 L481.9366,316.0177 L492.4148,316.7989 L502.893,316.6078 L513.3713,317.8271 L523.8495,316.6381 L534.3277,316.4043 L544.8059,317.1978 L555.2842,315.9546 L565.7624,316.1597 L576.2406,317.782 L586.7188,317.4858 L597.197,317.9008 L607.6753,316.4338 L618.1535,317.3241 L628.6317,317.7007 L639.1099,316.2246 L649.5881,316.7476 L660.0664,317.0557 L670.5446,317.7859 L681.0228,316.8807 " fill="#555555" style="stroke:#555555;stroke-width:1.0416666666666667;"/><polygon fill="#555555" points="273.2672,296.9098,273.2672,297.1288,283.6176,296.4782,293.9679,297.1112,304.3183,297.3262,314.6687,296.1667,325.019,296.8289,335.3694,296.4656,345.7197,296.5104,356.0701,296.8388,366.4205,296.1897,376.7708,297.4865,387.1212,296.2533,397.4715,296.7038,407.8219,297.3598,418.1722,296.9098,418.1609,296.8823,418.7706,297.1758,419.3465,297.3877,419.9637,297.6993,420.561,297.9629,421.1185,298.1302,421.3064,298.208,421.5779,298.8086,421.8246,299.399,421.9324,299.9318,422.2436,300.5488,422.3389,301.0765,422.5827,301.0765,422.0885,306.5649,422.5745,312.0532,422.236,317.5416,422.5243,323.0299,422.3389,328.5183,422.1801,328.4525,422.0729,329.0984,422.0887,329.7953,421.591,330.2796,421.3964,330.8893,421.1185,331.4646,421.1635,331.5732,420.5846,331.8422,419.9395,331.9515,419.3889,332.2889,418.6854,332.2572,418.1722,332.6849,418.1722,332.9812,407.8219,333.256,397.4715,333.148,387.1212,333.3235,376.7708,332.1817,366.4205,332.0056,356.0701,332.0377,345.7197,332.6236,335.3694,332.4802,325.019,333.3948,314.6687,332.503,304.3183,332.3276,293.9679,332.9227,283.6176,331.9903,273.2672,332.6849,273.1982,332.5184,272.7642,332.649,272.1466,332.3366,271.5971,332.1883,270.8674,331.6054,270.3209,331.4646,270.4233,331.507,270.2663,330.9538,269.6812,330.2233,269.558,329.6841,269.385,329.1243,269.1006,328.5183,269.3269,328.5183,269.0991,323.0299,269.2612,317.5416,268.9083,312.0532,268.8654,306.5649,269.1006,301.0765,269.2621,301.1434,269.1146,300.392,269.752,299.9656,269.8991,299.3362,269.9909,298.6839,270.3209,298.1302,270.2739,298.0167,270.9712,298.0333,271.4597,297.546,272.1674,297.5878,272.6045,296.9766,273.2672,296.9098" style="stroke:#555555;stroke-width:2.0833333333333335;"/><text fill="#FFFFFF" font-family="Segoe Print" font-size="12.5" font-weight="bold" lengthAdjust="spacing" textLength="124.9883" x="280.5589" y="319.6474">Asynchronous tasks</text><polygon fill="#333333" points="588.1852,389.6519,588.2123,389.7196,590.2151,390.3516,592.3768,391.3808,594.4867,392.2807,596.4265,392.7552,598.6018,393.8185,598.5918,393.7935,596.4635,394.5144,594.3857,395.3616,592.343,396.2965,590.1793,396.929,588.1852,397.9852,588.3211,398.1211,588.8637,396.9971,589.8033,396.27,590.7912,395.5912,591.4974,394.6308,592.3518,393.8185,592.3686,393.8353,591.5106,392.9773,590.729,392.1957,589.9105,391.3772,589.1623,390.629,588.1852,389.6519" style="stroke:#333333;stroke-width:1.0416666666666667;"/><path d="M259.8835,393.8185 L259.8835,394.1104 L270.3383,393.2431 L280.793,394.087 L291.2478,394.3736 L301.7025,392.8277 L312.1572,393.7106 L322.612,393.2262 L333.0667,393.2859 L343.5214,393.7239 L353.9762,392.8583 L364.4309,394.5875 L374.8857,392.9431 L385.3404,393.5438 L395.7951,394.4184 L406.2499,393.6994 L416.7046,393.9133 L427.1594,393.7741 L437.6141,394.0665 L448.0688,394.1506 L458.5236,394.632 L468.9783,394.7505 L479.433,394.7619 L489.8878,394.1722 L500.3425,394.4624 L510.7973,394.7938 L521.252,392.8169 L531.7067,394.7609 L542.1615,393.4067 L552.6162,394.5599 L563.0709,393.131 L573.5257,393.7234 L583.9804,394.8485 L594.4352,393.8185 " fill="none" style="stroke:#333333;stroke-width:3.125;stroke-dasharray:2.0,2.0;"/><text fill="#2E2E2E" font-family="Segoe Print" font-size="12.5" lengthAdjust="spacing" textLength="10.5001" x="272.3835" y="365.8392">4.</text><text fill="#2E2E2E" font-family="Segoe Print" font-size="12.5" lengthAdjust="spacing" textLength="3.25" x="282.8836" y="365.8392">&#160;</text><text fill="#2E2E2E" font-family="Segoe Print" font-size="12.5" lengthAdjust="spacing" textLength="44.6753" x="286.1336" y="365.8392">Creates</text><text fill="#2E2E2E" font-family="Segoe Print" font-size="12.5" lengthAdjust="spacing" textLength="3.25" x="330.809" y="365.8392">&#160;</text><text fill="#2E2E2E" font-family="Segoe Print" font-size="12.5" lengthAdjust="spacing" textLength="7.0125" x="334.059" y="365.8392">a</text><text fill="#2E2E2E" font-family="Segoe Print" font-size="12.5" lengthAdjust="spacing" textLength="3.25" x="341.0715" y="365.8392">&#160;</text><text fill="#2E2E2E" font-family="Segoe Print" font-size="12.5" lengthAdjust="spacing" textLength="44.3003" x="344.3216" y="365.8392">prompt</text><text fill="#2E2E2E" font-family="Segoe Print" font-size="12.5" lengthAdjust="spacing" textLength="3.25" x="388.6219" y="365.8392">&#160;</text><text fill="#2E2E2E" font-family="Segoe Print" font-size="12.5" lengthAdjust="spacing" textLength="12.0751" x="391.8719" y="365.8392">to</text><text fill="#2E2E2E" font-family="Segoe Print" font-size="12.5" lengthAdjust="spacing" textLength="3.25" x="403.947" y="365.8392">&#160;</text><text fill="#2E2E2E" font-family="Segoe Print" font-size="12.5" lengthAdjust="spacing" textLength="19.6751" x="407.197" y="365.8392">ask</text><text fill="#2E2E2E" font-family="Segoe Print" font-size="12.5" lengthAdjust="spacing" textLength="3.25" x="426.8722" y="365.8392">&#160;</text><text fill="#2E2E2E" font-family="Segoe Print" font-size="12.5" lengthAdjust="spacing" textLength="17.0251" x="430.1222" y="365.8392">for</text><text fill="#2E2E2E" font-family="Segoe Print" font-size="12.5" lengthAdjust="spacing" textLength="3.25" x="447.1473" y="365.8392">&#160;</text><text fill="#2E2E2E" font-family="Segoe Print" font-size="12.5" lengthAdjust="spacing" textLength="19.2876" x="450.3974" y="365.8392">the</text><text fill="#2E2E2E" font-family="Segoe Print" font-size="12.5" lengthAdjust="spacing" textLength="45.5253" x="272.3835" y="382.8643">missing</text><text fill="#2E2E2E" font-family="Segoe Print" font-size="12.5" lengthAdjust="spacing" textLength="3.25" x="317.9089" y="382.8643">&#160;</text><text fill="#2E2E2E" font-family="Segoe Print" font-size="12.5" lengthAdjust="spacing" textLength="27.1127" x="321.1589" y="382.8643">food</text><text fill="#2E2E2E" font-family="Segoe Print" font-size="12.5" lengthAdjust="spacing" textLength="3.25" x="348.2716" y="382.8643">&#160;</text><text fill="#2E2E2E" font-family="Segoe Print" font-size="12.5" lengthAdjust="spacing" textLength="38.7003" x="351.5216" y="382.8643">details</text><polygon fill="#333333" points="271.3419,431.677,271.369,431.7447,269.2051,432.3767,267.2001,433.406,265.1434,434.3058,262.9166,434.7803,260.9252,435.8436,260.9152,435.8186,262.9535,436.5395,265.0424,437.3867,267.1664,438.3217,269.1694,438.9541,271.3419,440.0103,271.4778,440.1462,270.3538,439.0222,269.6267,438.2951,268.9479,437.6164,267.9875,436.6559,267.1752,435.8436,267.192,435.8604,268.0007,435.0025,268.8857,434.2208,269.7339,433.4024,270.6523,432.6541,271.3419,431.677" style="stroke:#333333;stroke-width:1.0416666666666667;"/><path d="M265.0919,435.8436 L265.0919,436.1356 L275.5466,435.2682 L286.0014,436.1121 L296.4561,436.3987 L306.9108,434.8528 L317.3656,435.7357 L327.8203,435.2513 L338.275,435.311 L348.7298,435.749 L359.1845,434.8834 L369.6393,436.6126 L380.094,434.9682 L390.5487,435.569 L401.0035,436.4436 L411.4582,435.7245 L421.9129,435.9384 L432.3677,435.7993 L442.8224,436.0916 L453.2772,436.1758 L463.7319,436.6571 L474.1866,436.7757 L484.6414,436.7871 L495.0961,436.1973 L505.5509,436.4875 L516.0056,436.819 L526.4603,434.842 L536.9151,436.786 L547.3698,435.4318 L557.8245,436.585 L568.2793,435.1561 L578.734,435.7485 L589.1888,436.8736 L599.6435,435.8436 " fill="none" style="stroke:#333333;stroke-width:3.125;"/><text fill="#2E2E2E" font-family="Segoe Print" font-size="12.5" lengthAdjust="spacing" textLength="10.5001" x="282.8002" y="424.8894">5.</text><text fill="#2E2E2E" font-family="Segoe Print" font-size="12.5" lengthAdjust="spacing" textLength="3.25" x="293.3003" y="424.8894">&#160;</text><text fill="#2E2E2E" font-family="Segoe Print" font-size="12.5" lengthAdjust="spacing" textLength="45.9378" x="296.5503" y="424.8894">Returns</text><text fill="#2E2E2E" font-family="Segoe Print" font-size="12.5" lengthAdjust="spacing" textLength="3.25" x="342.4881" y="424.8894">&#160;</text><text fill="#2E2E2E" font-family="Segoe Print" font-size="12.5" lengthAdjust="spacing" textLength="7.0125" x="345.7382" y="424.8894">a</text><text fill="#2E2E2E" font-family="Segoe Print" font-size="12.5" lengthAdjust="spacing" textLength="3.25" x="352.7507" y="424.8894">&#160;</text><text fill="#2E2E2E" font-family="Segoe Print" font-size="12.5" lengthAdjust="spacing" textLength="57.5629" x="356.0007" y="424.8894">response.</text><path d="M259.8835,494.8939 L259.8835,494.9912 L268.6335,494.7021 L277.3835,494.9834 L286.1335,495.0789 L294.8835,494.5636 L303.6335,494.8939 " fill="none" style="stroke:#333333;stroke-width:3.125;"/><path d="M303.6335,494.8939 L303.7309,494.8939 L303.4417,497.6022 L303.723,500.3105 L303.8186,503.0189 L303.3033,505.7272 L303.6335,508.4355 " fill="none" style="stroke:#333333;stroke-width:3.125;"/><path d="M260.9252,508.4355 L260.9252,508.5328 L269.4669,508.2437 L278.0085,508.525 L286.5502,508.6206 L295.0919,508.1053 L303.6335,508.4355 " fill="none" style="stroke:#333333;stroke-width:3.125;"/><polygon fill="#333333" points="271.3419,504.2689,271.369,504.3366,269.2051,504.9686,267.2001,505.9979,265.1434,506.8977,262.9166,507.3722,260.9252,508.4355,260.9152,508.4105,262.9535,509.1314,265.0424,509.9786,267.1664,510.9136,269.1694,511.546,271.3419,512.6022,271.4778,512.7381,270.3538,511.6141,269.6267,510.887,268.9479,510.2083,267.9875,509.2478,267.1752,508.4355,267.192,508.4523,268.0007,507.5944,268.8857,506.8127,269.7339,505.9943,270.6523,505.246,271.3419,504.2689" style="stroke:#333333;stroke-width:1.0416666666666667;"/><text fill="#2E2E2E" font-family="Segoe Print" font-size="12.5" lengthAdjust="spacing" textLength="10.5001" x="272.3835" y="466.9146">6.</text><text fill="#2E2E2E" font-family="Segoe Print" font-size="12.5" lengthAdjust="spacing" textLength="3.25" x="282.8836" y="466.9146">&#160;</text><text fill="#2E2E2E" font-family="Segoe Print" font-size="12.5" lengthAdjust="spacing" textLength="38.7628" x="286.1336" y="466.9146">Parses</text><text fill="#2E2E2E" font-family="Segoe Print" font-size="12.5" lengthAdjust="spacing" textLength="3.25" x="324.8964" y="466.9146">&#160;</text><text fill="#2E2E2E" font-family="Segoe Print" font-size="12.5" lengthAdjust="spacing" textLength="19.2876" x="328.1465" y="466.9146">the</text><text fill="#2E2E2E" font-family="Segoe Print" font-size="12.5" lengthAdjust="spacing" textLength="3.25" x="347.4341" y="466.9146">&#160;</text><text fill="#2E2E2E" font-family="Segoe Print" font-size="12.5" lengthAdjust="spacing" textLength="54.2129" x="350.6841" y="466.9146">response</text><text fill="#2E2E2E" font-family="Segoe Print" font-size="12.5" lengthAdjust="spacing" textLength="3.25" x="404.897" y="466.9146">&#160;</text><text fill="#2E2E2E" font-family="Segoe Print" font-size="12.5" lengthAdjust="spacing" textLength="22.4251" x="408.147" y="466.9146">and</text><text fill="#2E2E2E" font-family="Segoe Print" font-size="12.5" lengthAdjust="spacing" textLength="52.0629" x="272.3835" y="483.9397">validates</text><text fill="#2E2E2E" font-family="Segoe Print" font-size="12.5" lengthAdjust="spacing" textLength="3.25" x="324.4464" y="483.9397">&#160;</text><text fill="#2E2E2E" font-family="Segoe Print" font-size="12.5" lengthAdjust="spacing" textLength="13.7251" x="327.6964" y="483.9397">its</text><text fill="#2E2E2E" font-family="Segoe Print" font-size="12.5" lengthAdjust="spacing" textLength="3.25" x="341.4215" y="483.9397">&#160;</text><text fill="#2E2E2E" font-family="Segoe Print" font-size="12.5" lengthAdjust="spacing" textLength="45.0878" x="344.6716" y="483.9397">content</text><polygon fill="#333333" points="483.8892,563.3191,483.9163,563.3869,485.9191,564.0189,488.0808,565.0481,490.1907,565.948,492.1305,566.4225,494.3058,567.4858,494.2958,567.4607,492.1675,568.1816,490.0897,569.0288,488.0471,569.9638,485.8834,570.5962,483.8892,571.6524,484.0251,571.7884,484.5678,570.6644,485.5073,569.9372,486.4952,569.2585,487.2015,568.2981,488.0558,567.4858,488.0726,567.5025,487.2147,566.6446,486.433,565.8629,485.6146,565.0445,484.8663,564.2962,483.8892,563.3191" style="stroke:#333333;stroke-width:1.0416666666666667;"/><path d="M259.8835,567.4858 L259.8835,567.7777 L270.3497,566.9103 L280.8159,567.7542 L291.282,568.0409 L301.7482,566.495 L312.2144,567.3778 L322.6805,566.8934 L333.1467,566.9531 L343.6129,567.3911 L354.079,566.5255 L364.5452,568.2547 L375.0114,566.6104 L385.4775,567.2111 L395.9437,568.0857 L406.4099,567.3666 L416.876,567.5806 L427.3422,567.4414 L437.8084,567.7337 L448.2745,567.8179 L458.7407,568.2992 L469.2069,568.4178 L479.673,568.4292 L490.1392,567.4858 " fill="none" style="stroke:#333333;stroke-width:3.125;"/><text fill="#2E2E2E" font-family="Segoe Print" font-size="12.5" lengthAdjust="spacing" textLength="10.5001" x="272.3835" y="539.5065">7.</text><text fill="#2E2E2E" font-family="Segoe Print" font-size="12.5" lengthAdjust="spacing" textLength="3.25" x="282.8836" y="539.5065">&#160;</text><text fill="#2E2E2E" font-family="Segoe Print" font-size="12.5" lengthAdjust="spacing" textLength="97.7882" x="286.1336" y="539.5065">Persists/updates</text><text fill="#2E2E2E" font-family="Segoe Print" font-size="12.5" lengthAdjust="spacing" textLength="3.25" x="383.9219" y="539.5065">&#160;</text><text fill="#2E2E2E" font-family="Segoe Print" font-size="12.5" lengthAdjust="spacing" textLength="19.2876" x="387.1719" y="539.5065">the</text><text fill="#2E2E2E" font-family="Segoe Print" font-size="12.5" lengthAdjust="spacing" textLength="3.25" x="406.4595" y="539.5065">&#160;</text><text fill="#2E2E2E" font-family="Segoe Print" font-size="12.5" lengthAdjust="spacing" textLength="27.1127" x="409.7095" y="539.5065">food</text><text fill="#2E2E2E" font-family="Segoe Print" font-size="12.5" lengthAdjust="spacing" textLength="3.25" x="436.8223" y="539.5065">&#160;</text><text fill="#2E2E2E" font-family="Segoe Print" font-size="12.5" lengthAdjust="spacing" textLength="33.4002" x="440.0723" y="539.5065">entity</text><text fill="#2E2E2E" font-family="Segoe Print" font-size="12.5" lengthAdjust="spacing" textLength="25.2877" x="272.3835" y="556.5316">with</text><text fill="#2E2E2E" font-family="Segoe Print" font-size="12.5" lengthAdjust="spacing" textLength="3.25" x="297.6712" y="556.5316">&#160;</text><text fill="#2E2E2E" font-family="Segoe Print" font-size="12.5" lengthAdjust="spacing" textLength="19.2876" x="300.9212" y="556.5316">the</text><text fill="#2E2E2E" font-family="Segoe Print" font-size="12.5" lengthAdjust="spacing" textLength="3.25" x="320.2089" y="556.5316">&#160;</text><text fill="#2E2E2E" font-family="Segoe Print" font-size="12.5" lengthAdjust="spacing" textLength="45.5253" x="323.4589" y="556.5316">missing</text><text fill="#2E2E2E" font-family="Segoe Print" font-size="12.5" lengthAdjust="spacing" textLength="3.25" x="368.9842" y="556.5316">&#160;</text><text fill="#2E2E2E" font-family="Segoe Print" font-size="12.5" lengthAdjust="spacing" textLength="42.0503" x="372.2343" y="556.5316">details.</text><!--SRC=[LP11RzD048Nl-oiUoJcc54f2H92Qj0U4KAf6KI-zJEnflBAzQ-sCWV3hcNMgqiedxypxthptJclk6DAmblLf5WTjVM0dZGyz9UhGqP-VB497tlc_ZCkBYrV30vNDCSKXL9lOneJfG-sLdQDIxMyld422lRDjzQNlAIXsVVBXcDztc2uMj_F5mbMaT21XtAmnNLzjvhVhDvfjsr97MRF5zEPB_fpROpRxPf0bFXJOKDiAhk- -WqFLHn_qCVpsMeFGUb749pp5M8dRuUiiPfybBWlS3LbcgSUfQTMhPu7MP01ARE-M3eUJFR5F2DInCSnuRuIF1IOJgmJR7qlSimufo5k_oSIjLhYMKoZh54CSZ4tI25QhZ37ErZYVB41YKdCcz2bslKAZvMsCah8rEY-IUnllh5Z9j-AsU6xWgdYn9oIMFWRXudnedd-sg9HaJCOl2o2BzejQNutMNWLb36ejd9LZItEJSX8B9U-7_hoP8VyBEs5i-lMLpmSMxXy0]--></g></svg>