<svg xmlns="http://www.w3.org/2000/svg" xmlns:xlink="http://www.w3.org/1999/xlink" contentStyleType="text/css" height="947.9167px" preserveAspectRatio="none" style="width:800px;height:947px;background:#FFFFFF;" version="1.1" viewBox="0 0 800 947" width="800px" zoomAndPan="magnify"><defs/><g><path d="M37.5,101.4001 L37.7919,101.4001 L36.9246,111.7703 L37.7685,122.1405 L38.0551,132.5107 L36.5092,142.8809 L37.3921,153.2511 L36.9076,163.6213 L36.9674,173.9914 L37.4053,184.3616 L36.5398,194.7318 L38.2689,205.102 L36.6246,215.4722 L37.2253,225.8424 L38.0999,236.2126 L37.3809,246.5828 L37.5948,256.9529 L37.4556,267.3231 L37.748,277.6933 L37.8321,288.0635 L38.3135,298.4337 L38.432,308.8039 L38.4434,319.1741 L37.8536,329.5443 L38.1439,339.9145 L38.4753,350.2846 L36.4984,360.6548 L38.4424,371.025 L37.0882,381.3952 L38.2414,391.7654 L36.8125,402.1356 L37.4049,412.5058 L38.53,422.876 L37.4323,433.2462 L37.6463,443.6163 L37.9703,453.9865 L38.0781,464.3567 L37.4946,474.7269 L37.8989,485.0971 L36.705,495.4673 L37.895,505.8375 L38.2614,516.2077 L38.1174,526.5779 L38.3514,536.948 L36.8291,547.3182 L36.5942,557.6884 L36.6369,568.0586 L37.4182,578.4288 L37.227,588.799 L38.4464,599.1692 L37.2574,609.5394 L37.0235,619.9096 L37.817,630.2797 L36.5738,640.6499 L36.779,651.0201 L38.4013,661.3903 L38.1051,671.7605 L38.5201,682.1307 L37.0531,692.5009 L37.9433,702.8711 L38.32,713.2413 L36.8439,723.6114 L37.3669,733.9816 L37.675,744.3518 L38.4052,754.722 L37.4942,765.0922 L38.1425,775.4624 L36.7309,785.8326 L36.5594,796.2028 L38.1995,806.573 L36.5042,816.9431 L38.2069,827.3133 L37.787,837.6835 L37.5,848.0537 " fill="none" style="stroke:#555555;stroke-width:1.0416666666666667;stroke-dasharray:5.0,5.0;"/><path d="M245.7083,101.4001 L246.0002,101.4001 L245.1329,111.7703 L245.9768,122.1405 L246.2634,132.5107 L244.7175,142.8809 L245.6004,153.2511 L245.116,163.6213 L245.1757,173.9914 L245.6137,184.3616 L244.7481,194.7318 L246.4773,205.102 L244.8329,215.4722 L245.4336,225.8424 L246.3082,236.2126 L245.5892,246.5828 L245.8031,256.9529 L245.664,267.3231 L245.9563,277.6933 L246.0405,288.0635 L246.5218,298.4337 L246.6403,308.8039 L246.6517,319.1741 L246.062,329.5443 L246.3522,339.9145 L246.6836,350.2846 L244.7067,360.6548 L246.6507,371.025 L245.2965,381.3952 L246.4497,391.7654 L245.0208,402.1356 L245.6132,412.5058 L246.7383,422.876 L245.6406,433.2462 L245.8546,443.6163 L246.1786,453.9865 L246.2864,464.3567 L245.7029,474.7269 L246.1072,485.0971 L244.9133,495.4673 L246.1033,505.8375 L246.4697,516.2077 L246.3257,526.5779 L246.5597,536.948 L245.0374,547.3182 L244.8025,557.6884 L244.8453,568.0586 L245.6265,578.4288 L245.4354,588.799 L246.6547,599.1692 L245.4657,609.5394 L245.2319,619.9096 L246.0254,630.2797 L244.7822,640.6499 L244.9873,651.0201 L246.6096,661.3903 L246.3134,671.7605 L246.7284,682.1307 L245.2614,692.5009 L246.1517,702.8711 L246.5283,713.2413 L245.0522,723.6114 L245.5752,733.9816 L245.8833,744.3518 L246.6135,754.722 L245.7025,765.0922 L246.3508,775.4624 L244.9392,785.8326 L244.7677,796.2028 L246.4078,806.573 L244.7126,816.9431 L246.4152,827.3133 L245.9953,837.6835 L245.7083,848.0537 " fill="none" style="stroke:#555555;stroke-width:1.0416666666666667;stroke-dasharray:5.0,5.0;"/><path d="M485.0016,101.4001 L485.2935,101.4001 L484.4262,111.7703 L485.2701,122.1405 L485.5567,132.5107 L484.0108,142.8809 L484.8937,153.2511 L484.4093,163.6213 L484.469,173.9914 L484.9069,184.3616 L484.0414,194.7318 L485.7706,205.102 L484.1262,215.4722 L484.7269,225.8424 L485.6015,236.2126 L484.8825,246.5828 L485.0964,256.9529 L484.9572,267.3231 L485.2496,277.6933 L485.3337,288.0635 L485.8151,298.4337 L485.9336,308.8039 L485.945,319.1741 L485.3553,329.5443 L485.6455,339.9145 L485.9769,350.2846 L484,360.6548 L485.944,371.025 L484.5898,381.3952 L485.743,391.7654 L484.3141,402.1356 L484.9065,412.5058 L486.0316,422.876 L484.9339,433.2462 L485.1479,443.6163 L485.4719,453.9865 L485.5797,464.3567 L484.9962,474.7269 L485.4005,485.0971 L484.2066,495.4673 L485.3966,505.8375 L485.763,516.2077 L485.619,526.5779 L485.853,536.948 L484.3307,547.3182 L484.0958,557.6884 L484.1386,568.0586 L484.9198,578.4288 L484.7287,588.799 L485.948,599.1692 L484.759,609.5394 L484.5251,619.9096 L485.3187,630.2797 L484.0754,640.6499 L484.2806,651.0201 L485.9029,661.3903 L485.6067,671.7605 L486.0217,682.1307 L484.5547,692.5009 L485.4449,702.8711 L485.8216,713.2413 L484.3455,723.6114 L484.8685,733.9816 L485.1766,744.3518 L485.9068,754.722 L484.9958,765.0922 L485.6441,775.4624 L484.2325,785.8326 L484.061,796.2028 L485.7011,806.573 L484.0059,816.9431 L485.7085,827.3133 L485.2886,837.6835 L485.0016,848.0537 " fill="none" style="stroke:#555555;stroke-width:1.0416666666666667;stroke-dasharray:5.0,5.0;"/><path d="M589.1683,101.4001 L589.4602,101.4001 L588.5928,111.7703 L589.4367,122.1405 L589.7234,132.5107 L588.1775,142.8809 L589.0603,153.2511 L588.5759,163.6213 L588.6356,173.9914 L589.0736,184.3616 L588.208,194.7318 L589.9372,205.102 L588.2929,215.4722 L588.8936,225.8424 L589.7682,236.2126 L589.0491,246.5828 L589.2631,256.9529 L589.1239,267.3231 L589.4162,277.6933 L589.5004,288.0635 L589.9817,298.4337 L590.1003,308.8039 L590.1117,319.1741 L589.5219,329.5443 L589.8121,339.9145 L590.1436,350.2846 L588.1666,360.6548 L590.1107,371.025 L588.7565,381.3952 L589.9097,391.7654 L588.4807,402.1356 L589.0731,412.5058 L590.1983,422.876 L589.1006,433.2462 L589.3145,443.6163 L589.6386,453.9865 L589.7464,464.3567 L589.1629,474.7269 L589.5672,485.0971 L588.3733,495.4673 L589.5633,505.8375 L589.9297,516.2077 L589.7857,526.5779 L590.0197,536.948 L588.4973,547.3182 L588.2625,557.6884 L588.3052,568.0586 L589.0865,578.4288 L588.8953,588.799 L590.1147,599.1692 L588.9257,609.5394 L588.6918,619.9096 L589.4853,630.2797 L588.2421,640.6499 L588.4473,651.0201 L590.0696,661.3903 L589.7734,671.7605 L590.1884,682.1307 L588.7213,692.5009 L589.6116,702.8711 L589.9883,713.2413 L588.5122,723.6114 L589.0351,733.9816 L589.3433,744.3518 L590.0735,754.722 L589.1625,765.0922 L589.8107,775.4624 L588.3991,785.8326 L588.2276,796.2028 L589.8677,806.573 L588.1725,816.9431 L589.8752,827.3133 L589.4553,837.6835 L589.1683,848.0537 " fill="none" style="stroke:#555555;stroke-width:1.0416666666666667;stroke-dasharray:5.0,5.0;"/><text fill="#2E2E2E" font-family="Segoe Print" font-size="12.5" lengthAdjust="spacing" textLength="27.3377" x="20.8333" y="92.5293">User</text><polygon fill="none" points="46.0066,21.8187,44.785,23.4877,43.3402,25.9324,41.2739,27.5798,39.1025,28.4808,37.3711,28.559,35.1459,27.4322,33.0463,26.6962,31.4526,25.2017,30.6166,23.4907,30.1209,22.1284,29.6352,20.349,28.8469,18.8178,29.4527,17.3227,29.9834,15.685,31.9751,14.3898,33.3764,12.7092,35.1108,12.1511,37.1727,11.6705,39.8169,11.956,41.2651,12.639,42.9489,12.9486,44.9963,15.0462,45.71,17.2606,46.02,18.7715,45.6688,21.2613" style="stroke:#333333;stroke-width:1.0416666666666667;"/><path d="M37.6272,28.125 L37.8218,28.125 L37.2436,33.75 L37.8062,39.375 L37.9973,45 L36.9666,50.625 L37.6272,56.25 M24.0855,36.4583 L24.0855,36.3864 L29.5022,36.0634 L34.9189,36.1032 L40.3355,36.3952 L45.7522,35.8182 L51.1689,36.4583 M37.6272,56.25 L38.0146,56.5857 L34.4778,58.9928 L32.0721,62.3801 L29.8044,65.8869 L26.7338,68.698 L24.0855,71.875 M37.6272,56.25 L37.6749,56.2914 L40.3132,59.3556 L43.1688,62.6083 L45.9195,65.77 L48.8703,69.1052 L51.1689,71.875 " fill="none" style="stroke:#333333;stroke-width:1.0416666666666667;"/><text fill="#2E2E2E" font-family="Segoe Print" font-size="12.5" lengthAdjust="spacing" textLength="27.3377" x="20.8333" y="865.583">User</text><polygon fill="none" points="46.0066,885.8558,44.785,887.5249,43.3402,889.9695,41.2739,891.617,39.1025,892.5179,37.3711,892.5961,35.1459,891.4694,33.0463,890.7333,31.4526,889.2388,30.6166,887.5279,30.1209,886.1656,29.6352,884.3862,28.8469,882.8549,29.4527,881.3599,29.9834,879.7222,31.9751,878.4269,33.3764,876.7463,35.1108,876.1882,37.1727,875.7077,39.8169,875.9932,41.2651,876.6762,42.9489,876.9858,44.9963,879.0834,45.71,881.2977,46.02,882.8086,45.6688,885.2984" style="stroke:#333333;stroke-width:1.0416666666666667;"/><path d="M37.6272,892.1622 L37.8218,892.1622 L37.2436,897.7872 L37.8062,903.4122 L37.9973,909.0372 L36.9666,914.6622 L37.6272,920.2872 M24.0855,900.4955 L24.0855,900.4235 L29.5022,900.1006 L34.9189,900.1404 L40.3355,900.4324 L45.7522,899.8553 L51.1689,900.4955 M37.6272,920.2872 L38.0146,920.6229 L34.4778,923.0299 L32.0721,926.4172 L29.8044,929.9241 L26.7338,932.7351 L24.0855,935.9122 M37.6272,920.2872 L37.6749,920.3285 L40.3132,923.3928 L43.1688,926.6454 L45.9195,929.8072 L48.8703,933.1423 L51.1689,935.9122 " fill="none" style="stroke:#333333;stroke-width:1.0416666666666667;"/><polygon fill="#88E788" points="218.625,58.3333,218.625,58.5523,229.6284,57.9017,240.6318,58.5347,251.6351,58.7497,262.6385,57.5902,273.6419,58.3333,273.6316,58.3084,274.1745,58.4406,274.7695,58.6985,275.4006,59.0437,275.9071,59.0879,276.5882,59.5537,276.7658,59.6273,276.6301,60.0592,277.0129,60.706,277.459,61.3789,277.537,61.8993,277.8086,62.5,277.8323,62.5,277.7975,69.2384,277.8706,75.9767,277.8916,82.7151,278.012,89.4534,277.8086,96.1918,278.0239,96.281,277.7824,96.8713,277.4021,97.4041,277.2251,98.0212,277.0575,98.6421,276.5882,99.1381,276.4924,98.9067,276.0891,99.5998,275.3703,99.5311,274.8914,100.0415,274.1654,99.9556,273.6419,100.3585,273.6419,100.2871,262.6385,101.131,251.6351,100.3077,240.6318,100.4681,229.6284,100.7112,218.625,100.3585,218.6803,100.492,218.0352,100.1131,217.4846,99.9624,216.7812,99.4426,216.3058,99.4734,215.6787,99.1381,215.8546,99.2109,215.5772,98.6079,215.3872,98.041,214.7915,97.3061,214.4932,96.6944,214.4583,96.1918,214.2426,96.1918,214.4379,89.4534,214.3901,82.7151,214.6949,75.9767,214.3977,69.2384,214.4583,62.5,214.3483,62.4544,214.7756,61.9411,214.7326,61.2329,215.024,60.6633,215.6428,60.2292,215.6787,59.5537,215.7366,59.6935,216.3656,59.5453,216.8145,58.9623,217.4889,58.9239,218.1142,58.7668,218.625,58.3333" style="stroke:#333333;stroke-width:1.0416666666666667;"/><text fill="#2E2E2E" font-family="Segoe Print" font-size="12.5" lengthAdjust="spacing" textLength="38.3503" x="226.9583" y="84.1959">Spring</text><polygon fill="#88E788" points="218.625,847.012,218.625,847.231,229.6284,846.5805,240.6318,847.2134,251.6351,847.4284,262.6385,846.2689,273.6419,847.012,273.6316,846.9871,274.1745,847.1193,274.7695,847.3772,275.4006,847.7224,275.9071,847.7666,276.5882,848.2324,276.7658,848.306,276.6301,848.7379,277.0129,849.3847,277.459,850.0576,277.537,850.5781,277.8086,851.1787,277.8323,851.1787,277.7975,857.9171,277.8706,864.6554,277.8916,871.3938,278.012,878.1321,277.8086,884.8705,278.0239,884.9597,277.7824,885.55,277.4021,886.0828,277.2251,886.6999,277.0575,887.3208,276.5882,887.8168,276.4924,887.5854,276.0891,888.2785,275.3703,888.2098,274.8914,888.7202,274.1654,888.6343,273.6419,889.0372,273.6419,888.9658,262.6385,889.8097,251.6351,888.9864,240.6318,889.1468,229.6284,889.3899,218.625,889.0372,218.6803,889.1707,218.0352,888.7918,217.4846,888.6411,216.7812,888.1213,216.3058,888.1521,215.6787,887.8168,215.8546,887.8896,215.5772,887.2866,215.3872,886.7197,214.7915,885.9848,214.4932,885.3731,214.4583,884.8705,214.2426,884.8705,214.4379,878.1321,214.3901,871.3938,214.6949,864.6554,214.3977,857.9171,214.4583,851.1787,214.3483,851.1331,214.7756,850.6198,214.7326,849.9116,215.024,849.342,215.6428,848.9079,215.6787,848.2324,215.7366,848.3722,216.3656,848.224,216.8145,847.641,217.4889,847.6026,218.1142,847.4455,218.625,847.012" style="stroke:#333333;stroke-width:1.0416666666666667;"/><text fill="#2E2E2E" font-family="Segoe Print" font-size="12.5" lengthAdjust="spacing" textLength="38.3503" x="226.9583" y="872.8746">Spring</text><text fill="#2E2E2E" font-family="Segoe Print" font-size="12.5" lengthAdjust="spacing" textLength="17.2501" x="473.2516" y="92.5293">DB</text><path d="M466.2516,36.4583 L466.2516,36.4583 L466.3194,36.5281 L467.9929,34.4979 L470.064,32.8767 L472.0056,31.1223 L473.5214,28.9299 L475.6266,27.3438 L475.6217,27.3081 L477.4744,26.8878 L479.3522,26.6471 L481.2473,26.5312 L483.0826,25.985 L485.0016,26.0417 L485.0016,26.0417 L485.0369,26.2955 L486.8365,26.0131 L488.739,26.4718 L490.6541,27.021 L492.4961,27.044 L494.3766,27.3438 L494.3986,27.3664 L496.2413,29.1561 L498.1842,31.0488 L500.0788,32.8919 L502.0656,34.8298 L503.7516,36.4583 L504.373,36.4583 L504.3806,41.875 L503.9874,47.2917 L504.1809,52.7083 L504.4018,58.125 L503.7516,63.5417 L503.7516,63.5417 L503.5189,63.3023 L502.0956,65.5898 L499.9059,67.0891 L498.2989,69.1876 L496.0919,70.669 L494.3766,72.6563 L494.3722,72.6248 L492.5488,73.2567 L490.6235,73.1547 L488.7583,73.4858 L486.8982,73.8532 L485.0016,73.9583 L485.0016,73.9583 L485.0281,74.1492 L483.1264,73.6961 L481.2699,73.5692 L479.3402,72.9146 L477.5197,73.0471 L475.6266,72.6563 L475.8035,72.8382 L473.8951,70.9809 L472.0744,69.2139 L469.8457,67.0271 L467.9161,65.1481 L466.2516,63.5417 L465.6762,63.5417 L466.1971,58.125 L466.0696,52.7083 L466.8825,47.2917 L466.0899,41.875 L466.2516,36.4583 " fill="#B5C7EB" style="stroke:#333333;stroke-width:1.5625;"/><path d="M466.2516,36.4583 L466.2516,36.4583 L466.3194,36.5281 L467.9929,38.1437 L470.064,40.1683 L472.0056,42.0598 L473.5214,43.5132 L475.6266,45.5729 L475.6217,45.5373 L477.4744,45.6378 L479.3522,45.9179 L481.2473,46.3229 L483.0826,46.2975 L485.0016,46.875 L485.0016,46.875 L485.0369,47.1289 L486.8365,46.3256 L488.739,46.2635 L490.6541,46.2918 L492.4961,45.794 L494.3766,45.5729 L494.3986,45.5956 L496.2413,43.7394 L498.1842,41.9863 L500.0788,40.1835 L502.0656,38.4757 L503.7516,36.4583 " fill="none" style="stroke:#333333;stroke-width:1.5625;"/><text fill="#2E2E2E" font-family="Segoe Print" font-size="12.5" lengthAdjust="spacing" textLength="17.2501" x="473.2516" y="865.583">DB</text><path d="M466.2516,884.8705 L466.2516,884.8705 L466.3194,884.9403 L467.9929,882.91 L470.064,881.2888 L472.0056,879.5344 L473.5214,877.342 L475.6266,875.7559 L475.6217,875.7203 L477.4744,875.2999 L479.3522,875.0592 L481.2473,874.9434 L483.0826,874.3972 L485.0016,874.4538 L485.0016,874.4538 L485.0369,874.7077 L486.8365,874.4252 L488.739,874.884 L490.6541,875.4331 L492.4961,875.4562 L494.3766,875.7559 L494.3986,875.7786 L496.2413,877.5682 L498.1842,879.461 L500.0788,881.304 L502.0656,883.242 L503.7516,884.8705 L504.373,884.8705 L504.3806,890.2872 L503.9874,895.7038 L504.1809,901.1205 L504.4018,906.5372 L503.7516,911.9538 L503.7516,911.9538 L503.5189,911.7144 L502.0956,914.002 L499.9059,915.5012 L498.2989,917.5998 L496.0919,919.0812 L494.3766,921.0684 L494.3722,921.037 L492.5488,921.6689 L490.6235,921.5669 L488.7583,921.8979 L486.8982,922.2654 L485.0016,922.3705 L485.0016,922.3705 L485.0281,922.5614 L483.1264,922.1083 L481.2699,921.9814 L479.3402,921.3268 L477.5197,921.4592 L475.6266,921.0684 L475.8035,921.2504 L473.8951,919.3931 L472.0744,917.6261 L469.8457,915.4393 L467.9161,913.5603 L466.2516,911.9538 L465.6762,911.9538 L466.1971,906.5372 L466.0696,901.1205 L466.8825,895.7038 L466.0899,890.2872 L466.2516,884.8705 " fill="#B5C7EB" style="stroke:#333333;stroke-width:1.5625;"/><path d="M466.2516,884.8705 L466.2516,884.8705 L466.3194,884.9403 L467.9929,886.5559 L470.064,888.5805 L472.0056,890.4719 L473.5214,891.9254 L475.6266,893.9851 L475.6217,893.9494 L477.4744,894.0499 L479.3522,894.3301 L481.2473,894.7351 L483.0826,894.7097 L485.0016,895.2872 L485.0016,895.2872 L485.0369,895.541 L486.8365,894.7377 L488.739,894.6756 L490.6541,894.704 L492.4961,894.2062 L494.3766,893.9851 L494.3986,894.0077 L496.2413,892.1516 L498.1842,890.3985 L500.0788,888.5957 L502.0656,886.8878 L503.7516,884.8705 " fill="none" style="stroke:#333333;stroke-width:1.5625;"/><polygon fill="#D9D9D9" points="560.0016,58.3333,560.0016,58.5523,569.7669,57.9017,579.5323,58.5347,589.2976,58.7497,599.0629,57.5902,608.8282,58.2524,618.5936,58.3333,618.5369,58.1965,619.1319,58.4544,619.763,58.7996,620.2695,58.8438,621.0242,59.4872,621.5398,59.5537,621.3377,59.47,621.7205,60.1167,622.1666,60.7896,622.2446,61.3101,622.538,61.9198,622.7602,62.5,622.7491,62.5,622.8222,69.2384,622.8433,75.9767,622.9636,82.7151,622.9932,89.4534,622.7602,96.1918,622.9781,96.282,622.5978,96.8149,622.4208,97.4319,622.2533,98.0529,621.5526,98.453,621.5398,99.1381,621.63,99.3557,620.9112,99.287,620.4323,99.7975,619.7063,99.7115,619.1737,100.0924,618.5936,100.3585,618.5936,101.131,608.8282,100.3077,599.0629,100.4681,589.2976,100.7112,579.5323,100.792,569.7669,100.3544,560.0016,100.3585,560.0398,100.4506,559.3363,99.9307,558.8609,99.9615,558.3067,99.8021,557.7037,99.5247,557.0553,99.1381,557.252,99.2195,556.6563,98.4846,556.358,97.8729,556.1238,97.2877,556.0601,96.7732,555.8349,96.1918,555.7667,96.1918,556.0715,89.4534,555.7743,82.7151,555.7158,75.9767,555.9142,69.2384,555.8349,62.5,555.621,62.4114,555.9125,61.8418,556.5313,61.4077,556.7069,60.7901,557.0469,60.2406,557.0553,59.5537,557.0126,59.4505,557.687,59.412,558.3123,59.255,558.7603,58.6699,559.3996,58.5467,560.0016,58.3333" style="stroke:#333333;stroke-width:1.0416666666666667;"/><text fill="#2E2E2E" font-family="Segoe Print" font-size="12.5" lengthAdjust="spacing" textLength="41.9253" x="568.3349" y="84.1959">Ollama</text><polygon fill="#D9D9D9" points="560.0016,847.012,560.0016,847.231,569.7669,846.5805,579.5323,847.2134,589.2976,847.4284,599.0629,846.2689,608.8282,846.9311,618.5936,847.012,618.5369,846.8752,619.1319,847.1331,619.763,847.4783,620.2695,847.5225,621.0242,848.166,621.5398,848.2324,621.3377,848.1487,621.7205,848.7954,622.1666,849.4683,622.2446,849.9888,622.538,850.5985,622.7602,851.1787,622.7491,851.1787,622.8222,857.9171,622.8433,864.6554,622.9636,871.3938,622.9932,878.1321,622.7602,884.8705,622.9781,884.9607,622.5978,885.4936,622.4208,886.1106,622.2533,886.7316,621.5526,887.1317,621.5398,887.8168,621.63,888.0344,620.9112,887.9657,620.4323,888.4762,619.7063,888.3902,619.1737,888.7711,618.5936,889.0372,618.5936,889.8097,608.8282,888.9864,599.0629,889.1468,589.2976,889.3899,579.5323,889.4707,569.7669,889.0331,560.0016,889.0372,560.0398,889.1293,559.3363,888.6095,558.8609,888.6402,558.3067,888.4808,557.7037,888.2034,557.0553,887.8168,557.252,887.8982,556.6563,887.1633,556.358,886.5516,556.1238,885.9664,556.0601,885.4519,555.8349,884.8705,555.7667,884.8705,556.0715,878.1321,555.7743,871.3938,555.7158,864.6554,555.9142,857.9171,555.8349,851.1787,555.621,851.0901,555.9125,850.5205,556.5313,850.0864,556.7069,849.4688,557.0469,848.9193,557.0553,848.2324,557.0126,848.1292,557.687,848.0907,558.3123,847.9337,558.7603,847.3487,559.3996,847.2254,560.0016,847.012" style="stroke:#333333;stroke-width:1.0416666666666667;"/><text fill="#2E2E2E" font-family="Segoe Print" font-size="12.5" lengthAdjust="spacing" textLength="41.9253" x="568.3349" y="872.8746">Ollama</text><polygon fill="#555555" points="14.5833,139.0793,14.5833,139.2983,24.9742,138.6478,35.3651,139.2807,45.7559,139.4957,56.1468,138.3362,66.5376,138.9984,76.9285,138.6351,87.3194,138.6799,97.7102,139.0083,108.1011,138.3592,118.492,139.6561,128.8828,138.4228,139.2737,138.8733,149.6645,139.5293,160.0554,138.99,170.4463,139.1504,180.8371,139.0461,191.228,139.2653,201.6189,139.3284,212.0097,139.6894,222.4006,139.7784,232.7914,139.7869,243.1823,139.3446,253.5732,139.5622,263.964,139.8108,274.3549,138.3281,284.7458,139.7861,295.1366,138.7705,305.5275,139.6354,315.9183,138.5637,326.3092,139.008,336.7001,139.8519,347.0909,139.0286,357.4818,139.189,367.8727,139.4321,378.2635,139.5129,388.6544,139.0753,399.0452,139.3785,409.4361,138.4831,419.827,139.3756,430.2178,139.6504,440.6087,139.5424,450.9996,139.7179,461.3904,138.5761,471.7813,138.4,482.1721,138.4321,492.563,139.018,502.9539,138.8746,513.3447,139.7891,523.7356,138.8974,534.1265,138.722,544.5173,139.3171,554.9082,138.3847,565.299,138.5386,575.6899,139.7553,586.0808,139.5332,596.4716,139.8444,606.8625,138.7441,617.2534,139.4118,627.6442,139.6944,638.0351,138.5873,648.4259,138.9795,658.8168,139.2106,669.2077,139.7583,679.5985,139.075,689.9894,139.5612,700.3802,138.5025,710.7711,138.3739,721.162,139.6039,731.5528,138.3325,741.9437,139.6095,752.3346,139.2946,762.7254,138.8003,773.1163,138.7108,783.5071,139.0793,783.5316,139.2367,784.0805,139.0682,784.7172,139.4655,785.2455,139.1643,785.8971,139.6573,786.4534,139.537,786.5663,139.6617,786.7546,139.821,786.9526,139.9911,787.355,140.3869,787.5727,140.5788,787.6738,140.6418,787.7133,140.6854,787.4922,140.9318,787.1553,141.0503,787.1085,141.4892,786.7336,141.5656,786.4534,141.7467,786.4626,141.8059,785.8317,141.6295,785.2533,141.7907,784.7139,142.2034,784.1193,142.2603,783.5071,142.2043,783.5071,142.1596,773.1163,141.8688,762.7254,141.9763,752.3346,141.4896,741.9437,142.6364,731.5528,142.9747,721.162,142.7527,710.7711,142.9282,700.3802,142.0619,689.9894,142.2952,679.5985,141.8006,669.2077,142.5002,658.8168,142.4614,648.4259,142.7798,638.0351,141.9651,627.6442,142.0643,617.2534,142.6663,606.8625,142.7953,596.4716,141.6705,586.0808,142.0024,575.6899,142.3598,565.299,141.568,554.9082,142.5725,544.5173,142.4731,534.1265,142.0994,523.7356,142.3525,513.3447,142.9634,502.9539,141.8784,492.563,142.5325,482.1721,142.5019,471.7813,142.3249,461.3904,142.3511,450.9996,142.3226,440.6087,141.5542,430.2178,141.7868,419.827,141.7236,409.4361,142.2708,399.0452,142.2961,388.6544,142.3728,378.2635,141.9012,367.8727,142.134,357.4818,142.0791,347.0909,142.8052,336.7001,142.6487,326.3092,141.6986,315.9183,142.1284,305.5275,141.6031,295.1366,142.5047,284.7458,142.8382,274.3549,142.7716,263.964,141.7506,253.5732,142.6876,243.1823,141.4306,232.7914,142.4128,222.4006,141.8926,212.0097,142.3051,201.6189,142.4547,191.228,142.6961,180.8371,141.4544,170.4463,142.6996,160.0554,142.3899,149.6645,142.5745,139.2737,142.9833,128.8828,142.2101,118.492,142.3869,108.1011,142.4267,97.7102,142.4098,87.3194,142.2035,76.9285,142.9447,66.5376,141.5692,56.1468,142.7932,45.7559,141.5543,35.3651,141.6415,24.9742,142.246,14.5833,142.2043,14.5848,142.214,13.9678,141.9437,13.4269,142.1632,12.8214,141.9671,12.265,142.0876,11.6371,141.7467,11.7925,141.9184,11.2885,141.4103,11.0562,141.2023,10.8747,141.0505,10.7436,140.9543,10.4167,140.6418,10.5106,140.7456,10.7309,140.4984,10.8251,140.1119,11.2972,140.1427,11.5407,139.9211,11.6371,139.537,11.6345,139.5208,12.2136,139.3634,12.7942,139.2162,13.3934,139.1888,14.0014,139.218,14.5833,139.0793" style="stroke:#555555;stroke-width:1.0416666666666667;"/><path d="M10.4167,139.0793 L10.4167,139.3713 L20.7801,138.5039 L31.1435,139.3478 L41.507,139.6345 L51.8704,138.0885 L62.2338,138.9714 L72.5972,138.487 L82.9607,138.5467 L93.3241,138.9847 L103.6875,138.1191 L114.051,139.8483 L124.4144,138.204 L134.7778,138.8047 L145.1412,139.6793 L155.5047,138.9602 L165.8681,139.1741 L176.2315,139.035 L186.595,139.3273 L196.9584,139.4115 L207.3218,139.8928 L217.6852,140.0114 L228.0487,140.0228 L238.4121,139.433 L248.7755,139.7232 L259.139,140.0547 L269.5024,138.0777 L279.8658,140.0217 L290.2292,138.6675 L300.5927,139.8208 L310.9561,138.3918 L321.3195,138.9842 L331.683,140.1094 L342.0464,139.0117 L352.4098,139.2256 L362.7732,139.5497 L373.1367,139.6574 L383.5001,139.0739 L393.8635,139.4783 L404.227,138.2843 L414.5904,139.4743 L424.9538,139.8407 L435.3172,139.6968 L445.6807,139.9308 L456.0441,138.4084 L466.4075,138.1735 L476.771,138.2163 L487.1344,138.9976 L497.4978,138.8064 L507.8612,140.0258 L518.2247,138.8367 L528.5881,138.6029 L538.9515,139.3964 L549.315,138.1532 L559.6784,138.3583 L570.0418,139.9807 L580.4052,139.6844 L590.7687,140.0995 L601.1321,138.6324 L611.4955,139.5227 L621.859,139.8994 L632.2224,138.4232 L642.5858,138.9462 L652.9492,139.2543 L663.3127,139.9846 L673.6761,139.0735 L684.0395,139.7218 L694.403,138.3102 L704.7664,138.1387 L715.1298,139.7788 L725.4932,138.0836 L735.8567,139.7862 L746.2201,139.3663 L756.5835,138.7072 L766.947,138.588 L777.3104,139.7165 L787.6738,139.0793 " fill="#555555" style="stroke:#555555;stroke-width:1.0416666666666667;"/><path d="M10.4167,142.2043 L10.4167,142.4963 L20.7801,141.6289 L31.1435,142.4728 L41.507,142.7595 L51.8704,141.2135 L62.2338,142.0964 L72.5972,141.612 L82.9607,141.6717 L93.3241,142.1097 L103.6875,141.2441 L114.051,142.9733 L124.4144,141.329 L134.7778,141.9297 L145.1412,142.8043 L155.5047,142.0852 L165.8681,142.2991 L176.2315,142.16 L186.595,142.4523 L196.9584,142.5365 L207.3218,143.0178 L217.6852,143.1364 L228.0487,143.1478 L238.4121,142.558 L248.7755,142.8482 L259.139,143.1797 L269.5024,141.2027 L279.8658,143.1467 L290.2292,141.7925 L300.5927,142.9458 L310.9561,141.5168 L321.3195,142.1092 L331.683,143.2344 L342.0464,142.1367 L352.4098,142.3506 L362.7732,142.6747 L373.1367,142.7824 L383.5001,142.1989 L393.8635,142.6033 L404.227,141.4093 L414.5904,142.5993 L424.9538,142.9657 L435.3172,142.8218 L445.6807,143.0558 L456.0441,141.5334 L466.4075,141.2985 L476.771,141.3413 L487.1344,142.1226 L497.4978,141.9314 L507.8612,143.1508 L518.2247,141.9617 L528.5881,141.7279 L538.9515,142.5214 L549.315,141.2782 L559.6784,141.4833 L570.0418,143.1057 L580.4052,142.8094 L590.7687,143.2245 L601.1321,141.7574 L611.4955,142.6477 L621.859,143.0244 L632.2224,141.5482 L642.5858,142.0712 L652.9492,142.3793 L663.3127,143.1096 L673.6761,142.1985 L684.0395,142.8468 L694.403,141.4352 L704.7664,141.2637 L715.1298,142.9038 L725.4932,141.2086 L735.8567,142.9112 L746.2201,142.4913 L756.5835,141.8322 L766.947,141.713 L777.3104,142.8415 L787.6738,142.2043 " fill="#555555" style="stroke:#555555;stroke-width:1.0416666666666667;"/><polygon fill="#555555" points="374.793,122.2335,374.793,122.4524,384.4939,121.8019,394.1948,122.4348,403.8957,122.6498,413.5966,121.4903,423.2974,122.2335,423.2871,122.2085,423.83,122.3407,424.425,122.5986,425.0562,122.9438,425.5626,122.988,426.2437,123.4538,426.4213,123.5274,426.2856,123.9593,426.6684,124.6061,427.1145,125.279,427.1925,125.7995,427.4641,126.4001,427.4878,126.4001,427.453,131.8885,427.5261,137.3768,427.5471,142.8652,427.6675,148.3535,427.4641,153.8419,427.6794,153.9311,427.4379,154.5214,427.0576,155.0542,426.8806,155.6713,426.7131,156.2922,426.2437,156.7882,426.1479,156.5568,425.7446,157.2499,425.0258,157.1812,424.5469,157.6917,423.8209,157.6057,423.2974,158.0086,423.2974,157.9372,413.5966,158.7811,403.8957,157.9578,394.1948,158.1183,384.4939,158.3613,374.793,158.0086,374.8483,158.1421,374.2033,157.7632,373.6527,157.6126,372.9492,157.0927,372.4738,157.1235,371.8468,156.7882,372.0226,156.861,371.7453,156.258,371.5553,155.6911,370.9596,154.9562,370.6612,154.3445,370.6264,153.8419,370.4106,153.8419,370.6059,148.3535,370.5581,142.8652,370.863,137.3768,370.5657,131.8885,370.6264,126.4001,370.5163,126.3545,370.9437,125.8412,370.9006,125.133,371.1921,124.5634,371.8109,124.1293,371.8468,123.4538,371.9047,123.5936,372.5336,123.4454,372.9825,122.8625,373.6569,122.824,374.2822,122.6669,374.793,122.2335" style="stroke:#555555;stroke-width:2.0833333333333335;"/><text fill="#FFFFFF" font-family="Segoe Print" font-size="12.5" font-weight="bold" lengthAdjust="spacing" textLength="28.5877" x="382.0847" y="144.971">Act I</text><polygon fill="#333333" points="233.6335,197.9504,233.6606,198.0181,235.6634,198.6501,237.825,199.6793,239.935,200.5792,241.8748,201.0537,244.0501,202.117,244.0401,202.092,241.9118,202.8129,239.834,203.6601,237.7913,204.5951,235.6276,205.2275,233.6335,206.2837,233.7694,206.4196,234.312,205.2956,235.2516,204.5685,236.2395,203.8897,236.9457,202.9293,237.8001,202.117,237.8169,202.1338,236.9589,201.2758,236.1773,200.4942,235.3588,199.6757,234.6106,198.9275,233.6335,197.9504" style="stroke:#333333;stroke-width:1.0416666666666667;"/><path d="M37.6272,202.117 L37.6272,202.4089 L48.2723,201.5416 L58.9173,202.3855 L69.5624,202.6721 L80.2075,201.1262 L90.8525,202.0091 L101.4976,201.5247 L112.1427,201.5844 L122.7877,202.0224 L133.4328,201.1568 L144.0779,202.886 L154.7229,201.2416 L165.368,201.8423 L176.0131,202.717 L186.6581,201.9979 L197.3032,202.2118 L207.9483,202.0727 L218.5933,202.365 L229.2384,202.4492 L239.8835,202.117 " fill="none" style="stroke:#333333;stroke-width:3.125;stroke-dasharray:2.0,2.0;"/><text fill="#2E2E2E" font-family="Segoe Print" font-size="12.5" lengthAdjust="spacing" textLength="10.5001" x="50.1272" y="191.1628">1.</text><text fill="#2E2E2E" font-family="Segoe Print" font-size="12.5" lengthAdjust="spacing" textLength="3.25" x="60.6273" y="191.1628">&#160;</text><text fill="#2E2E2E" font-family="Segoe Print" font-size="12.5" lengthAdjust="spacing" textLength="44.6753" x="63.8773" y="191.1628">Creates</text><text fill="#2E2E2E" font-family="Segoe Print" font-size="12.5" lengthAdjust="spacing" textLength="3.25" x="108.5526" y="191.1628">&#160;</text><text fill="#2E2E2E" font-family="Segoe Print" font-size="12.5" lengthAdjust="spacing" textLength="7.0125" x="111.8026" y="191.1628">a</text><text fill="#2E2E2E" font-family="Segoe Print" font-size="12.5" lengthAdjust="spacing" textLength="3.25" x="118.8152" y="191.1628">&#160;</text><text fill="#2E2E2E" font-family="Segoe Print" font-size="12.5" lengthAdjust="spacing" textLength="28.9752" x="122.0652" y="191.1628">meal</text><polygon fill="#333333" points="472.5016,239.9755,472.5287,240.0432,474.5315,240.6752,476.6932,241.7045,478.8032,242.6043,480.7429,243.0788,482.9183,244.1421,482.9083,244.1171,480.7799,244.838,478.7022,245.6852,476.6595,246.6202,474.4958,247.2526,472.5016,248.3088,472.6375,248.4447,473.1802,247.3207,474.1197,246.5936,475.1077,245.9149,475.8139,244.9544,476.6683,244.1421,476.685,244.1589,475.8271,243.301,475.0454,242.5193,474.227,241.7009,473.4787,240.9526,472.5016,239.9755" style="stroke:#333333;stroke-width:1.0416666666666667;"/><path d="M246.1335,244.1421 L246.1335,244.4341 L256.707,243.5667 L267.2806,244.4106 L277.8541,244.6973 L288.4277,243.1513 L299.0012,244.0342 L309.5748,243.5498 L320.1483,243.6095 L330.7219,244.0475 L341.2954,243.1819 L351.869,244.9111 L362.4425,243.2668 L373.0161,243.8675 L383.5896,244.7421 L394.1632,244.023 L404.7367,244.2369 L415.3103,244.0978 L425.8838,244.3901 L436.4574,244.4743 L447.031,244.9556 L457.6045,245.0742 L468.1781,245.0856 L478.7516,244.1421 " fill="none" style="stroke:#333333;stroke-width:3.125;"/><text fill="#2E2E2E" font-family="Segoe Print" font-size="12.5" lengthAdjust="spacing" textLength="10.5001" x="258.6335" y="233.188">2.</text><text fill="#2E2E2E" font-family="Segoe Print" font-size="12.5" lengthAdjust="spacing" textLength="3.25" x="269.1335" y="233.188">&#160;</text><text fill="#2E2E2E" font-family="Segoe Print" font-size="12.5" lengthAdjust="spacing" textLength="28.6252" x="272.3835" y="233.188">Meal</text><text fill="#2E2E2E" font-family="Segoe Print" font-size="12.5" lengthAdjust="spacing" textLength="3.25" x="301.0087" y="233.188">&#160;</text><text fill="#2E2E2E" font-family="Segoe Print" font-size="12.5" lengthAdjust="spacing" textLength="25.2377" x="304.2588" y="233.188">gets</text><text fill="#2E2E2E" font-family="Segoe Print" font-size="12.5" lengthAdjust="spacing" textLength="3.25" x="329.4965" y="233.188">&#160;</text><text fill="#2E2E2E" font-family="Segoe Print" font-size="12.5" lengthAdjust="spacing" textLength="54.3504" x="332.7465" y="233.188">persisted</text><polygon fill="#333333" points="49.0855,282.0006,49.1126,282.0684,46.9488,282.7004,44.9438,283.7296,42.8871,284.6294,40.6602,285.1039,38.6689,286.1673,38.6588,286.1422,40.6972,286.8631,42.7861,287.7103,44.9101,288.6453,46.913,289.2777,49.0855,290.3339,49.2215,290.4699,48.0974,289.3458,47.3703,288.6187,46.6916,287.94,45.7311,286.9795,44.9189,286.1673,44.9356,286.184,45.7443,285.3261,46.6294,284.5444,47.4776,283.726,48.396,282.9777,49.0855,282.0006" style="stroke:#333333;stroke-width:1.0416666666666667;"/><path d="M42.8355,286.1673 L42.8355,286.4592 L53.4806,285.5918 L64.1257,286.4357 L74.7707,286.7224 L85.4158,285.1764 L96.0609,286.0593 L106.7059,285.5749 L117.351,285.6346 L127.9961,286.0726 L138.6411,285.207 L149.2862,286.9362 L159.9313,285.2919 L170.5763,285.8926 L181.2214,286.7672 L191.8665,286.0481 L202.5115,286.262 L213.1566,286.1229 L223.8017,286.4152 L234.4467,286.4994 L245.0918,286.1673 " fill="none" style="stroke:#333333;stroke-width:3.125;"/><text fill="#2E2E2E" font-family="Segoe Print" font-size="12.5" lengthAdjust="spacing" textLength="10.5001" x="60.5439" y="275.2131">3.</text><text fill="#2E2E2E" font-family="Segoe Print" font-size="12.5" lengthAdjust="spacing" textLength="3.25" x="71.0439" y="275.2131">&#160;</text><text fill="#2E2E2E" font-family="monospace" font-size="12.5" lengthAdjust="spacing" textLength="22.5769" x="74.2939" y="275.9276">201</text><text fill="#2E2E2E" font-family="monospace" font-size="12.5" lengthAdjust="spacing" textLength="7.5256" x="96.8709" y="275.9276">&#160;</text><text fill="#2E2E2E" font-family="monospace" font-size="12.5" lengthAdjust="spacing" textLength="52.6794" x="104.3965" y="275.9276">CREATED</text><polygon fill="#555555" points="14.5833,321.7632,14.5833,321.9821,24.9742,321.3316,35.3651,321.9645,45.7559,322.1795,56.1468,321.02,66.5376,321.6822,76.9285,321.3189,87.3194,321.3637,97.7102,321.6922,108.1011,321.043,118.492,322.3399,128.8828,321.1066,139.2737,321.5571,149.6645,322.2131,160.0554,321.6738,170.4463,321.8342,180.8371,321.7299,191.228,321.9491,201.6189,322.0123,212.0097,322.3732,222.4006,322.4622,232.7914,322.4707,243.1823,322.0284,253.5732,322.2461,263.964,322.4946,274.3549,321.0119,284.7458,322.4699,295.1366,321.4543,305.5275,322.3192,315.9183,321.2475,326.3092,321.6918,336.7001,322.5357,347.0909,321.7124,357.4818,321.8728,367.8727,322.1159,378.2635,322.1967,388.6544,321.7591,399.0452,322.0623,409.4361,321.1669,419.827,322.0594,430.2178,322.3342,440.6087,322.2262,450.9996,322.4017,461.3904,321.2599,471.7813,321.0838,482.1721,321.1159,492.563,321.7018,502.9539,321.5584,513.3447,322.473,523.7356,321.5812,534.1265,321.4058,544.5173,322.0009,554.9082,321.0685,565.299,321.2224,575.6899,322.4391,586.0808,322.217,596.4716,322.5282,606.8625,321.428,617.2534,322.0957,627.6442,322.3782,638.0351,321.2711,648.4259,321.6633,658.8168,321.8944,669.2077,322.4421,679.5985,321.7588,689.9894,322.245,700.3802,321.1863,710.7711,321.0577,721.162,322.2878,731.5528,321.0163,741.9437,322.2933,752.3346,321.9784,762.7254,321.4841,773.1163,321.3946,783.5071,321.7632,783.5316,321.9206,784.0805,321.752,784.7172,322.1493,785.2455,321.8481,785.8971,322.3411,786.4534,322.2208,786.5663,322.3455,786.7546,322.5048,786.9526,322.6749,787.355,323.0707,787.5727,323.2626,787.6738,323.3257,787.7133,323.3692,787.4922,323.6157,787.1553,323.7341,787.1085,324.173,786.7336,324.2494,786.4534,324.4305,786.4626,324.4897,785.8317,324.3133,785.2533,324.4745,784.7139,324.8872,784.1193,324.9441,783.5071,324.8882,783.5071,324.8434,773.1163,324.5526,762.7254,324.6601,752.3346,324.1734,741.9437,325.3202,731.5528,325.6585,721.162,325.4365,710.7711,325.612,700.3802,324.7457,689.9894,324.979,679.5985,324.4844,669.2077,325.184,658.8168,325.1452,648.4259,325.4636,638.0351,324.6489,627.6442,324.7481,617.2534,325.3501,606.8625,325.4791,596.4716,324.3543,586.0808,324.6862,575.6899,325.0436,565.299,324.2519,554.9082,325.2563,544.5173,325.1569,534.1265,324.7832,523.7356,325.0363,513.3447,325.6472,502.9539,324.5622,492.563,325.2163,482.1721,325.1857,471.7813,325.0087,461.3904,325.0349,450.9996,325.0064,440.6087,324.238,430.2178,324.4706,419.827,324.4074,409.4361,324.9546,399.0452,324.98,388.6544,325.0566,378.2635,324.5851,367.8727,324.8178,357.4818,324.7629,347.0909,325.489,336.7001,325.3325,326.3092,324.3824,315.9183,324.8122,305.5275,324.2869,295.1366,325.1886,284.7458,325.522,274.3549,325.4554,263.964,324.4345,253.5732,325.3715,243.1823,324.1144,232.7914,325.0966,222.4006,324.5764,212.0097,324.9889,201.6189,325.1385,191.228,325.3799,180.8371,324.1382,170.4463,325.3834,160.0554,325.0738,149.6645,325.2583,139.2737,325.6671,128.8828,324.8939,118.492,325.0707,108.1011,325.1105,97.7102,325.0936,87.3194,324.8873,76.9285,325.6285,66.5376,324.253,56.1468,325.477,45.7559,324.2382,35.3651,324.3253,24.9742,324.9298,14.5833,324.8882,14.5848,324.8979,13.9678,324.6275,13.4269,324.847,12.8214,324.6509,12.265,324.7714,11.6371,324.4305,11.7925,324.6022,11.2885,324.0942,11.0562,323.8861,10.8747,323.7343,10.7436,323.6381,10.4167,323.3257,10.5106,323.4294,10.7309,323.1822,10.8251,322.7957,11.2972,322.8265,11.5407,322.6049,11.6371,322.2208,11.6345,322.2046,12.2136,322.0472,12.7942,321.9,13.3934,321.8726,14.0014,321.9018,14.5833,321.7632" style="stroke:#555555;stroke-width:1.0416666666666667;"/><path d="M10.4167,321.7632 L10.4167,322.0551 L20.7801,321.1877 L31.1435,322.0316 L41.507,322.3183 L51.8704,320.7723 L62.2338,321.6552 L72.5972,321.1708 L82.9607,321.2305 L93.3241,321.6685 L103.6875,320.8029 L114.051,322.5321 L124.4144,320.8878 L134.7778,321.4885 L145.1412,322.3631 L155.5047,321.644 L165.8681,321.8579 L176.2315,321.7188 L186.595,322.0111 L196.9584,322.0953 L207.3218,322.5766 L217.6852,322.6952 L228.0487,322.7066 L238.4121,322.1168 L248.7755,322.407 L259.139,322.7385 L269.5024,320.7615 L279.8658,322.7055 L290.2292,321.3513 L300.5927,322.5046 L310.9561,321.0756 L321.3195,321.668 L331.683,322.7932 L342.0464,321.6955 L352.4098,321.9094 L362.7732,322.2335 L373.1367,322.3413 L383.5001,321.7577 L393.8635,322.1621 L404.227,320.9681 L414.5904,322.1581 L424.9538,322.5245 L435.3172,322.3806 L445.6807,322.6146 L456.0441,321.0922 L466.4075,320.8573 L476.771,320.9001 L487.1344,321.6814 L497.4978,321.4902 L507.8612,322.7096 L518.2247,321.5205 L528.5881,321.2867 L538.9515,322.0802 L549.315,320.837 L559.6784,321.0421 L570.0418,322.6645 L580.4052,322.3682 L590.7687,322.7833 L601.1321,321.3162 L611.4955,322.2065 L621.859,322.5832 L632.2224,321.107 L642.5858,321.63 L652.9492,321.9381 L663.3127,322.6684 L673.6761,321.7573 L684.0395,322.4056 L694.403,320.994 L704.7664,320.8225 L715.1298,322.4626 L725.4932,320.7674 L735.8567,322.47 L746.2201,322.0501 L756.5835,321.391 L766.947,321.2718 L777.3104,322.4003 L787.6738,321.7632 " fill="#555555" style="stroke:#555555;stroke-width:1.0416666666666667;"/><path d="M10.4167,324.8882 L10.4167,325.1801 L20.7801,324.3127 L31.1435,325.1566 L41.507,325.4433 L51.8704,323.8973 L62.2338,324.7802 L72.5972,324.2958 L82.9607,324.3555 L93.3241,324.7935 L103.6875,323.9279 L114.051,325.6571 L124.4144,324.0128 L134.7778,324.6135 L145.1412,325.4881 L155.5047,324.769 L165.8681,324.9829 L176.2315,324.8438 L186.595,325.1361 L196.9584,325.2203 L207.3218,325.7016 L217.6852,325.8202 L228.0487,325.8316 L238.4121,325.2418 L248.7755,325.532 L259.139,325.8635 L269.5024,323.8865 L279.8658,325.8305 L290.2292,324.4763 L300.5927,325.6296 L310.9561,324.2006 L321.3195,324.793 L331.683,325.9182 L342.0464,324.8205 L352.4098,325.0344 L362.7732,325.3585 L373.1367,325.4663 L383.5001,324.8827 L393.8635,325.2871 L404.227,324.0931 L414.5904,325.2831 L424.9538,325.6495 L435.3172,325.5056 L445.6807,325.7396 L456.0441,324.2172 L466.4075,323.9823 L476.771,324.0251 L487.1344,324.8064 L497.4978,324.6152 L507.8612,325.8346 L518.2247,324.6455 L528.5881,324.4117 L538.9515,325.2052 L549.315,323.962 L559.6784,324.1671 L570.0418,325.7895 L580.4052,325.4932 L590.7687,325.9083 L601.1321,324.4412 L611.4955,325.3315 L621.859,325.7082 L632.2224,324.232 L642.5858,324.755 L652.9492,325.0631 L663.3127,325.7934 L673.6761,324.8823 L684.0395,325.5306 L694.403,324.119 L704.7664,323.9475 L715.1298,325.5876 L725.4932,323.8924 L735.8567,325.595 L746.2201,325.1751 L756.5835,324.516 L766.947,324.3968 L777.3104,325.5253 L787.6738,324.8882 " fill="#555555" style="stroke:#555555;stroke-width:1.0416666666666667;"/><polygon fill="#555555" points="326.5927,304.9173,326.5927,305.1362,336.9431,304.4857,347.2934,305.1186,357.6438,305.3336,367.9942,304.1741,378.3445,304.8363,388.6949,304.473,399.0452,304.5178,409.3956,304.8463,419.746,304.1971,430.0963,305.494,440.4467,304.2607,450.797,304.7113,461.1474,305.3672,471.4978,304.9173,471.4864,304.8897,472.0961,305.1832,472.672,305.3952,473.2892,305.7068,473.8866,305.9703,474.444,306.1377,474.6319,306.2155,474.9034,306.8161,475.1501,307.4064,475.2579,307.9393,475.5691,308.5563,475.6644,309.0839,475.9083,309.0839,475.414,314.5723,475.9,320.0606,475.5615,325.549,475.8498,331.0374,475.6644,336.5257,475.5056,336.4599,475.3984,337.1059,475.4142,337.8028,474.9166,338.287,474.7219,338.8967,474.444,339.472,474.489,339.5806,473.9101,339.8496,473.265,339.9589,472.7144,340.2964,472.0109,340.2647,471.4978,340.6924,471.4978,340.9886,461.1474,341.2634,450.797,341.1554,440.4467,341.3309,430.0963,340.1892,419.746,340.013,409.3956,340.0451,399.0452,340.631,388.6949,340.4877,378.3445,341.4022,367.9942,340.5104,357.6438,340.335,347.2934,340.9302,336.9431,339.9978,326.5927,340.6924,326.5237,340.5259,326.0897,340.6565,325.4721,340.344,324.9226,340.1958,324.1929,339.6128,323.6464,339.472,323.7488,339.5144,323.5918,338.9612,323.0068,338.2307,322.8835,337.6915,322.7106,337.1317,322.4261,336.5257,322.6524,336.5257,322.4246,331.0374,322.5867,325.549,322.2338,320.0606,322.1909,314.5723,322.4261,309.0839,322.5876,309.1508,322.4401,308.3994,323.0775,307.973,323.2246,307.3436,323.3164,306.6913,323.6464,306.1377,323.5994,306.0242,324.2967,306.0407,324.7852,305.5535,325.4929,305.5953,325.93,304.984,326.5927,304.9173" style="stroke:#555555;stroke-width:2.0833333333333335;"/><text fill="#FFFFFF" font-family="Segoe Print" font-size="12.5" font-weight="bold" lengthAdjust="spacing" textLength="124.9883" x="333.8844" y="327.6549">Asynchronous tasks</text><polygon fill="#333333" points="257.5918,380.6342,257.6189,380.7019,255.455,381.3339,253.45,382.3631,251.3933,383.263,249.1665,383.7375,247.1751,384.8008,247.1651,384.7758,249.2035,385.4967,251.2923,386.3439,253.4163,387.2789,255.4193,387.9113,257.5918,388.9675,257.7277,389.1034,256.6037,387.9794,255.8766,387.2523,255.1978,386.5736,254.2374,385.6131,253.4251,384.8008,253.4419,384.8176,254.2506,383.9597,255.1356,383.178,255.9838,382.3595,256.9023,381.6113,257.5918,380.6342" style="stroke:#333333;stroke-width:1.0416666666666667;"/><polygon fill="none" points="488.6705,385.0331,488.0597,385.8676,487.3373,387.0899,486.3041,387.9137,485.2184,388.3641,484.3528,388.4032,483.2401,387.8399,482.1903,387.4718,481.3935,386.7246,480.9755,385.8691,480.7276,385.188,480.4848,384.2983,480.0906,383.5326,480.3935,382.7851,480.6589,381.9663,481.6548,381.3186,482.3554,380.4783,483.2226,380.1993,484.2536,379.959,485.5756,380.1018,486.2997,380.4433,487.1417,380.5981,488.1653,381.6468,488.5222,382.754,488.6772,383.5095,488.5016,384.7544" style="stroke:#333333;stroke-width:1.5625;"/><path d="M251.3418,384.8008 L251.3418,385.0928 L261.7259,384.2254 L272.1101,385.0693 L282.4943,385.3559 L292.8784,383.81 L303.2626,384.6929 L313.6467,384.2085 L324.0309,384.2682 L334.4151,384.7062 L344.7992,383.8406 L355.1834,385.5698 L365.5675,383.9254 L375.9517,384.5262 L386.3359,385.4008 L396.72,384.6817 L407.1042,384.8956 L417.4883,384.7565 L427.8725,385.0488 L438.2566,385.133 L448.6408,385.6143 L459.025,385.7329 L469.4091,385.7442 L479.7933,384.8008 " fill="none" style="stroke:#333333;stroke-width:3.125;"/><text fill="#2E2E2E" font-family="Segoe Print" font-size="12.5" lengthAdjust="spacing" textLength="10.5001" x="269.0501" y="373.8466">4.</text><text fill="#2E2E2E" font-family="Segoe Print" font-size="12.5" lengthAdjust="spacing" textLength="3.25" x="279.5502" y="373.8466">&#160;</text><text fill="#2E2E2E" font-family="Segoe Print" font-size="12.5" lengthAdjust="spacing" textLength="27.7252" x="282.8002" y="373.8466">Pulls</text><text fill="#2E2E2E" font-family="Segoe Print" font-size="12.5" lengthAdjust="spacing" textLength="3.25" x="310.5254" y="373.8466">&#160;</text><text fill="#2E2E2E" font-family="Segoe Print" font-size="12.5" lengthAdjust="spacing" textLength="28.9752" x="313.7754" y="373.8466">meal</text><text fill="#2E2E2E" font-family="Segoe Print" font-size="12.5" lengthAdjust="spacing" textLength="3.25" x="342.7506" y="373.8466">&#160;</text><text fill="#2E2E2E" font-family="Segoe Print" font-size="12.5" lengthAdjust="spacing" textLength="69.7005" x="346.0007" y="373.8466">information</text><polygon fill="#333333" points="576.7976,422.6593,576.8247,422.727,578.8275,423.359,580.9892,424.3883,583.0991,425.2881,585.0389,425.7626,587.2143,426.826,587.2042,426.8009,585.0759,427.5218,582.9981,428.369,580.9555,429.304,578.7918,429.9364,576.7976,430.9926,576.9335,431.1286,577.4762,430.0045,578.4157,429.2774,579.4036,428.5987,580.1099,427.6382,580.9643,426.826,580.981,426.8427,580.1231,425.9848,579.3414,425.2031,578.523,424.3847,577.7747,423.6364,576.7976,422.6593" style="stroke:#333333;stroke-width:1.0416666666666667;"/><path d="M246.1335,426.826 L246.1335,427.1179 L256.662,426.2505 L267.1906,427.0944 L277.7192,427.3811 L288.2477,425.8351 L298.7763,426.718 L309.3049,426.2336 L319.8334,426.2933 L330.362,426.7313 L340.8906,425.8657 L351.4191,427.5949 L361.9477,425.9506 L372.4763,426.5513 L383.0048,427.4259 L393.5334,426.7068 L404.062,426.9207 L414.5905,426.7816 L425.1191,427.0739 L435.6477,427.1581 L446.1762,427.6394 L456.7048,427.758 L467.2334,427.7694 L477.7619,427.1796 L488.2905,427.4698 L498.8191,427.8013 L509.3476,425.8243 L519.8762,427.7683 L530.4048,426.4141 L540.9333,427.5674 L551.4619,426.1384 L561.9905,426.7308 L572.519,427.856 L583.0476,426.826 " fill="none" style="stroke:#333333;stroke-width:3.125;stroke-dasharray:2.0,2.0;"/><text fill="#2E2E2E" font-family="Segoe Print" font-size="12.5" lengthAdjust="spacing" textLength="10.5001" x="258.6335" y="415.8718">5.</text><text fill="#2E2E2E" font-family="Segoe Print" font-size="12.5" lengthAdjust="spacing" textLength="3.25" x="269.1335" y="415.8718">&#160;</text><text fill="#2E2E2E" font-family="Segoe Print" font-size="12.5" lengthAdjust="spacing" textLength="50.1629" x="272.3835" y="415.8718">Prompts</text><text fill="#2E2E2E" font-family="Segoe Print" font-size="12.5" lengthAdjust="spacing" textLength="3.25" x="322.5464" y="415.8718">&#160;</text><text fill="#2E2E2E" font-family="Segoe Print" font-size="12.5" lengthAdjust="spacing" textLength="24.4377" x="325.7964" y="415.8718">LLM</text><text fill="#2E2E2E" font-family="Segoe Print" font-size="12.5" lengthAdjust="spacing" textLength="3.25" x="350.2341" y="415.8718">&#160;</text><text fill="#2E2E2E" font-family="Segoe Print" font-size="12.5" lengthAdjust="spacing" textLength="17.0251" x="353.4841" y="415.8718">for</text><text fill="#2E2E2E" font-family="Segoe Print" font-size="12.5" lengthAdjust="spacing" textLength="3.25" x="370.5093" y="415.8718">&#160;</text><text fill="#2E2E2E" font-family="Segoe Print" font-size="12.5" lengthAdjust="spacing" textLength="28.9752" x="373.7593" y="415.8718">meal</text><text fill="#2E2E2E" font-family="Segoe Print" font-size="12.5" lengthAdjust="spacing" textLength="3.25" x="402.7345" y="415.8718">&#160;</text><text fill="#2E2E2E" font-family="Segoe Print" font-size="12.5" lengthAdjust="spacing" textLength="38.6628" x="405.9845" y="415.8718">review</text><path d="M589.2976,485.8762 L589.2976,485.9735 L598.0476,485.6844 L606.7976,485.9657 L615.5476,486.0612 L624.2976,485.5459 L633.0476,485.8762 " fill="none" style="stroke:#333333;stroke-width:3.125;"/><path d="M633.0476,485.8762 L633.1449,485.8762 L632.8558,488.5845 L633.1371,491.2929 L633.2326,494.0012 L632.7173,496.7095 L633.0476,499.4179 " fill="none" style="stroke:#333333;stroke-width:3.125;"/><path d="M590.3393,499.4179 L590.3393,499.5152 L598.8809,499.226 L607.4226,499.5073 L615.9643,499.6029 L624.5059,499.0876 L633.0476,499.4179 " fill="none" style="stroke:#333333;stroke-width:3.125;"/><polygon fill="#333333" points="600.7559,495.2512,600.783,495.319,598.6192,495.951,596.6142,496.9802,594.5575,497.88,592.3306,498.3545,590.3393,499.4179,590.3292,499.3928,592.3676,500.1137,594.4565,500.9609,596.5805,501.8959,598.5834,502.5283,600.7559,503.5845,600.8919,503.7205,599.7678,502.5964,599.0407,501.8693,598.362,501.1906,597.4015,500.2301,596.5893,499.4179,596.606,499.4346,597.4147,498.5767,598.2998,497.795,599.148,496.9766,600.0664,496.2283,600.7559,495.2512" style="stroke:#333333;stroke-width:1.0416666666666667;"/><text fill="#2E2E2E" font-family="Segoe Print" font-size="12.5" lengthAdjust="spacing" textLength="10.5001" x="601.7976" y="457.8969">6.</text><text fill="#2E2E2E" font-family="Segoe Print" font-size="12.5" lengthAdjust="spacing" textLength="3.25" x="612.2977" y="457.8969">&#160;</text><text fill="#2E2E2E" font-family="Segoe Print" font-size="12.5" lengthAdjust="spacing" textLength="88.0756" x="615.5477" y="457.8969">Communicates</text><text fill="#2E2E2E" font-family="Segoe Print" font-size="12.5" lengthAdjust="spacing" textLength="3.25" x="703.6233" y="457.8969">&#160;</text><text fill="#2E2E2E" font-family="Segoe Print" font-size="12.5" lengthAdjust="spacing" textLength="25.2877" x="706.8733" y="457.8969">with</text><text fill="#2E2E2E" font-family="Segoe Print" font-size="12.5" lengthAdjust="spacing" textLength="3.25" x="732.161" y="457.8969">&#160;</text><text fill="#2E2E2E" font-family="Segoe Print" font-size="12.5" lengthAdjust="spacing" textLength="24.4377" x="735.411" y="457.8969">LLM</text><text fill="#2E2E2E" font-family="Segoe Print" font-size="12.5" lengthAdjust="spacing" textLength="3.25" x="759.8487" y="457.8969">&#160;</text><text fill="#2E2E2E" font-family="Segoe Print" font-size="12.5" lengthAdjust="spacing" textLength="12.0751" x="763.0987" y="457.8969">to</text><text fill="#2E2E2E" font-family="Segoe Print" font-size="12.5" lengthAdjust="spacing" textLength="53.2504" x="601.7976" y="474.922">generate</text><text fill="#2E2E2E" font-family="Segoe Print" font-size="12.5" lengthAdjust="spacing" textLength="3.25" x="655.048" y="474.922">&#160;</text><text fill="#2E2E2E" font-family="Segoe Print" font-size="12.5" lengthAdjust="spacing" textLength="28.9752" x="658.298" y="474.922">meal</text><text fill="#2E2E2E" font-family="Segoe Print" font-size="12.5" lengthAdjust="spacing" textLength="3.25" x="687.2732" y="474.922">&#160;</text><text fill="#2E2E2E" font-family="Segoe Print" font-size="12.5" lengthAdjust="spacing" textLength="42.0128" x="690.5232" y="474.922">review.</text><polygon fill="#333333" points="257.5918,537.2763,257.6189,537.3441,255.455,537.9761,253.45,539.0053,251.3933,539.9052,249.1665,540.3797,247.1751,541.443,247.1651,541.4179,249.2035,542.1388,251.2923,542.986,253.4163,543.921,255.4193,544.5534,257.5918,545.6096,257.7277,545.7456,256.6037,544.6216,255.8766,543.8944,255.1978,543.2157,254.2374,542.2552,253.4251,541.443,253.4419,541.4597,254.2506,540.6018,255.1356,539.8201,255.9838,539.0017,256.9023,538.2534,257.5918,537.2763" style="stroke:#333333;stroke-width:1.0416666666666667;"/><path d="M251.3418,541.443 L251.3418,541.7349 L261.8704,540.8675 L272.3989,541.7114 L282.9275,541.9981 L293.4561,540.4522 L303.9846,541.335 L314.5132,540.8506 L325.0418,540.9103 L335.5703,541.3483 L346.0989,540.4827 L356.6275,542.2119 L367.156,540.5676 L377.6846,541.1683 L388.2132,542.0429 L398.7417,541.3238 L409.2703,541.5378 L419.7989,541.3986 L430.3274,541.6909 L440.856,541.7751 L451.3846,542.2564 L461.9131,542.375 L472.4417,542.3864 L482.9703,541.7966 L493.4988,542.0868 L504.0274,542.4183 L514.556,540.4413 L525.0845,542.3854 L535.6131,541.0312 L546.1417,542.1844 L556.6702,540.7554 L567.1988,541.3478 L577.7274,542.473 L588.2559,541.443 " fill="none" style="stroke:#333333;stroke-width:3.125;"/><text fill="#2E2E2E" font-family="Segoe Print" font-size="12.5" lengthAdjust="spacing" textLength="10.5001" x="269.0501" y="530.4888">7.</text><text fill="#2E2E2E" font-family="Segoe Print" font-size="12.5" lengthAdjust="spacing" textLength="3.25" x="279.5502" y="530.4888">&#160;</text><text fill="#2E2E2E" font-family="Segoe Print" font-size="12.5" lengthAdjust="spacing" textLength="45.9378" x="282.8002" y="530.4888">Returns</text><text fill="#2E2E2E" font-family="Segoe Print" font-size="12.5" lengthAdjust="spacing" textLength="3.25" x="328.738" y="530.4888">&#160;</text><text fill="#2E2E2E" font-family="Segoe Print" font-size="12.5" lengthAdjust="spacing" textLength="28.9752" x="331.9881" y="530.4888">meal</text><text fill="#2E2E2E" font-family="Segoe Print" font-size="12.5" lengthAdjust="spacing" textLength="3.25" x="360.9633" y="530.4888">&#160;</text><text fill="#2E2E2E" font-family="Segoe Print" font-size="12.5" lengthAdjust="spacing" textLength="38.6628" x="364.2133" y="530.4888">review</text><text fill="#2E2E2E" font-family="Segoe Print" font-size="12.5" lengthAdjust="spacing" textLength="3.25" x="402.8761" y="530.4888">&#160;</text><text fill="#2E2E2E" font-family="Segoe Print" font-size="12.5" lengthAdjust="spacing" textLength="26.2252" x="406.1261" y="530.4888">data</text><polygon fill="#333333" points="472.5016,596.3265,472.5287,596.3943,474.5315,597.0263,476.6932,598.0555,478.8032,598.9554,480.7429,599.4299,482.9183,600.4932,482.9083,600.4682,480.7799,601.1891,478.7022,602.0362,476.6595,602.9712,474.4958,603.6037,472.5016,604.6599,472.6375,604.7958,473.1802,603.6718,474.1197,602.9447,475.1077,602.2659,475.8139,601.3055,476.6683,600.4932,476.685,600.51,475.8271,599.652,475.0454,598.8704,474.227,598.0519,473.4787,597.3037,472.5016,596.3265" style="stroke:#333333;stroke-width:1.0416666666666667;"/><path d="M246.1335,600.4932 L246.1335,600.7851 L256.707,599.9178 L267.2806,600.7617 L277.8541,601.0483 L288.4277,599.5024 L299.0012,600.3853 L309.5748,599.9009 L320.1483,599.9606 L330.7219,600.3986 L341.2954,599.533 L351.869,601.2622 L362.4425,599.6178 L373.0161,600.2185 L383.5896,601.0931 L394.1632,600.3741 L404.7367,600.588 L415.3103,600.4488 L425.8838,600.7412 L436.4574,600.8253 L447.031,601.3067 L457.6045,601.4252 L468.1781,601.4366 L478.7516,600.4932 " fill="none" style="stroke:#333333;stroke-width:3.125;"/><text fill="#2E2E2E" font-family="Segoe Print" font-size="12.5" lengthAdjust="spacing" textLength="10.5001" x="258.6335" y="572.5139">8.</text><text fill="#2E2E2E" font-family="Segoe Print" font-size="12.5" lengthAdjust="spacing" textLength="3.25" x="269.1335" y="572.5139">&#160;</text><text fill="#2E2E2E" font-family="Segoe Print" font-size="12.5" lengthAdjust="spacing" textLength="45.4754" x="272.3835" y="572.5139">Persists</text><text fill="#2E2E2E" font-family="Segoe Print" font-size="12.5" lengthAdjust="spacing" textLength="3.25" x="317.8589" y="572.5139">&#160;</text><text fill="#2E2E2E" font-family="Segoe Print" font-size="12.5" lengthAdjust="spacing" textLength="28.9752" x="321.1089" y="572.5139">meal</text><text fill="#2E2E2E" font-family="Segoe Print" font-size="12.5" lengthAdjust="spacing" textLength="3.25" x="350.0841" y="572.5139">&#160;</text><text fill="#2E2E2E" font-family="Segoe Print" font-size="12.5" lengthAdjust="spacing" textLength="38.6628" x="353.3342" y="572.5139">review</text><text fill="#2E2E2E" font-family="Segoe Print" font-size="12.5" lengthAdjust="spacing" textLength="3.25" x="391.9969" y="572.5139">&#160;</text><text fill="#2E2E2E" font-family="Segoe Print" font-size="12.5" lengthAdjust="spacing" textLength="12.0751" x="395.247" y="572.5139">to</text><text fill="#2E2E2E" font-family="Segoe Print" font-size="12.5" lengthAdjust="spacing" textLength="3.25" x="407.3221" y="572.5139">&#160;</text><text fill="#2E2E2E" font-family="Segoe Print" font-size="12.5" lengthAdjust="spacing" textLength="19.2876" x="410.5721" y="572.5139">the</text><text fill="#2E2E2E" font-family="Segoe Print" font-size="12.5" lengthAdjust="spacing" textLength="3.25" x="429.8597" y="572.5139">&#160;</text><text fill="#2E2E2E" font-family="Segoe Print" font-size="12.5" lengthAdjust="spacing" textLength="28.9752" x="433.1097" y="572.5139">meal</text><text fill="#2E2E2E" font-family="Segoe Print" font-size="12.5" lengthAdjust="spacing" textLength="33.4002" x="258.6335" y="589.539">entity</text><polygon fill="#555555" points="14.5833,636.0891,14.5833,636.308,24.9742,635.6575,35.3651,636.2904,45.7559,636.5054,56.1468,635.346,66.5376,636.0082,76.9285,635.6448,87.3194,635.6896,97.7102,636.0181,108.1011,635.3689,118.492,636.6658,128.8828,635.4326,139.2737,635.8831,149.6645,636.5391,160.0554,635.9998,170.4463,636.1602,180.8371,636.0558,191.228,636.2751,201.6189,636.3382,212.0097,636.6992,222.4006,636.7881,232.7914,636.7967,243.1823,636.3543,253.5732,636.572,263.964,636.8206,274.3549,635.3379,284.7458,636.7959,295.1366,635.7802,305.5275,636.6452,315.9183,635.5735,326.3092,636.0178,336.7001,636.8616,347.0909,636.0383,357.4818,636.1988,367.8727,636.4418,378.2635,636.5227,388.6544,636.085,399.0452,636.3883,409.4361,635.4928,419.827,636.3853,430.2178,636.6601,440.6087,636.5522,450.9996,636.7277,461.3904,635.5859,471.7813,635.4097,482.1721,635.4418,492.563,636.0278,502.9539,635.8844,513.3447,636.7989,523.7356,635.9072,534.1265,635.7318,544.5173,636.3269,554.9082,635.3945,565.299,635.5484,575.6899,636.7651,586.0808,636.5429,596.4716,636.8542,606.8625,635.7539,617.2534,636.4216,627.6442,636.7041,638.0351,635.597,648.4259,635.9893,658.8168,636.2203,669.2077,636.768,679.5985,636.0847,689.9894,636.5709,700.3802,635.5122,710.7711,635.3836,721.162,636.6137,731.5528,635.3423,741.9437,636.6193,752.3346,636.3043,762.7254,635.81,773.1163,635.7206,783.5071,636.0891,783.5316,636.2465,784.0805,636.0779,784.7172,636.4752,785.2455,636.174,785.8971,636.6671,786.4534,636.5468,786.5663,636.6714,786.7546,636.8308,786.9526,637.0008,787.355,637.3967,787.5727,637.5886,787.6738,637.6516,787.7133,637.6952,787.4922,637.9416,787.1553,638.06,787.1085,638.4989,786.7336,638.5754,786.4534,638.7565,786.4626,638.8157,785.8317,638.6393,785.2533,638.8005,784.7139,639.2132,784.1193,639.27,783.5071,639.2141,783.5071,639.1694,773.1163,638.8785,762.7254,638.9861,752.3346,638.4993,741.9437,639.6461,731.5528,639.9845,721.162,639.7624,710.7711,639.938,700.3802,639.0717,689.9894,639.305,679.5985,638.8104,669.2077,639.51,658.8168,639.4712,648.4259,639.7895,638.0351,638.9749,627.6442,639.0741,617.2534,639.676,606.8625,639.8051,596.4716,638.6802,586.0808,639.0121,575.6899,639.3696,565.299,638.5778,554.9082,639.5822,544.5173,639.4828,534.1265,639.1091,523.7356,639.3623,513.3447,639.9731,502.9539,638.8882,492.563,639.5422,482.1721,639.5117,471.7813,639.3347,461.3904,639.3609,450.9996,639.3323,440.6087,638.5639,430.2178,638.7966,419.827,638.7333,409.4361,639.2806,399.0452,639.3059,388.6544,639.3826,378.2635,638.911,367.8727,639.1438,357.4818,639.0889,347.0909,639.815,336.7001,639.6584,326.3092,638.7083,315.9183,639.1381,305.5275,638.6128,295.1366,639.5145,284.7458,639.8479,274.3549,639.7814,263.964,638.7604,253.5732,639.6974,243.1823,638.4403,232.7914,639.4226,222.4006,638.9023,212.0097,639.3149,201.6189,639.4645,191.228,639.7059,180.8371,638.4642,170.4463,639.7094,160.0554,639.3997,149.6645,639.5842,139.2737,639.9931,128.8828,639.2198,118.492,639.3967,108.1011,639.4364,97.7102,639.4196,87.3194,639.2133,76.9285,639.9544,66.5376,638.579,56.1468,639.8029,45.7559,638.5641,35.3651,638.6513,24.9742,639.2558,14.5833,639.2141,14.5848,639.2238,13.9678,638.9535,13.4269,639.173,12.8214,638.9769,12.265,639.0973,11.6371,638.7565,11.7925,638.9282,11.2885,638.4201,11.0562,638.2121,10.8747,638.0603,10.7436,637.9641,10.4167,637.6516,10.5106,637.7553,10.7309,637.5082,10.8251,637.1216,11.2972,637.1525,11.5407,636.9309,11.6371,636.5468,11.6345,636.5305,12.2136,636.3732,12.7942,636.226,13.3934,636.1985,14.0014,636.2278,14.5833,636.0891" style="stroke:#555555;stroke-width:1.0416666666666667;"/><path d="M10.4167,636.0891 L10.4167,636.381 L20.7801,635.5137 L31.1435,636.3576 L41.507,636.6442 L51.8704,635.0983 L62.2338,635.9812 L72.5972,635.4968 L82.9607,635.5565 L93.3241,635.9944 L103.6875,635.1289 L114.051,636.8581 L124.4144,635.2137 L134.7778,635.8144 L145.1412,636.689 L155.5047,635.97 L165.8681,636.1839 L176.2315,636.0447 L186.595,636.3371 L196.9584,636.4212 L207.3218,636.9026 L217.6852,637.0211 L228.0487,637.0325 L238.4121,636.4428 L248.7755,636.733 L259.139,637.0644 L269.5024,635.0875 L279.8658,637.0315 L290.2292,635.6773 L300.5927,636.8305 L310.9561,635.4016 L321.3195,635.994 L331.683,637.1191 L342.0464,636.0214 L352.4098,636.2354 L362.7732,636.5594 L373.1367,636.6672 L383.5001,636.0837 L393.8635,636.488 L404.227,635.2941 L414.5904,636.4841 L424.9538,636.8505 L435.3172,636.7065 L445.6807,636.9405 L456.0441,635.4182 L466.4075,635.1833 L476.771,635.2261 L487.1344,636.0073 L497.4978,635.8162 L507.8612,637.0355 L518.2247,635.8465 L528.5881,635.6126 L538.9515,636.4061 L549.315,635.1629 L559.6784,635.3681 L570.0418,636.9904 L580.4052,636.6942 L590.7687,637.1092 L601.1321,635.6422 L611.4955,636.5324 L621.859,636.9091 L632.2224,635.433 L642.5858,635.956 L652.9492,636.2641 L663.3127,636.9943 L673.6761,636.0833 L684.0395,636.7316 L694.403,635.32 L704.7664,635.1485 L715.1298,636.7886 L725.4932,635.0934 L735.8567,636.796 L746.2201,636.3761 L756.5835,635.717 L766.947,635.5978 L777.3104,636.7263 L787.6738,636.0891 " fill="#555555" style="stroke:#555555;stroke-width:1.0416666666666667;"/><path d="M10.4167,639.2141 L10.4167,639.506 L20.7801,638.6387 L31.1435,639.4826 L41.507,639.7692 L51.8704,638.2233 L62.2338,639.1062 L72.5972,638.6218 L82.9607,638.6815 L93.3241,639.1194 L103.6875,638.2539 L114.051,639.9831 L124.4144,638.3387 L134.7778,638.9394 L145.1412,639.814 L155.5047,639.095 L165.8681,639.3089 L176.2315,639.1697 L186.595,639.4621 L196.9584,639.5462 L207.3218,640.0276 L217.6852,640.1461 L228.0487,640.1575 L238.4121,639.5678 L248.7755,639.858 L259.139,640.1894 L269.5024,638.2125 L279.8658,640.1565 L290.2292,638.8023 L300.5927,639.9555 L310.9561,638.5266 L321.3195,639.119 L331.683,640.2441 L342.0464,639.1464 L352.4098,639.3604 L362.7732,639.6844 L373.1367,639.7922 L383.5001,639.2087 L393.8635,639.613 L404.227,638.4191 L414.5904,639.6091 L424.9538,639.9755 L435.3172,639.8315 L445.6807,640.0655 L456.0441,638.5432 L466.4075,638.3083 L476.771,638.3511 L487.1344,639.1323 L497.4978,638.9412 L507.8612,640.1605 L518.2247,638.9715 L528.5881,638.7376 L538.9515,639.5311 L549.315,638.2879 L559.6784,638.4931 L570.0418,640.1154 L580.4052,639.8192 L590.7687,640.2342 L601.1321,638.7672 L611.4955,639.6574 L621.859,640.0341 L632.2224,638.558 L642.5858,639.081 L652.9492,639.3891 L663.3127,640.1193 L673.6761,639.2083 L684.0395,639.8566 L694.403,638.445 L704.7664,638.2735 L715.1298,639.9136 L725.4932,638.2184 L735.8567,639.921 L746.2201,639.5011 L756.5835,638.842 L766.947,638.7228 L777.3104,639.8513 L787.6738,639.2141 " fill="#555555" style="stroke:#555555;stroke-width:1.0416666666666667;"/><polygon fill="#555555" points="372.3618,619.2432,372.3618,619.4622,383.0352,618.8116,393.7085,619.4446,404.3819,619.6595,415.0553,618.5001,425.7287,619.2432,425.7184,619.2183,426.2613,619.3505,426.8563,619.6083,427.4874,619.9536,427.9939,619.9977,428.675,620.4636,428.8526,620.5372,428.7169,620.9691,429.0997,621.6158,429.5458,622.2888,429.6238,622.8092,429.8954,623.4099,429.9191,623.4099,429.8843,628.8982,429.9574,634.3866,429.9784,639.875,430.0987,645.3633,429.8954,650.8517,430.1106,650.9408,429.8692,651.5312,429.4889,652.064,429.3119,652.681,429.1443,653.302,428.675,653.7979,428.5792,653.5666,428.1759,654.2597,427.4571,654.191,426.9781,654.7014,426.2522,654.6155,425.7287,655.0183,425.7287,654.947,415.0553,655.7908,404.3819,654.9676,393.7085,655.128,383.0352,655.3711,372.3618,655.0183,372.4171,655.1519,371.772,654.773,371.2214,654.6223,370.5179,654.1025,370.0425,654.1333,369.4155,653.7979,369.5914,653.8708,369.314,653.2678,369.124,652.7009,368.5283,651.966,368.23,651.3543,368.1951,650.8517,367.9793,650.8517,368.1747,645.3633,368.1269,639.875,368.4317,634.3866,368.1345,628.8982,368.1951,623.4099,368.0851,623.3643,368.5124,622.851,368.4693,622.1428,368.7608,621.5731,369.3796,621.1391,369.4155,620.4636,369.4734,620.6034,370.1023,620.4551,370.5512,619.8722,371.2257,619.8338,371.851,619.6767,372.3618,619.2432" style="stroke:#555555;stroke-width:2.0833333333333335;"/><text fill="#FFFFFF" font-family="Segoe Print" font-size="12.5" font-weight="bold" lengthAdjust="spacing" textLength="33.4502" x="379.6534" y="641.9808">Act II</text><polygon fill="#333333" points="233.6335,694.9601,233.6606,695.0279,235.6634,695.6599,237.825,696.6891,239.935,697.589,241.8748,698.0635,244.0501,699.1268,244.0401,699.1017,241.9118,699.8226,239.834,700.6698,237.7913,701.6048,235.6276,702.2372,233.6335,703.2935,233.7694,703.4294,234.312,702.3054,235.2516,701.5782,236.2395,700.8995,236.9457,699.9391,237.8001,699.1268,237.8169,699.1435,236.9589,698.2856,236.1773,697.504,235.3588,696.6855,234.6106,695.9373,233.6335,694.9601" style="stroke:#333333;stroke-width:1.0416666666666667;"/><path d="M37.6272,699.1268 L37.6272,699.4187 L48.2723,698.5513 L58.9173,699.3952 L69.5624,699.6819 L80.2075,698.136 L90.8525,699.0189 L101.4976,698.5344 L112.1427,698.5941 L122.7877,699.0321 L133.4328,698.1666 L144.0779,699.8957 L154.7229,698.2514 L165.368,698.8521 L176.0131,699.7267 L186.6581,699.0077 L197.3032,699.2216 L207.9483,699.0824 L218.5933,699.3747 L229.2384,699.4589 L239.8835,699.1268 " fill="none" style="stroke:#333333;stroke-width:3.125;stroke-dasharray:2.0,2.0;"/><text fill="#2E2E2E" font-family="Segoe Print" font-size="12.5" lengthAdjust="spacing" textLength="10.5001" x="50.1272" y="688.1726">9.</text><text fill="#2E2E2E" font-family="Segoe Print" font-size="12.5" lengthAdjust="spacing" textLength="3.25" x="60.6273" y="688.1726">&#160;</text><text fill="#2E2E2E" font-family="Segoe Print" font-size="12.5" lengthAdjust="spacing" textLength="53.7754" x="63.8773" y="688.1726">Requests</text><text fill="#2E2E2E" font-family="Segoe Print" font-size="12.5" lengthAdjust="spacing" textLength="3.25" x="117.6527" y="688.1726">&#160;</text><text fill="#2E2E2E" font-family="Segoe Print" font-size="12.5" lengthAdjust="spacing" textLength="28.9752" x="120.9027" y="688.1726">meal</text><text fill="#2E2E2E" font-family="Segoe Print" font-size="12.5" lengthAdjust="spacing" textLength="3.25" x="149.8779" y="688.1726">&#160;</text><text fill="#2E2E2E" font-family="Segoe Print" font-size="12.5" lengthAdjust="spacing" textLength="69.7005" x="153.1279" y="688.1726">information</text><polygon fill="#333333" points="257.5918,754.0104,257.6189,754.0781,255.455,754.7101,253.45,755.7393,251.3933,756.6392,249.1665,757.1137,247.1751,758.177,247.1651,758.152,249.2035,758.8729,251.2923,759.7201,253.4163,760.6551,255.4193,761.2875,257.5918,762.3437,257.7277,762.4796,256.6037,761.3556,255.8766,760.6285,255.1978,759.9497,254.2374,758.9893,253.4251,758.177,253.4419,758.1938,254.2506,757.3358,255.1356,756.5542,255.9838,755.7357,256.9023,754.9875,257.5918,754.0104" style="stroke:#333333;stroke-width:1.0416666666666667;"/><polygon fill="none" points="488.6705,758.4093,488.0597,759.2438,487.3373,760.4661,486.3041,761.2899,485.2184,761.7403,484.3528,761.7794,483.2401,761.2161,482.1903,760.848,481.3935,760.1008,480.9755,759.2453,480.7276,758.5642,480.4848,757.6744,480.0906,756.9088,480.3935,756.1613,480.6589,755.3425,481.6548,754.6948,482.3554,753.8545,483.2226,753.5755,484.2536,753.3352,485.5756,753.478,486.2997,753.8195,487.1417,753.9743,488.1653,755.023,488.5222,756.1302,488.6772,756.8857,488.5016,758.1306" style="stroke:#333333;stroke-width:1.5625;"/><path d="M251.3418,758.177 L251.3418,758.4689 L261.7259,757.6016 L272.1101,758.4455 L282.4943,758.7321 L292.8784,757.1862 L303.2626,758.0691 L313.6467,757.5847 L324.0309,757.6444 L334.4151,758.0824 L344.7992,757.2168 L355.1834,758.946 L365.5675,757.3016 L375.9517,757.9023 L386.3359,758.777 L396.72,758.0579 L407.1042,758.2718 L417.4883,758.1327 L427.8725,758.425 L438.2566,758.5092 L448.6408,758.9905 L459.025,759.109 L469.4091,759.1204 L479.7933,758.177 " fill="none" style="stroke:#333333;stroke-width:3.125;"/><text fill="#2E2E2E" font-family="Segoe Print" font-size="12.5" lengthAdjust="spacing" textLength="17.6501" x="269.0501" y="730.1977">10:</text><text fill="#2E2E2E" font-family="Segoe Print" font-size="12.5" lengthAdjust="spacing" textLength="3.25" x="286.7002" y="730.1977">&#160;</text><text fill="#2E2E2E" font-family="Segoe Print" font-size="12.5" lengthAdjust="spacing" textLength="41.3378" x="289.9503" y="730.1977">Checks</text><text fill="#2E2E2E" font-family="Segoe Print" font-size="12.5" lengthAdjust="spacing" textLength="3.25" x="331.2881" y="730.1977">&#160;</text><text fill="#2E2E2E" font-family="Segoe Print" font-size="12.5" lengthAdjust="spacing" textLength="7.5251" x="334.5381" y="730.1977">if</text><text fill="#2E2E2E" font-family="Segoe Print" font-size="12.5" lengthAdjust="spacing" textLength="3.25" x="342.0632" y="730.1977">&#160;</text><text fill="#2E2E2E" font-family="Segoe Print" font-size="12.5" lengthAdjust="spacing" textLength="28.9752" x="345.3132" y="730.1977">meal</text><text fill="#2E2E2E" font-family="Segoe Print" font-size="12.5" lengthAdjust="spacing" textLength="3.25" x="374.2884" y="730.1977">&#160;</text><text fill="#2E2E2E" font-family="Segoe Print" font-size="12.5" lengthAdjust="spacing" textLength="10.9126" x="377.5384" y="730.1977">id</text><text fill="#2E2E2E" font-family="Segoe Print" font-size="12.5" lengthAdjust="spacing" textLength="3.25" x="388.451" y="730.1977">&#160;</text><text fill="#2E2E2E" font-family="Segoe Print" font-size="12.5" lengthAdjust="spacing" textLength="33.3752" x="391.701" y="730.1977">exists</text><text fill="#2E2E2E" font-family="Segoe Print" font-size="12.5" lengthAdjust="spacing" textLength="3.25" x="425.0763" y="730.1977">&#160;</text><text fill="#2E2E2E" font-family="Segoe Print" font-size="12.5" lengthAdjust="spacing" textLength="22.4251" x="428.3263" y="730.1977">and</text><text fill="#2E2E2E" font-family="Segoe Print" font-size="12.5" lengthAdjust="spacing" textLength="27.8502" x="269.0501" y="747.2228">pulls</text><text fill="#2E2E2E" font-family="Segoe Print" font-size="12.5" lengthAdjust="spacing" textLength="3.25" x="296.9003" y="747.2228">&#160;</text><text fill="#2E2E2E" font-family="Segoe Print" font-size="12.5" lengthAdjust="spacing" textLength="7.7376" x="300.1503" y="747.2228">it</text><text fill="#2E2E2E" font-family="Segoe Print" font-size="12.5" lengthAdjust="spacing" textLength="3.25" x="307.8879" y="747.2228">&#160;</text><text fill="#2E2E2E" font-family="Segoe Print" font-size="12.5" lengthAdjust="spacing" textLength="28.7127" x="311.1379" y="747.2228">from</text><text fill="#2E2E2E" font-family="Segoe Print" font-size="12.5" lengthAdjust="spacing" textLength="3.25" x="339.8506" y="747.2228">&#160;</text><text fill="#2E2E2E" font-family="Segoe Print" font-size="12.5" lengthAdjust="spacing" textLength="19.2876" x="343.1007" y="747.2228">the</text><text fill="#2E2E2E" font-family="Segoe Print" font-size="12.5" lengthAdjust="spacing" textLength="3.25" x="362.3883" y="747.2228">&#160;</text><text fill="#2E2E2E" font-family="Segoe Print" font-size="12.5" lengthAdjust="spacing" textLength="53.9629" x="365.6383" y="747.2228">database</text><polygon fill="#333333" points="49.0855,825.137,49.1126,825.2048,46.9488,825.8368,44.9438,826.866,42.8871,827.7659,40.6602,828.2404,38.6689,829.3037,38.6588,829.2787,40.6972,829.9995,42.7861,830.8467,44.9101,831.7817,46.913,832.4142,49.0855,833.4704,49.2215,833.6063,48.0974,832.4823,47.3703,831.7551,46.6916,831.0764,45.7311,830.116,44.9189,829.3037,44.9356,829.3205,45.7443,828.4625,46.6294,827.6809,47.4776,826.8624,48.396,826.1142,49.0855,825.137" style="stroke:#333333;stroke-width:1.0416666666666667;"/><path d="M42.8355,829.3037 L42.8355,829.5956 L53.4806,828.7283 L64.1257,829.5722 L74.7707,829.8588 L85.4158,828.3129 L96.0609,829.1958 L106.7059,828.7114 L117.351,828.7711 L127.9961,829.209 L138.6411,828.3435 L149.2862,830.0727 L159.9313,828.4283 L170.5763,829.029 L181.2214,829.9036 L191.8665,829.1846 L202.5115,829.3985 L213.1566,829.2593 L223.8017,829.5517 L234.4467,829.6358 L245.0918,829.3037 " fill="none" style="stroke:#333333;stroke-width:3.125;"/><text fill="#2E2E2E" font-family="Segoe Print" font-size="12.5" lengthAdjust="spacing" textLength="17.6501" x="60.5439" y="789.248">11:</text><text fill="#2E2E2E" font-family="Segoe Print" font-size="12.5" lengthAdjust="spacing" textLength="3.25" x="78.194" y="789.248">&#160;</text><text fill="#2E2E2E" font-family="monospace" font-size="12.5" lengthAdjust="spacing" textLength="22.5769" x="81.444" y="789.9625">200</text><text fill="#2E2E2E" font-family="monospace" font-size="12.5" lengthAdjust="spacing" textLength="7.5256" x="104.0209" y="789.9625">&#160;</text><text fill="#2E2E2E" font-family="monospace" font-size="12.5" lengthAdjust="spacing" textLength="22.5769" x="111.5465" y="789.9625">OK:</text><text fill="#2E2E2E" font-family="monospace" font-size="12.5" lengthAdjust="spacing" textLength="7.5256" x="134.1234" y="789.9625">&#160;</text><text fill="#2E2E2E" font-family="monospace" font-size="12.5" lengthAdjust="spacing" textLength="52.6794" x="141.6491" y="789.9625">Returns</text><text fill="#2E2E2E" font-family="monospace" font-size="12.5" lengthAdjust="spacing" textLength="7.5256" x="194.3285" y="789.9625">&#160;</text><text fill="#2E2E2E" font-family="monospace" font-size="12.5" lengthAdjust="spacing" textLength="30.1025" x="201.8541" y="789.9625">meal</text><text fill="#2E2E2E" font-family="monospace" font-size="12.5" lengthAdjust="spacing" textLength="90.3076" x="60.5439" y="804.5133">information,</text><text fill="#2E2E2E" font-family="monospace" font-size="12.5" lengthAdjust="spacing" textLength="7.5256" x="150.8515" y="804.5133">&#160;</text><text fill="#2E2E2E" font-family="monospace" font-size="12.5" lengthAdjust="spacing" textLength="37.6282" x="158.3771" y="804.5133">along</text><text fill="#2E2E2E" font-family="monospace" font-size="12.5" lengthAdjust="spacing" textLength="7.5256" x="196.0053" y="804.5133">&#160;</text><text fill="#2E2E2E" font-family="monospace" font-size="12.5" lengthAdjust="spacing" textLength="30.1025" x="203.5309" y="804.5133">with</text><text fill="#2E2E2E" font-family="monospace" font-size="12.5" lengthAdjust="spacing" textLength="52.6794" x="60.5439" y="819.064">review.</text><!--SRC=[NLB1Zjf03BtFLxXmBL52kuMDIgKbSAYwADMcg6TlOiY8P2QTSRfBltwTXD9GpMdiv_ViPx_Zace2VoBEo_FCjbnfGygVj6dGOGqrlkx8UpnIflyGpCDmb7p6_7HqjZL5OYlhOFgpr4nAOSxostjoW1xsIj2iSzsWOSWQfysnYsSmNIwtY-LI5SZuZ9vWiuRf-YvPRDStDMbLOOrTJGhJpNttb5gju25d-0ghbTh3RFP526E80aWS8PC7X9gmKXb8IeXZc0UmamWSYJqqvBpsJCK0s4l-Gm2JoJoC87dQFlpORYQJNiIVJLuwQsphWT6VVAUOmUUP7MW_1l2zhIhVou4s1-jgP6rDnopKgM3k1EDitOZmu-CE13AW7VtMzA9IkE0-IVkshbkZytw65yrbNy5MsZRa93gk38RIRl9504_4hJD-383Esv47IsbacFmM9lno2aE836i-Nmt-p-7xJkTNIrU6sucljaHX34b9kVYb3nTa0VJQIwCfeEbDqmm7SQPN_ti7_rOIHN6_an3IR_7jV2FPzu2LbQFgtReO8yjx0m00]--></g></svg>